<svg xmlns="http://www.w3.org/2000/svg" xmlns:xlink="http://www.w3.org/1999/xlink" viewBox="0 0 162.79 275.77"><defs><style>.cls-1,.cls-4{fill:none;}.cls-2{isolation:isolate;}.cls-3{clip-path:url(#clip-path);}.cls-4{stroke:#000;stroke-miterlimit:10;stroke-width:0.25px;}.cls-5{clip-path:url(#clip-path-2);}.cls-6{clip-path:url(#clip-path-3);}.cls-7{clip-path:url(#clip-path-4);}.cls-8{clip-path:url(#clip-path-5);}.cls-9{clip-path:url(#clip-path-6);}.cls-10{clip-path:url(#clip-path-7);}.cls-11{clip-path:url(#clip-path-8);}.cls-12{clip-path:url(#clip-path-9);}.cls-13{clip-path:url(#clip-path-10);}.cls-14{clip-path:url(#clip-path-11);}.cls-15{clip-path:url(#clip-path-12);}.cls-16{clip-path:url(#clip-path-13);}.cls-17{clip-path:url(#clip-path-14);}.cls-18{clip-path:url(#clip-path-15);}.cls-19{clip-path:url(#clip-path-16);}.cls-20{clip-path:url(#clip-path-17);}.cls-21{clip-path:url(#clip-path-18);}.cls-22{clip-path:url(#clip-path-19);}.cls-23{clip-path:url(#clip-path-20);}.cls-24{clip-path:url(#clip-path-21);}.cls-25{clip-path:url(#clip-path-22);}.cls-26{clip-path:url(#clip-path-23);}.cls-27{clip-path:url(#clip-path-24);}.cls-28{clip-path:url(#clip-path-25);}.cls-29{clip-path:url(#clip-path-26);}</style><clipPath id="clip-path"><path class="cls-1" d="M95.75,39.93a11.18,11.18,0,0,1,8,2.4,11.51,11.51,0,0,0,8.34,2.05,14.57,14.57,0,0,0,8.35-3.68,14.36,14.36,0,0,1,8.2-4,9.89,9.89,0,0,1,8.38,3c4.37,4.57,4.48,11.88-.2,17.73a12.07,12.07,0,0,0-2.79,8c-.2,9.74-.6,19.5-1,29.27a8,8,0,0,0,2,6.17c4.41,5,3.77,12.82-1.12,18.24a13.64,13.64,0,0,1-8.59,4.51,10.68,10.68,0,0,1-8.46-2.7c-4.49-4.16-4.61-12.14.11-18.13a11.35,11.35,0,0,0,2.58-7.17c.34-10.08.79-20.16,1.12-30.24.17-5.33-2.08-7.43-7.17-7-.94.08-1.88.14-2.81.24-3,.32-6,1.07-8.29,4.42a3.55,3.55,0,0,1-2,1.31c-6.47,1.19-6.56,5.8-6.67,11.1-.33,15.18-1,30.4-1.6,45.6-.68,16-1.23,32-1.9,48a10.43,10.43,0,0,0,2.21,7.58c4,5,3.69,11.34-.86,17.06a11.06,11.06,0,0,0-2.53,7.13c-.26,8.47-.55,16.95-1,25.44-.22,4.23.13,7.83,2.73,11.13,3.7,4.72,2.37,12.26-2.17,17.15A13.55,13.55,0,0,1,80.17,259a10.62,10.62,0,0,1-7.56-2c-5.16-3.84-5.75-12.46-.87-18.62a11.89,11.89,0,0,0,2.81-7.55c.31-9.59.66-19.19,1.12-28.8a8.25,8.25,0,0,0-2-6.23c-4.3-5-4-11.77.83-17.76a9.43,9.43,0,0,0,2.33-5.79c.5-14.07,1-28.15,1.6-42.24.13-2.84-.87-3.87-3.36-3.6s-4.93.6-7.29.85c-1.81.19-3.62.36-5.42.51-2.8.29-3.6,1.78-3.69,4.49q-.72,21.12-1.64,42.25a6.91,6.91,0,0,0,1.83,4.91c4.59,5.89,4.35,11.92-.84,18.6a8.65,8.65,0,0,0-2,5.35q-.49,14.87-1.2,29.77a8.61,8.61,0,0,0,1.93,6.3c4.54,5.56,4,13.15-1.15,18.57A13.87,13.87,0,0,1,47,262.39a10.4,10.4,0,0,1-8.45-2.82c-4.56-4.39-4.58-11.69.31-18.08a11.6,11.6,0,0,0,2.52-7.18c.3-9.59.7-19.2,1.12-28.8a8.09,8.09,0,0,0-2-6.19c-4.22-4.89-3.91-12.1.78-17.87a10.39,10.39,0,0,0,2.47-6.67q1.79-49.42,3.73-98.87c.13-3.25-.75-4.66-3.67-4.6a4.73,4.73,0,0,1-4-1.43c-2.31-3-5.38-3.12-8.57-2.78-1.18.12-2.37.31-3.54.43A7.6,7.6,0,0,0,20.94,75c-.49,10.89-.82,21.76-1.31,32.64a6.51,6.51,0,0,0,1.87,4.84c4.56,5.53,4.13,13-.91,18.52a13.83,13.83,0,0,1-8.63,4.6,10.61,10.61,0,0,1-8.69-3c-4.48-4.44-4.18-12.16.95-18.56a7.88,7.88,0,0,0,1.94-4.88q.57-16.32,1.2-32.63a6.59,6.59,0,0,0-1.8-4.9c-4.33-5-4.07-12.33.41-17.8a13.55,13.55,0,0,1,9-5.1A11.46,11.46,0,0,1,23,50.94a11.62,11.62,0,0,0,8.12,1.92,15.51,15.51,0,0,0,8.6-3.79,14.46,14.46,0,0,1,7.94-3.9,10.64,10.64,0,0,1,8.3,2.9,6,6,0,0,0,5,1.54c2.87-.34,5.61-.64,8.34-.92l2.74-.29,3.13-.32,1.56-.17,1-.1.64-.06c4-.42,7.71-1,11.35-4.84A9.58,9.58,0,0,1,95.75,39.93Z"/></clipPath><clipPath id="clip-path-2"><path class="cls-1" d="M118.1,53.12a11.14,11.14,0,0,1,8,2.39,11.5,11.5,0,0,0,8.35,2.06,14.61,14.61,0,0,0,8.34-3.68,14.39,14.39,0,0,1,8.21-4,9.91,9.91,0,0,1,8.38,3c4.36,4.58,4.48,11.88-.21,17.74a12.1,12.1,0,0,0-2.78,8c-.2,9.74-.6,19.5-1,29.27a8,8,0,0,0,2,6.16c4.4,5,3.77,12.83-1.12,18.25a13.64,13.64,0,0,1-8.59,4.51,10.66,10.66,0,0,1-8.46-2.71c-4.5-4.15-4.61-12.13.1-18.12a11.38,11.38,0,0,0,2.59-7.17c.34-10.08.78-20.16,1.11-30.24.18-5.34-2.07-7.43-7.16-7-.94.08-1.88.14-2.82.23-3,.32-6,1.08-8.28,4.43a3.53,3.53,0,0,1-2,1.3c-6.47,1.2-6.56,5.81-6.67,11.11-.33,15.17-1,30.4-1.6,45.59-.69,16-1.23,32-1.9,48a10.48,10.48,0,0,0,2.2,7.59c4,5,3.7,11.34-.86,17.06A11.09,11.09,0,0,0,111.4,214c-.26,8.48-.55,17-1,25.45-.22,4.23.13,7.82,2.72,11.13,3.71,4.72,2.37,12.26-2.16,17.15a13.63,13.63,0,0,1-8.44,4.39,10.66,10.66,0,0,1-7.57-2c-5.15-3.85-5.74-12.46-.87-18.62A11.92,11.92,0,0,0,96.9,244c.31-9.59.66-19.19,1.12-28.8a8.29,8.29,0,0,0-2-6.23c-4.29-5-3.95-11.77.84-17.76a9.44,9.44,0,0,0,2.32-5.79c.5-14.07,1-28.16,1.61-42.24.13-2.85-.87-3.87-3.36-3.61s-4.93.61-7.3.86c-1.8.19-3.61.36-5.41.51-2.8.29-3.6,1.77-3.69,4.49q-.72,21.12-1.65,42.25a7,7,0,0,0,1.84,4.91c4.59,5.89,4.34,11.91-.84,18.59a8.64,8.64,0,0,0-2,5.36q-.51,14.87-1.2,29.76a8.59,8.59,0,0,0,1.93,6.31c4.54,5.56,4,13.15-1.15,18.57a13.9,13.9,0,0,1-8.54,4.43,10.44,10.44,0,0,1-8.45-2.83c-4.57-4.39-4.59-11.68.31-18.07a11.6,11.6,0,0,0,2.52-7.18c.3-9.6.69-19.2,1.12-28.81a8.12,8.12,0,0,0-2-6.19c-4.23-4.89-3.91-12.09.78-17.86A10.33,10.33,0,0,0,66.07,188q1.8-49.42,3.74-98.88c.13-3.24-.76-4.65-3.67-4.6a4.76,4.76,0,0,1-4-1.42c-2.3-3-5.37-3.12-8.56-2.78-1.18.12-2.37.31-3.55.43a7.59,7.59,0,0,0-6.77,7.48c-.5,10.88-.83,21.75-1.31,32.64a6.47,6.47,0,0,0,1.87,4.84c4.56,5.53,4.13,13-.91,18.52a13.79,13.79,0,0,1-8.63,4.59,10.53,10.53,0,0,1-8.69-3c-4.49-4.43-4.18-12.16.94-18.56a7.83,7.83,0,0,0,2-4.87q.57-16.32,1.2-32.64a6.6,6.6,0,0,0-1.8-4.9c-4.34-5-4.08-12.32.41-17.79a13.59,13.59,0,0,1,9-5.11,11.51,11.51,0,0,1,8.09,2.24,11.62,11.62,0,0,0,8.12,1.92,15.57,15.57,0,0,0,8.6-3.79A14.39,14.39,0,0,1,70,58.36a10.65,10.65,0,0,1,8.31,2.9,6.06,6.06,0,0,0,5,1.54c2.87-.35,5.6-.64,8.34-.93l2.73-.28,3.13-.33,1.57-.17,1-.09.63-.06c4-.42,7.72-1,11.36-4.84A9.53,9.53,0,0,1,118.1,53.12Z"/></clipPath><clipPath id="clip-path-3"><path class="cls-1" d="M124.81,54.63a11.58,11.58,0,0,1,1.28.88,8.27,8.27,0,0,0,1,.68L104.73,43a9.41,9.41,0,0,1-1-.67,10.13,10.13,0,0,0-1.29-.88Z"/></clipPath><clipPath id="clip-path-4"><path class="cls-1" d="M102.46,41.45l22.35,13.18a11.08,11.08,0,0,0-6.71-1.51L95.75,39.93A11,11,0,0,1,102.46,41.45Z"/></clipPath><clipPath id="clip-path-5"><path class="cls-1" d="M127.08,56.19,104.73,43a12.09,12.09,0,0,0,7.36,1.38,14.57,14.57,0,0,0,8.35-3.68,14.36,14.36,0,0,1,8.2-4A10.14,10.14,0,0,1,134.87,38l22.35,13.19A10.08,10.08,0,0,0,151,49.9a14.39,14.39,0,0,0-8.21,4,14.61,14.61,0,0,1-8.34,3.68A12.08,12.08,0,0,1,127.08,56.19Z"/></clipPath><clipPath id="clip-path-6"><path class="cls-1" d="M157.22,51.19a10.5,10.5,0,0,1,2.15,1.71c4.36,4.58,4.48,11.88-.21,17.74a12.1,12.1,0,0,0-2.78,8c-.2,9.74-.6,19.5-1,29.27a8,8,0,0,0,2,6.16c4.4,5,3.77,12.83-1.12,18.25a13.64,13.64,0,0,1-8.59,4.51,11,11,0,0,1-6.71-1.4l-22.34-13.19a10.84,10.84,0,0,0,6.7,1.4,13.64,13.64,0,0,0,8.59-4.51c4.89-5.42,5.53-13.2,1.12-18.24a8,8,0,0,1-2-6.17c.42-9.77.82-19.53,1-29.27a12.07,12.07,0,0,1,2.79-8c4.68-5.85,4.57-13.16.2-17.73A10,10,0,0,0,134.87,38Z"/></clipPath><clipPath id="clip-path-7"><path class="cls-1" d="M141,135.45l-22.34-13.19a10.38,10.38,0,0,1-1.76-1.3c-4.49-4.16-4.61-12.14.11-18.13a11.35,11.35,0,0,0,2.58-7.17c.34-10.08.79-20.16,1.12-30.24.1-3.2-.67-5.24-2.4-6.26L140.6,72.34c1.74,1,2.51,3.06,2.4,6.27-.33,10.08-.77,20.16-1.11,30.24A11.38,11.38,0,0,1,139.3,116c-4.71,6-4.6,14-.1,18.12A9.86,9.86,0,0,0,141,135.45Z"/></clipPath><clipPath id="clip-path-8"><path class="cls-1" d="M140.6,72.34a8,8,0,0,0-4.76-.74c-.94.08-1.88.14-2.82.23-3,.32-6,1.08-8.28,4.43a3.53,3.53,0,0,1-2,1.3c-6.47,1.2-6.56,5.81-6.67,11.11-.33,15.17-1,30.4-1.6,45.59-.69,16-1.23,32-1.9,48a10.48,10.48,0,0,0,2.2,7.59c4,5,3.7,11.34-.86,17.06A11.09,11.09,0,0,0,111.4,214c-.26,8.48-.55,17-1,25.45-.22,4.23.13,7.82,2.72,11.13,3.71,4.72,2.37,12.26-2.16,17.15a13.63,13.63,0,0,1-8.44,4.39,10.75,10.75,0,0,1-6.62-1.39L73.55,257.58A10.77,10.77,0,0,0,80.17,259a13.55,13.55,0,0,0,8.44-4.39c4.54-4.89,5.87-12.43,2.17-17.15-2.6-3.3-3-6.9-2.73-11.13.45-8.49.74-17,1-25.44a11.06,11.06,0,0,1,2.53-7.13c4.55-5.72,4.85-12.1.86-17.06a10.43,10.43,0,0,1-2.21-7.58c.67-16,1.22-32,1.9-48,.56-15.2,1.27-30.42,1.6-45.6.11-5.3.2-9.91,6.67-11.1a3.55,3.55,0,0,0,2-1.31c2.33-3.35,5.25-4.1,8.29-4.42.93-.1,1.87-.16,2.81-.24a8,8,0,0,1,4.77.75Z"/></clipPath><clipPath id="clip-path-9"><path class="cls-1" d="M95.9,270.77,73.55,257.58a9.63,9.63,0,0,1-.94-.63c-5.16-3.84-5.75-12.46-.87-18.62a11.89,11.89,0,0,0,2.81-7.55c.31-9.59.66-19.19,1.12-28.8a8.25,8.25,0,0,0-2-6.23c-4.3-5-4-11.77.83-17.76a9.43,9.43,0,0,0,2.33-5.79c.5-14.07,1-28.15,1.6-42.24.08-1.74-.26-2.8-1.11-3.3l22.35,13.19c.85.5,1.19,1.56,1.11,3.3-.6,14.08-1.11,28.17-1.61,42.24a9.44,9.44,0,0,1-2.32,5.79c-4.79,6-5.13,12.73-.84,17.76a8.29,8.29,0,0,1,2,6.23c-.46,9.61-.81,19.21-1.12,28.8a11.92,11.92,0,0,1-2.82,7.55c-4.87,6.16-4.28,14.77.87,18.62A9.77,9.77,0,0,0,95.9,270.77Z"/></clipPath><clipPath id="clip-path-10"><path class="cls-1" d="M99.65,139.85a3.66,3.66,0,0,0-2.25-.31L75.05,126.36a3.67,3.67,0,0,1,2.25.3Z"/></clipPath><clipPath id="clip-path-11"><path class="cls-1" d="M97.4,139.54c-2.57.33-4.93.61-7.3.86-1.8.19-3.61.36-5.41.51L62.34,127.72c1.8-.15,3.61-.32,5.42-.51,2.36-.25,4.73-.53,7.29-.85Z"/></clipPath><clipPath id="clip-path-12"><path class="cls-1" d="M62.84,274.21,40.49,261a10.59,10.59,0,0,1-1.92-1.46c-4.56-4.39-4.58-11.69.31-18.08a11.6,11.6,0,0,0,2.52-7.18c.3-9.59.7-19.2,1.12-28.8a8.09,8.09,0,0,0-2-6.19c-4.22-4.89-3.91-12.1.78-17.87a10.39,10.39,0,0,0,2.47-6.67q1.79-49.42,3.73-98.87c.09-2.15-.27-3.49-1.37-4.14L68.44,85c1.1.64,1.45,2,1.37,4.13q-2,49.46-3.74,98.88a10.33,10.33,0,0,1-2.46,6.67c-4.69,5.77-5,13-.78,17.86a8.12,8.12,0,0,1,2,6.19c-.43,9.61-.82,19.21-1.12,28.81a11.6,11.6,0,0,1-2.52,7.18c-4.9,6.39-4.88,13.68-.31,18.07A9.84,9.84,0,0,0,62.84,274.21Z"/></clipPath><clipPath id="clip-path-13"><path class="cls-1" d="M40.49,261A10.6,10.6,0,0,0,47,262.39,13.87,13.87,0,0,0,55.56,258c5.12-5.42,5.69-13,1.15-18.57a8.61,8.61,0,0,1-1.93-6.3q.7-14.9,1.2-29.77A8.65,8.65,0,0,1,58,198c5.19-6.68,5.43-12.71.84-18.6A6.91,6.91,0,0,1,57,174.46q.9-21.14,1.64-42.25c.09-2.71.89-4.2,3.69-4.49l22.35,13.19c-2.8.29-3.6,1.77-3.69,4.49q-.72,21.12-1.65,42.25a7,7,0,0,0,1.84,4.91c4.59,5.89,4.34,11.91-.84,18.59a8.64,8.64,0,0,0-2,5.36q-.51,14.87-1.2,29.76a8.59,8.59,0,0,0,1.93,6.31c4.54,5.56,4,13.15-1.15,18.57a13.9,13.9,0,0,1-8.54,4.43,10.57,10.57,0,0,1-6.53-1.37Z"/></clipPath><clipPath id="clip-path-14"><path class="cls-1" d="M68.44,85a4.33,4.33,0,0,0-2.3-.47,5.84,5.84,0,0,1-3.08-.65L40.71,70.65a6,6,0,0,0,3.08.66,4.32,4.32,0,0,1,2.3.46Z"/></clipPath><clipPath id="clip-path-15"><path class="cls-1" d="M63.06,83.84,40.71,70.65a3,3,0,0,1-.88-.77A7.62,7.62,0,0,0,37.74,68L60.08,81.18a7.2,7.2,0,0,1,2.09,1.89A3.11,3.11,0,0,0,63.06,83.84Z"/></clipPath><clipPath id="clip-path-16"><path class="cls-1" d="M60.08,81.18c-1.93-1.14-4.17-1.13-6.47-.89-1.18.12-2.37.31-3.55.43a7.59,7.59,0,0,0-6.77,7.48c-.5,10.88-.83,21.75-1.31,32.64a6.47,6.47,0,0,0,1.87,4.84c4.56,5.53,4.13,13-.91,18.52a13.79,13.79,0,0,1-8.63,4.59,10.66,10.66,0,0,1-6.58-1.39L5.39,134.21a10.62,10.62,0,0,0,6.57,1.4,13.83,13.83,0,0,0,8.63-4.6c5-5.51,5.47-13,.91-18.52a6.51,6.51,0,0,1-1.87-4.84c.49-10.88.82-21.75,1.31-32.64a7.6,7.6,0,0,1,6.78-7.48c1.17-.12,2.36-.31,3.54-.43,2.3-.24,4.54-.25,6.48.89Z"/></clipPath><clipPath id="clip-path-17"><path class="cls-1" d="M27.73,147.4,5.39,134.21a10.81,10.81,0,0,1-2.12-1.63c-4.48-4.44-4.18-12.16.95-18.56a7.88,7.88,0,0,0,1.94-4.88q.57-16.32,1.2-32.63a6.59,6.59,0,0,0-1.8-4.9c-4.33-5-4.07-12.33.41-17.8a13.55,13.55,0,0,1,9-5.1,11.36,11.36,0,0,1,7,1.55L44.34,63.44a11.43,11.43,0,0,0-7.05-1.55,13.59,13.59,0,0,0-9,5.11c-4.49,5.47-4.75,12.78-.41,17.79a6.6,6.6,0,0,1,1.8,4.9q-.64,16.32-1.2,32.64a7.83,7.83,0,0,1-2,4.87c-5.12,6.4-5.43,14.13-.94,18.56A10.52,10.52,0,0,0,27.73,147.4Z"/></clipPath><clipPath id="clip-path-18"><path class="cls-1" d="M44.34,63.44c.35.21.7.44,1,.69a8.56,8.56,0,0,0,.77.51L23.8,51.45c-.26-.16-.52-.33-.77-.51a10.88,10.88,0,0,0-1-.68Z"/></clipPath><clipPath id="clip-path-19"><path class="cls-1" d="M46.15,64.64,23.8,51.45a12,12,0,0,0,7.35,1.41,15.51,15.51,0,0,0,8.6-3.79,14.46,14.46,0,0,1,7.94-3.9A10.12,10.12,0,0,1,54,46.59L76.31,59.78A10,10,0,0,0,70,58.36a14.39,14.39,0,0,0-7.93,3.9,15.57,15.57,0,0,1-8.6,3.79A12.06,12.06,0,0,1,46.15,64.64Z"/></clipPath><clipPath id="clip-path-20"><path class="cls-1" d="M76.31,59.78a12.47,12.47,0,0,1,2,1.48,7.4,7.4,0,0,0,1.08.79L57.08,48.87a7.78,7.78,0,0,1-1.09-.8,13.52,13.52,0,0,0-2-1.48Z"/></clipPath><clipPath id="clip-path-21"><path class="cls-1" d="M79.42,62.05,57.08,48.87a6.1,6.1,0,0,0,3.93.74c2.87-.34,5.61-.64,8.34-.92l2.74-.29,3.13-.32,1.56-.17,1-.1.64-.06c4-.42,7.71-1,11.35-4.84a9.58,9.58,0,0,1,6-3L118.1,53.12a9.53,9.53,0,0,0-6,3c-3.64,3.86-7.4,4.42-11.36,4.84l-.63.06-1,.09-1.57.17-3.13.33-2.73.28c-2.74.29-5.47.58-8.34.93A6.14,6.14,0,0,1,79.42,62.05Z"/></clipPath><clipPath id="clip-path-22"><path class="cls-1" d="M74,.23l.12,0c10.45-1,18.18,7,17.78,18.35-.4,11.1-9,20.82-19.44,21.91l-.15,0c-10.72,1-18.75-7.17-18.13-18.51C54.78,11,63.61,1.32,74,.23Z"/></clipPath><clipPath id="clip-path-23"><path class="cls-1" d="M96.35,13.41h.12c10.45-1,18.18,7,17.77,18.35-.4,11.1-9,20.81-19.44,21.91h-.15c-10.71,1-18.74-7.16-18.13-18.5C77.13,24.17,86,14.51,96.35,13.41Z"/></clipPath><clipPath id="clip-path-24"><path class="cls-1" d="M106.28,15.44c5.08,3,8.22,8.94,8,16.31-.4,11.1-9,20.81-19.44,21.91h-.15a16.55,16.55,0,0,1-10.13-2.11L62.17,38.37a16.66,16.66,0,0,0,10.14,2.12l.15,0c10.41-1.09,19-10.81,19.44-21.91.26-7.37-2.89-13.31-8-16.31Z"/></clipPath><clipPath id="clip-path-25"><path class="cls-1" d="M83.93,2.25l22.35,13.19a16,16,0,0,0-9.81-2h-.12L74,.23l.12,0A16,16,0,0,1,83.93,2.25Z"/></clipPath><clipPath id="clip-path-26"><path class="cls-1" d="M84.52,51.56,62.17,38.37C57,35.3,53.78,29.3,54.18,22,54.78,11,63.61,1.32,74,.23L96.35,13.41C86,14.51,77.13,24.17,76.52,35.17,76.13,42.48,79.33,48.49,84.52,51.56Z"/></clipPath></defs><title>body2</title><g id="Layer_2" data-name="Layer 2"><g id="Layer_1-2" data-name="Layer 1"><g class="cls-2"><g class="cls-2"><g class="cls-3"><path class="cls-4" d="M95.75,39.93a11.18,11.18,0,0,1,8,2.4,11.51,11.51,0,0,0,8.34,2.05,14.57,14.57,0,0,0,8.35-3.68,14.36,14.36,0,0,1,8.2-4,9.89,9.89,0,0,1,8.38,3c4.37,4.57,4.48,11.88-.2,17.73a12.07,12.07,0,0,0-2.79,8c-.2,9.74-.6,19.5-1,29.27a8,8,0,0,0,2,6.17c4.41,5,3.77,12.82-1.12,18.24a13.64,13.64,0,0,1-8.59,4.51,10.68,10.68,0,0,1-8.46-2.7c-4.49-4.16-4.61-12.14.11-18.13a11.35,11.35,0,0,0,2.58-7.17c.34-10.08.79-20.16,1.12-30.24.17-5.33-2.08-7.43-7.17-7-.94.08-1.88.14-2.81.24-3,.32-6,1.07-8.29,4.42a3.55,3.55,0,0,1-2,1.31c-6.47,1.19-6.56,5.8-6.67,11.1-.33,15.18-1,30.4-1.6,45.6-.68,16-1.23,32-1.9,48a10.43,10.43,0,0,0,2.21,7.58c4,5,3.69,11.34-.86,17.06a11.06,11.06,0,0,0-2.53,7.13c-.26,8.47-.55,16.95-1,25.44-.22,4.23.13,7.83,2.73,11.13,3.7,4.72,2.37,12.26-2.17,17.15A13.55,13.55,0,0,1,80.17,259a10.62,10.62,0,0,1-7.56-2c-5.16-3.84-5.75-12.46-.87-18.62a11.89,11.89,0,0,0,2.81-7.55c.31-9.59.66-19.19,1.12-28.8a8.25,8.25,0,0,0-2-6.23c-4.3-5-4-11.77.83-17.76a9.43,9.43,0,0,0,2.33-5.79c.5-14.07,1-28.15,1.6-42.24.13-2.84-.87-3.87-3.36-3.6s-4.93.6-7.29.85c-1.81.19-3.62.36-5.42.51-2.8.29-3.6,1.78-3.69,4.49q-.72,21.12-1.64,42.25a6.91,6.91,0,0,0,1.83,4.91c4.59,5.89,4.35,11.92-.84,18.6a8.65,8.65,0,0,0-2,5.35q-.49,14.87-1.2,29.77a8.61,8.61,0,0,0,1.93,6.3c4.54,5.56,4,13.15-1.15,18.57A13.87,13.87,0,0,1,47,262.39a10.4,10.4,0,0,1-8.45-2.82c-4.56-4.39-4.58-11.69.31-18.08a11.6,11.6,0,0,0,2.52-7.18c.3-9.59.7-19.2,1.12-28.8a8.09,8.09,0,0,0-2-6.19c-4.22-4.89-3.91-12.1.78-17.87a10.39,10.39,0,0,0,2.47-6.67q1.79-49.42,3.73-98.87c.13-3.25-.75-4.66-3.67-4.6a4.73,4.73,0,0,1-4-1.43c-2.31-3-5.38-3.12-8.57-2.78-1.18.12-2.37.31-3.54.43A7.6,7.6,0,0,0,20.94,75c-.49,10.89-.82,21.76-1.31,32.64a6.51,6.51,0,0,0,1.87,4.84c4.56,5.53,4.13,13-.91,18.52a13.83,13.83,0,0,1-8.63,4.6,10.61,10.61,0,0,1-8.69-3c-4.48-4.44-4.18-12.16.95-18.56a7.88,7.88,0,0,0,1.94-4.88q.57-16.32,1.2-32.63a6.59,6.59,0,0,0-1.8-4.9c-4.33-5-4.07-12.33.41-17.8a13.55,13.55,0,0,1,9-5.1A11.46,11.46,0,0,1,23,50.94a11.62,11.62,0,0,0,8.12,1.92,15.51,15.51,0,0,0,8.6-3.79,14.46,14.46,0,0,1,7.94-3.9,10.64,10.64,0,0,1,8.3,2.9,6,6,0,0,0,5,1.54c2.87-.34,5.61-.64,8.34-.92l2.74-.29,3.13-.32,1.56-.17,1-.1.64-.06c4-.42,7.71-1,11.35-4.84A9.58,9.58,0,0,1,95.75,39.93Z"/></g></g><g class="cls-2"><g class="cls-5"><path class="cls-4" d="M118.1,53.12a11.14,11.14,0,0,1,8,2.39,11.5,11.5,0,0,0,8.35,2.06,14.61,14.61,0,0,0,8.34-3.68,14.39,14.39,0,0,1,8.21-4,9.91,9.91,0,0,1,8.38,3c4.36,4.58,4.48,11.88-.21,17.74a12.1,12.1,0,0,0-2.78,8c-.2,9.74-.6,19.5-1,29.27a8,8,0,0,0,2,6.16c4.4,5,3.77,12.83-1.12,18.25a13.64,13.64,0,0,1-8.59,4.51,10.66,10.66,0,0,1-8.46-2.71c-4.5-4.15-4.61-12.13.1-18.12a11.38,11.38,0,0,0,2.59-7.17c.34-10.08.78-20.16,1.11-30.24.18-5.34-2.07-7.43-7.16-7-.94.08-1.88.14-2.82.23-3,.32-6,1.08-8.28,4.43a3.53,3.53,0,0,1-2,1.3c-6.47,1.2-6.56,5.81-6.67,11.11-.33,15.17-1,30.4-1.6,45.59-.69,16-1.23,32-1.9,48a10.48,10.48,0,0,0,2.2,7.59c4,5,3.7,11.34-.86,17.06A11.09,11.09,0,0,0,111.4,214c-.26,8.48-.55,17-1,25.45-.22,4.23.13,7.82,2.72,11.13,3.71,4.72,2.37,12.26-2.16,17.15a13.63,13.63,0,0,1-8.44,4.39,10.66,10.66,0,0,1-7.57-2c-5.15-3.85-5.74-12.46-.87-18.62A11.92,11.92,0,0,0,96.9,244c.31-9.59.66-19.19,1.12-28.8a8.29,8.29,0,0,0-2-6.23c-4.29-5-3.95-11.77.84-17.76a9.44,9.44,0,0,0,2.32-5.79c.5-14.07,1-28.16,1.61-42.24.13-2.85-.87-3.87-3.36-3.61s-4.93.61-7.3.86c-1.8.19-3.61.36-5.41.51-2.8.29-3.6,1.77-3.69,4.49q-.72,21.12-1.65,42.25a7,7,0,0,0,1.84,4.91c4.59,5.89,4.34,11.91-.84,18.59a8.64,8.64,0,0,0-2,5.36q-.51,14.87-1.2,29.76a8.59,8.59,0,0,0,1.93,6.31c4.54,5.56,4,13.15-1.15,18.57a13.9,13.9,0,0,1-8.54,4.43,10.44,10.44,0,0,1-8.45-2.83c-4.57-4.39-4.59-11.68.31-18.07a11.6,11.6,0,0,0,2.52-7.18c.3-9.6.69-19.2,1.12-28.81a8.12,8.12,0,0,0-2-6.19c-4.23-4.89-3.91-12.09.78-17.86A10.33,10.33,0,0,0,66.07,188q1.8-49.42,3.74-98.88c.13-3.24-.76-4.65-3.67-4.6a4.76,4.76,0,0,1-4-1.42c-2.3-3-5.37-3.12-8.56-2.78-1.18.12-2.37.31-3.55.43a7.59,7.59,0,0,0-6.77,7.48c-.5,10.88-.83,21.75-1.31,32.64a6.47,6.47,0,0,0,1.87,4.84c4.56,5.53,4.13,13-.91,18.52a13.79,13.79,0,0,1-8.63,4.59,10.53,10.53,0,0,1-8.69-3c-4.49-4.43-4.18-12.16.94-18.56a7.83,7.83,0,0,0,2-4.87q.57-16.32,1.2-32.64a6.6,6.6,0,0,0-1.8-4.9c-4.34-5-4.08-12.32.41-17.79a13.59,13.59,0,0,1,9-5.11,11.51,11.51,0,0,1,8.09,2.24,11.62,11.62,0,0,0,8.12,1.92,15.57,15.57,0,0,0,8.6-3.79A14.39,14.39,0,0,1,70,58.36a10.65,10.65,0,0,1,8.31,2.9,6.06,6.06,0,0,0,5,1.54c2.87-.35,5.6-.64,8.34-.93l2.73-.28,3.13-.33,1.57-.17,1-.09.63-.06c4-.42,7.72-1,11.36-4.84A9.53,9.53,0,0,1,118.1,53.12Z"/></g></g><g class="cls-2"><g class="cls-6"><g class="cls-2"><path class="cls-4" d="M118.1,53.12,95.75,39.93a11.18,11.18,0,0,1,8,2.4l22.34,13.18A11.14,11.14,0,0,0,118.1,53.12Z"/><path class="cls-4" d="M126.09,55.51,103.75,42.33a11.51,11.51,0,0,0,8.34,2.05l22.35,13.19A11.5,11.5,0,0,1,126.09,55.51Z"/></g><path class="cls-4" d="M124.81,54.63a11.58,11.58,0,0,1,1.28.88,8.27,8.27,0,0,0,1,.68L104.73,43a9.41,9.41,0,0,1-1-.67,10.13,10.13,0,0,0-1.29-.88Z"/></g></g><g class="cls-2"><g class="cls-7"><g class="cls-2"><path class="cls-4" d="M118.1,53.12,95.75,39.93a11.18,11.18,0,0,1,8,2.4l22.34,13.18A11.14,11.14,0,0,0,118.1,53.12Z"/><line class="cls-4" x1="120.93" y1="53.21" x2="98.58" y2="40.03"/><line class="cls-4" x1="123.65" y1="54.03" x2="101.3" y2="40.85"/></g><path class="cls-4" d="M102.46,41.45l22.35,13.18a11.08,11.08,0,0,0-6.71-1.51L95.75,39.93A11,11,0,0,1,102.46,41.45Z"/></g></g><g class="cls-2"><g class="cls-8"><g class="cls-2"><path class="cls-4" d="M126.09,55.51,103.75,42.33a11.51,11.51,0,0,0,8.34,2.05l22.35,13.19A11.5,11.5,0,0,1,126.09,55.51Z"/><line class="cls-4" x1="128.53" y1="56.89" x2="106.19" y2="43.7"/><line class="cls-4" x1="131.38" y1="57.57" x2="109.03" y2="44.38"/><path class="cls-4" d="M134.44,57.57,112.09,44.38a14.57,14.57,0,0,0,8.35-3.68l22.34,13.19A14.61,14.61,0,0,1,134.44,57.57Z"/><line class="cls-4" x1="137.44" y1="56.94" x2="115.09" y2="43.76"/><line class="cls-4" x1="140.28" y1="55.71" x2="117.94" y2="42.52"/><path class="cls-4" d="M142.78,53.89,120.44,40.7a14.36,14.36,0,0,1,8.2-4L151,49.9A14.39,14.39,0,0,0,142.78,53.89Z"/><line class="cls-4" x1="145.41" y1="51.87" x2="123.07" y2="38.68"/><line class="cls-4" x1="148.18" y1="50.54" x2="125.84" y2="37.35"/><path class="cls-4" d="M151,49.9,128.64,36.71a9.89,9.89,0,0,1,8.38,3L159.37,52.9A9.91,9.91,0,0,0,151,49.9Z"/><line class="cls-4" x1="154.05" y1="50.01" x2="131.71" y2="36.82"/><line class="cls-4" x1="156.9" y1="51.01" x2="134.55" y2="37.82"/></g><path class="cls-4" d="M127.08,56.19,104.73,43a12.09,12.09,0,0,0,7.36,1.38,14.57,14.57,0,0,0,8.35-3.68,14.36,14.36,0,0,1,8.2-4A10.14,10.14,0,0,1,134.87,38l22.35,13.19A10.08,10.08,0,0,0,151,49.9a14.39,14.39,0,0,0-8.21,4,14.61,14.61,0,0,1-8.34,3.68A12.08,12.08,0,0,1,127.08,56.19Z"/></g></g><g class="cls-2"><g class="cls-9"><g class="cls-2"><path class="cls-4" d="M151,49.9,128.64,36.71a9.89,9.89,0,0,1,8.38,3L159.37,52.9A9.91,9.91,0,0,0,151,49.9Z"/><path class="cls-4" d="M159.37,52.9,137,39.72c4.37,4.57,4.48,11.88-.2,17.73l22.34,13.19C163.85,64.78,163.73,57.48,159.37,52.9Z"/><line class="cls-4" x1="162.3" y1="58.23" x2="139.95" y2="45.05"/><line class="cls-4" x1="162.27" y1="64.45" x2="139.92" y2="51.27"/><path class="cls-4" d="M159.16,70.64,136.82,57.45a12.07,12.07,0,0,0-2.79,8l22.35,13.19A12.1,12.1,0,0,1,159.16,70.64Z"/><line class="cls-4" x1="157.53" y1="73.2" x2="135.18" y2="60.02"/><line class="cls-4" x1="156.66" y1="75.81" x2="134.32" y2="62.62"/><path class="cls-4" d="M156.38,78.66,134,65.47c-.2,9.74-.6,19.5-1,29.27l22.35,13.19C155.78,98.16,156.18,88.4,156.38,78.66Z"/><line class="cls-4" x1="156.12" y1="88.4" x2="133.77" y2="75.22"/><line class="cls-4" x1="155.77" y1="98.16" x2="133.42" y2="84.97"/><path class="cls-4" d="M155.36,107.93,133,94.74a8,8,0,0,0,2,6.17l22.35,13.18A8,8,0,0,1,155.36,107.93Z"/><line class="cls-4" x1="155.48" y1="110.25" x2="133.13" y2="97.06"/><line class="cls-4" x1="156.12" y1="112.26" x2="133.78" y2="99.07"/><path class="cls-4" d="M157.37,114.09,135,100.91c4.41,5,3.77,12.82-1.12,18.24l22.35,13.19C161.14,126.92,161.77,119.14,157.37,114.09Z"/><line class="cls-4" x1="160.12" y1="119.86" x2="137.77" y2="106.67"/><line class="cls-4" x1="159.69" y1="126.32" x2="137.34" y2="113.13"/><path class="cls-4" d="M156.25,132.34,133.9,119.15a13.64,13.64,0,0,1-8.59,4.51l22.35,13.19A13.64,13.64,0,0,0,156.25,132.34Z"/><line class="cls-4" x1="153.64" y1="134.61" x2="131.29" y2="121.43"/><line class="cls-4" x1="150.73" y1="136.12" x2="128.38" y2="122.94"/><path class="cls-4" d="M147.66,136.85l-22.35-13.19a10.68,10.68,0,0,1-8.46-2.7l22.35,13.18A10.66,10.66,0,0,0,147.66,136.85Z"/><line class="cls-4" x1="144.62" y1="136.77" x2="122.27" y2="123.58"/><line class="cls-4" x1="141.74" y1="135.87" x2="119.4" y2="122.68"/></g><path class="cls-4" d="M157.22,51.19a10.5,10.5,0,0,1,2.15,1.71c4.36,4.58,4.48,11.88-.21,17.74a12.1,12.1,0,0,0-2.78,8c-.2,9.74-.6,19.5-1,29.27a8,8,0,0,0,2,6.16c4.4,5,3.77,12.83-1.12,18.25a13.64,13.64,0,0,1-8.59,4.51,11,11,0,0,1-6.71-1.4l-22.34-13.19a10.84,10.84,0,0,0,6.7,1.4,13.64,13.64,0,0,0,8.59-4.51c4.89-5.42,5.53-13.2,1.12-18.24a8,8,0,0,1-2-6.17c.42-9.77.82-19.53,1-29.27a12.07,12.07,0,0,1,2.79-8c4.68-5.85,4.57-13.16.2-17.73A10,10,0,0,0,134.87,38Z"/></g></g><g class="cls-2"><g class="cls-10"><g class="cls-2"><path class="cls-4" d="M147.66,136.85l-22.35-13.19a10.68,10.68,0,0,1-8.46-2.7l22.35,13.18A10.66,10.66,0,0,0,147.66,136.85Z"/><path class="cls-4" d="M139.2,134.14,116.85,121c-4.49-4.16-4.61-12.14.11-18.13L139.3,116C134.59,122,134.7,130,139.2,134.14Z"/><line class="cls-4" x1="136.18" y1="128.93" x2="113.83" y2="115.74"/><line class="cls-4" x1="136.18" y1="122.46" x2="113.83" y2="109.27"/><path class="cls-4" d="M139.3,116,117,102.83a11.35,11.35,0,0,0,2.58-7.17l22.35,13.19A11.38,11.38,0,0,1,139.3,116Z"/><line class="cls-4" x1="140.77" y1="113.72" x2="118.42" y2="100.53"/><line class="cls-4" x1="141.59" y1="111.37" x2="119.24" y2="98.19"/><path class="cls-4" d="M141.89,108.85,119.54,95.66c.34-10.08.79-20.16,1.12-30.24L143,78.61C142.67,88.69,142.23,98.77,141.89,108.85Z"/><line class="cls-4" x1="142.26" y1="98.77" x2="119.91" y2="85.58"/><line class="cls-4" x1="142.64" y1="88.69" x2="120.3" y2="75.5"/><path class="cls-4" d="M143,78.61,120.66,65.42c.17-5.33-2.08-7.43-7.17-7L135.84,71.6C140.93,71.18,143.18,73.27,143,78.61Z"/><line class="cls-4" x1="142.35" y1="74.33" x2="120.01" y2="61.14"/></g><path class="cls-4" d="M141,135.45l-22.34-13.19a10.38,10.38,0,0,1-1.76-1.3c-4.49-4.16-4.61-12.14.11-18.13a11.35,11.35,0,0,0,2.58-7.17c.34-10.08.79-20.16,1.12-30.24.1-3.2-.67-5.24-2.4-6.26L140.6,72.34c1.74,1,2.51,3.06,2.4,6.27-.33,10.08-.77,20.16-1.11,30.24A11.38,11.38,0,0,1,139.3,116c-4.71,6-4.6,14-.1,18.12A9.86,9.86,0,0,0,141,135.45Z"/></g></g><g class="cls-2"><g class="cls-11"><g class="cls-2"><path class="cls-4" d="M143,78.61,120.66,65.42c.17-5.33-2.08-7.43-7.17-7L135.84,71.6C140.93,71.18,143.18,73.27,143,78.61Z"/><line class="cls-4" x1="140" y1="72.04" x2="117.65" y2="58.86"/><path class="cls-4" d="M135.84,71.6,113.49,58.41c-.94.08-1.88.14-2.81.24L133,71.83C134,71.74,134.9,71.68,135.84,71.6Z"/><line class="cls-4" x1="134.9" y1="71.67" x2="112.55" y2="58.49"/><line class="cls-4" x1="133.96" y1="71.75" x2="111.61" y2="58.56"/><path class="cls-4" d="M133,71.83,110.68,58.65c-3,.32-6,1.07-8.29,4.42l22.35,13.19C127.06,72.91,130,72.15,133,71.83Z"/><line class="cls-4" x1="130.04" y1="72.38" x2="107.7" y2="59.19"/><line class="cls-4" x1="127.24" y1="73.69" x2="104.9" y2="60.51"/><path class="cls-4" d="M124.74,76.26,102.39,63.07a3.55,3.55,0,0,1-2,1.31l22.35,13.18A3.53,3.53,0,0,0,124.74,76.26Z"/><line class="cls-4" x1="124.19" y1="76.84" x2="101.84" y2="63.65"/><line class="cls-4" x1="123.48" y1="77.3" x2="101.13" y2="64.12"/><path class="cls-4" d="M122.75,77.56,100.4,64.38c-6.47,1.19-6.56,5.8-6.67,11.1l22.35,13.19C116.19,83.37,116.28,78.76,122.75,77.56Z"/><line class="cls-4" x1="118.17" y1="79.8" x2="95.82" y2="66.61"/><line class="cls-4" x1="116.42" y1="83.7" x2="94.07" y2="70.51"/><path class="cls-4" d="M116.08,88.67,93.73,75.48c-.33,15.18-1,30.4-1.6,45.6l22.35,13.18C115,119.07,115.75,103.84,116.08,88.67Z"/><line class="cls-4" x1="115.64" y1="103.86" x2="93.29" y2="90.67"/><line class="cls-4" x1="115.07" y1="119.06" x2="92.72" y2="105.87"/><path class="cls-4" d="M114.48,134.26,92.13,121.08c-.68,16-1.23,32-1.9,48l22.35,13.18C113.25,166.26,113.79,150.27,114.48,134.26Z"/><line class="cls-4" x1="113.83" y1="150.27" x2="91.48" y2="137.08"/><line class="cls-4" x1="113.22" y1="166.27" x2="90.87" y2="153.08"/><path class="cls-4" d="M112.58,182.27,90.23,169.09a10.43,10.43,0,0,0,2.21,7.58l22.34,13.19A10.48,10.48,0,0,1,112.58,182.27Z"/><line class="cls-4" x1="112.7" y1="185.08" x2="90.35" y2="171.89"/><line class="cls-4" x1="113.38" y1="187.57" x2="91.04" y2="174.38"/><path class="cls-4" d="M114.78,189.86,92.44,176.67c4,5,3.69,11.34-.86,17.06l22.34,13.19C118.48,201.2,118.78,194.82,114.78,189.86Z"/><line class="cls-4" x1="117.35" y1="195.21" x2="95" y2="182.03"/><line class="cls-4" x1="117.06" y1="201.06" x2="94.71" y2="187.87"/><path class="cls-4" d="M113.92,206.92,91.58,193.73a11.06,11.06,0,0,0-2.53,7.13L111.4,214A11.09,11.09,0,0,1,113.92,206.92Z"/><line class="cls-4" x1="112.46" y1="209.22" x2="90.11" y2="196.04"/><line class="cls-4" x1="111.68" y1="211.54" x2="89.33" y2="198.36"/><path class="cls-4" d="M111.4,214,89.05,200.86c-.26,8.47-.55,16.95-1,25.44l22.35,13.19C110.85,231,111.14,222.52,111.4,214Z"/><line class="cls-4" x1="111.12" y1="222.52" x2="88.78" y2="209.33"/><line class="cls-4" x1="110.8" y1="231" x2="88.45" y2="217.81"/><path class="cls-4" d="M110.4,239.49,88.05,226.3c-.22,4.23.13,7.83,2.73,11.13l22.34,13.19C110.53,247.31,110.18,243.72,110.4,239.49Z"/><line class="cls-4" x1="110.43" y1="243.52" x2="88.09" y2="230.33"/><line class="cls-4" x1="111.22" y1="247.21" x2="88.87" y2="234.02"/><path class="cls-4" d="M113.12,250.62,90.78,237.43c3.7,4.72,2.37,12.26-2.17,17.15L111,267.77C115.49,262.88,116.83,255.34,113.12,250.62Z"/><line class="cls-4" x1="115.22" y1="256.08" x2="92.87" y2="242.89"/><line class="cls-4" x1="114.36" y1="262.2" x2="92.01" y2="249.01"/><path class="cls-4" d="M111,267.77,88.61,254.58A13.55,13.55,0,0,1,80.17,259l22.35,13.19A13.63,13.63,0,0,0,111,267.77Z"/><line class="cls-4" x1="108.38" y1="269.98" x2="86.03" y2="256.79"/><line class="cls-4" x1="105.51" y1="271.45" x2="83.17" y2="258.26"/><path class="cls-4" d="M102.52,272.16,80.17,259a10.62,10.62,0,0,1-7.56-2L95,270.14A10.66,10.66,0,0,0,102.52,272.16Z"/><line class="cls-4" x1="99.85" y1="272.13" x2="77.5" y2="258.94"/><line class="cls-4" x1="97.3" y1="271.46" x2="74.95" y2="258.27"/></g><path class="cls-4" d="M140.6,72.34a8,8,0,0,0-4.76-.74c-.94.08-1.88.14-2.82.23-3,.32-6,1.08-8.28,4.43a3.53,3.53,0,0,1-2,1.3c-6.47,1.2-6.56,5.81-6.67,11.11-.33,15.17-1,30.4-1.6,45.59-.69,16-1.23,32-1.9,48a10.48,10.48,0,0,0,2.2,7.59c4,5,3.7,11.34-.86,17.06A11.09,11.09,0,0,0,111.4,214c-.26,8.48-.55,17-1,25.45-.22,4.23.13,7.82,2.72,11.13,3.71,4.72,2.37,12.26-2.16,17.15a13.63,13.63,0,0,1-8.44,4.39,10.75,10.75,0,0,1-6.62-1.39L73.55,257.58A10.77,10.77,0,0,0,80.17,259a13.55,13.55,0,0,0,8.44-4.39c4.54-4.89,5.87-12.43,2.17-17.15-2.6-3.3-3-6.9-2.73-11.13.45-8.49.74-17,1-25.44a11.06,11.06,0,0,1,2.53-7.13c4.55-5.72,4.85-12.1.86-17.06a10.43,10.43,0,0,1-2.21-7.58c.67-16,1.22-32,1.9-48,.56-15.2,1.27-30.42,1.6-45.6.11-5.3.2-9.91,6.67-11.1a3.55,3.55,0,0,0,2-1.31c2.33-3.35,5.25-4.1,8.29-4.42.93-.1,1.87-.16,2.81-.24a8,8,0,0,1,4.77.75Z"/></g></g><g class="cls-2"><g class="cls-12"><g class="cls-2"><path class="cls-4" d="M102.52,272.16,80.17,259a10.62,10.62,0,0,1-7.56-2L95,270.14A10.66,10.66,0,0,0,102.52,272.16Z"/><path class="cls-4" d="M95,270.14,72.61,257c-5.16-3.84-5.75-12.46-.87-18.62l22.34,13.19C89.21,257.68,89.8,266.29,95,270.14Z"/><line class="cls-4" x1="91.35" y1="264.97" x2="69.01" y2="251.79"/><line class="cls-4" x1="91" y1="258.23" x2="68.65" y2="245.04"/><path class="cls-4" d="M94.08,251.52,71.74,238.33a11.89,11.89,0,0,0,2.81-7.55L96.9,244A11.92,11.92,0,0,1,94.08,251.52Z"/><line class="cls-4" x1="95.65" y1="249.11" x2="73.31" y2="235.92"/><line class="cls-4" x1="96.56" y1="246.65" x2="74.21" y2="233.46"/><path class="cls-4" d="M96.9,244,74.55,230.78c.31-9.59.66-19.19,1.12-28.8L98,215.17C97.56,224.78,97.21,234.38,96.9,244Z"/><line class="cls-4" x1="97.22" y1="234.37" x2="74.88" y2="221.19"/><line class="cls-4" x1="97.59" y1="224.77" x2="75.24" y2="211.59"/><path class="cls-4" d="M98,215.17,75.67,202a8.25,8.25,0,0,0-2-6.23L96,208.94A8.29,8.29,0,0,1,98,215.17Z"/><line class="cls-4" x1="97.88" y1="212.81" x2="75.54" y2="199.62"/><line class="cls-4" x1="97.22" y1="210.78" x2="74.88" y2="197.59"/><path class="cls-4" d="M96,208.94,73.65,195.75c-4.3-5-4-11.77.83-17.76l22.35,13.19C92,197.17,91.7,203.91,96,208.94Z"/><line class="cls-4" x1="93.24" y1="203.43" x2="70.89" y2="190.24"/><line class="cls-4" x1="93.53" y1="197.33" x2="71.18" y2="184.14"/><path class="cls-4" d="M96.83,191.18,74.48,178a9.43,9.43,0,0,0,2.33-5.79l22.34,13.19A9.44,9.44,0,0,1,96.83,191.18Z"/><line class="cls-4" x1="98.06" y1="189.36" x2="75.71" y2="176.17"/><line class="cls-4" x1="98.84" y1="187.47" x2="76.49" y2="174.28"/><path class="cls-4" d="M99.15,185.39,76.81,172.2c.5-14.07,1-28.15,1.6-42.24l22.35,13.19C100.16,157.23,99.65,171.32,99.15,185.39Z"/><line class="cls-4" x1="99.66" y1="171.31" x2="77.31" y2="158.13"/><line class="cls-4" x1="100.19" y1="157.23" x2="77.84" y2="144.05"/><path class="cls-4" d="M100.76,143.15,78.41,130c.13-2.84-.87-3.87-3.36-3.6L97.4,139.54C99.89,139.28,100.89,140.3,100.76,143.15Z"/><line class="cls-4" x1="100.5" y1="140.89" x2="78.15" y2="127.7"/></g><path class="cls-4" d="M95.9,270.77,73.55,257.58a9.63,9.63,0,0,1-.94-.63c-5.16-3.84-5.75-12.46-.87-18.62a11.89,11.89,0,0,0,2.81-7.55c.31-9.59.66-19.19,1.12-28.8a8.25,8.25,0,0,0-2-6.23c-4.3-5-4-11.77.83-17.76a9.43,9.43,0,0,0,2.33-5.79c.5-14.07,1-28.15,1.6-42.24.08-1.74-.26-2.8-1.11-3.3l22.35,13.19c.85.5,1.19,1.56,1.11,3.3-.6,14.08-1.11,28.17-1.61,42.24a9.44,9.44,0,0,1-2.32,5.79c-4.79,6-5.13,12.73-.84,17.76a8.29,8.29,0,0,1,2,6.23c-.46,9.61-.81,19.21-1.12,28.8a11.92,11.92,0,0,1-2.82,7.55c-4.87,6.16-4.28,14.77.87,18.62A9.77,9.77,0,0,0,95.9,270.77Z"/></g></g><g class="cls-2"><g class="cls-13"><g class="cls-2"><path class="cls-4" d="M100.76,143.15,78.41,130c.13-2.84-.87-3.87-3.36-3.6L97.4,139.54C99.89,139.28,100.89,140.3,100.76,143.15Z"/><line class="cls-4" x1="99.4" y1="139.73" x2="77.06" y2="126.54"/></g><path class="cls-4" d="M99.65,139.85a3.66,3.66,0,0,0-2.25-.31L75.05,126.36a3.67,3.67,0,0,1,2.25.3Z"/></g></g><g class="cls-2"><g class="cls-14"><g class="cls-2"><path class="cls-4" d="M97.4,139.54,75.05,126.36c-2.56.32-4.93.6-7.29.85L90.1,140.4C92.47,140.15,94.83,139.87,97.4,139.54Z"/><line class="cls-4" x1="94.89" y1="139.85" x2="72.55" y2="126.67"/><line class="cls-4" x1="92.48" y1="140.14" x2="70.13" y2="126.95"/><path class="cls-4" d="M90.1,140.4,67.76,127.21c-1.81.19-3.62.36-5.42.51l22.35,13.19C86.49,140.76,88.3,140.59,90.1,140.4Z"/><line class="cls-4" x1="88.3" y1="140.58" x2="65.95" y2="127.39"/><line class="cls-4" x1="86.49" y1="140.75" x2="64.15" y2="127.56"/></g><path class="cls-4" d="M97.4,139.54c-2.57.33-4.93.61-7.3.86-1.8.19-3.61.36-5.41.51L62.34,127.72c1.8-.15,3.61-.32,5.42-.51,2.36-.25,4.73-.53,7.29-.85Z"/></g></g><g class="cls-2"><g class="cls-15"><g class="cls-2"><path class="cls-4" d="M69.37,275.58,47,262.39a10.4,10.4,0,0,1-8.45-2.82l22.35,13.18A10.44,10.44,0,0,0,69.37,275.58Z"/><path class="cls-4" d="M60.92,272.75,38.57,259.57c-4.56-4.39-4.58-11.69.31-18.08l22.35,13.19C56.33,261.07,56.35,268.36,60.92,272.75Z"/><line class="cls-4" x1="57.88" y1="267.54" x2="35.53" y2="254.35"/><line class="cls-4" x1="57.96" y1="261.23" x2="35.61" y2="248.04"/><path class="cls-4" d="M61.23,254.68,38.88,241.49a11.6,11.6,0,0,0,2.52-7.18L63.75,247.5A11.6,11.6,0,0,1,61.23,254.68Z"/><line class="cls-4" x1="62.65" y1="252.38" x2="40.31" y2="239.19"/><line class="cls-4" x1="63.45" y1="250.03" x2="41.1" y2="236.84"/><path class="cls-4" d="M63.75,247.5,41.4,234.31c.3-9.59.7-19.2,1.12-28.8l22.35,13.18C64.44,228.3,64.05,237.9,63.75,247.5Z"/><line class="cls-4" x1="64.08" y1="237.9" x2="41.73" y2="224.71"/><line class="cls-4" x1="64.46" y1="228.3" x2="42.11" y2="215.11"/><path class="cls-4" d="M64.87,218.69,42.52,205.51a8.09,8.09,0,0,0-2-6.19L62.83,212.5A8.12,8.12,0,0,1,64.87,218.69Z"/><line class="cls-4" x1="64.74" y1="216.37" x2="42.39" y2="203.19"/><line class="cls-4" x1="64.08" y1="214.36" x2="41.74" y2="201.17"/><path class="cls-4" d="M62.83,212.5,40.48,199.32c-4.22-4.89-3.91-12.1.78-17.87l22.35,13.19C58.92,200.41,58.6,207.61,62.83,212.5Z"/><line class="cls-4" x1="60.11" y1="206.98" x2="37.76" y2="193.79"/><line class="cls-4" x1="60.38" y1="200.75" x2="38.03" y2="187.56"/><path class="cls-4" d="M63.61,194.64,41.26,181.45a10.39,10.39,0,0,0,2.47-6.67L66.07,188A10.33,10.33,0,0,1,63.61,194.64Z"/><line class="cls-4" x1="65.01" y1="192.51" x2="42.66" y2="179.32"/><line class="cls-4" x1="65.78" y1="190.33" x2="43.44" y2="177.15"/><path class="cls-4" d="M66.07,188,43.73,174.78q1.79-49.42,3.73-98.87L69.81,89.09Q67.79,138.55,66.07,188Z"/><line class="cls-4" x1="67.27" y1="155.02" x2="44.93" y2="141.83"/><line class="cls-4" x1="68.51" y1="122.06" x2="46.16" y2="108.87"/><path class="cls-4" d="M69.81,89.09,47.46,75.91c.13-3.25-.75-4.66-3.67-4.6L66.14,84.49C69.05,84.44,69.94,85.85,69.81,89.09Z"/><line class="cls-4" x1="69.56" y1="86.45" x2="47.22" y2="73.26"/></g><path class="cls-4" d="M62.84,274.21,40.49,261a10.59,10.59,0,0,1-1.92-1.46c-4.56-4.39-4.58-11.69.31-18.08a11.6,11.6,0,0,0,2.52-7.18c.3-9.59.7-19.2,1.12-28.8a8.09,8.09,0,0,0-2-6.19c-4.22-4.89-3.91-12.1.78-17.87a10.39,10.39,0,0,0,2.47-6.67q1.79-49.42,3.73-98.87c.09-2.15-.27-3.49-1.37-4.14L68.44,85c1.1.64,1.45,2,1.37,4.13q-2,49.46-3.74,98.88a10.33,10.33,0,0,1-2.46,6.67c-4.69,5.77-5,13-.78,17.86a8.12,8.12,0,0,1,2,6.19c-.43,9.61-.82,19.21-1.12,28.81a11.6,11.6,0,0,1-2.52,7.18c-4.9,6.39-4.88,13.68-.31,18.07A9.84,9.84,0,0,0,62.84,274.21Z"/></g></g><g class="cls-2"><g class="cls-16"><g class="cls-2"><path class="cls-4" d="M84.69,140.91,62.34,127.72c-2.8.29-3.6,1.78-3.69,4.49L81,145.4C81.09,142.68,81.89,141.2,84.69,140.91Z"/><line class="cls-4" x1="82.51" y1="141.6" x2="60.16" y2="128.41"/><line class="cls-4" x1="81.37" y1="143.09" x2="59.03" y2="129.91"/><path class="cls-4" d="M81,145.4,58.65,132.21q-.72,21.12-1.64,42.25l22.34,13.19Q80.25,166.52,81,145.4Z"/><line class="cls-4" x1="80.49" y1="159.48" x2="58.15" y2="146.29"/><line class="cls-4" x1="79.94" y1="173.56" x2="57.59" y2="160.38"/><path class="cls-4" d="M79.35,187.65,57,174.46a6.91,6.91,0,0,0,1.83,4.91l22.35,13.19A7,7,0,0,1,79.35,187.65Z"/><line class="cls-4" x1="79.54" y1="189.54" x2="57.19" y2="176.36"/><line class="cls-4" x1="80.2" y1="191.13" x2="57.85" y2="177.94"/><path class="cls-4" d="M81.19,192.56,58.84,179.37c4.59,5.89,4.35,11.92-.84,18.6l22.35,13.18C85.53,204.47,85.78,198.45,81.19,192.56Z"/><line class="cls-4" x1="84.16" y1="198.51" x2="61.81" y2="185.33"/><line class="cls-4" x1="83.89" y1="204.67" x2="61.54" y2="191.49"/><path class="cls-4" d="M80.35,211.15,58,198a8.65,8.65,0,0,0-2,5.35l22.35,13.19A8.64,8.64,0,0,1,80.35,211.15Z"/><line class="cls-4" x1="79.25" y1="212.84" x2="56.91" y2="199.66"/><line class="cls-4" x1="78.59" y1="214.58" x2="56.24" y2="201.4"/><path class="cls-4" d="M78.33,216.51,56,203.32q-.49,14.87-1.2,29.77l22.35,13.18Q77.83,231.38,78.33,216.51Z"/><line class="cls-4" x1="77.97" y1="226.42" x2="55.62" y2="213.24"/><line class="cls-4" x1="77.57" y1="236.35" x2="55.23" y2="223.16"/><path class="cls-4" d="M77.13,246.27,54.78,233.09a8.61,8.61,0,0,0,1.93,6.3l22.35,13.19A8.59,8.59,0,0,1,77.13,246.27Z"/><line class="cls-4" x1="77.24" y1="248.63" x2="54.9" y2="235.44"/><line class="cls-4" x1="77.87" y1="250.69" x2="55.52" y2="237.51"/><path class="cls-4" d="M79.06,252.58,56.71,239.39c4.54,5.56,4,13.15-1.15,18.57l22.35,13.19C83,265.73,83.6,258.14,79.06,252.58Z"/><line class="cls-4" x1="81.92" y1="258.66" x2="59.57" y2="245.47"/><line class="cls-4" x1="81.49" y1="265.16" x2="59.15" y2="251.98"/><path class="cls-4" d="M77.91,271.15,55.56,258A13.87,13.87,0,0,1,47,262.39l22.35,13.19A13.9,13.9,0,0,0,77.91,271.15Z"/><line class="cls-4" x1="75.26" y1="273.39" x2="52.92" y2="260.2"/><line class="cls-4" x1="72.37" y1="274.87" x2="50.02" y2="261.68"/><path class="cls-4" d="M69.37,275.58,47,262.39a10.4,10.4,0,0,1-8.45-2.82l22.35,13.18A10.44,10.44,0,0,0,69.37,275.58Z"/><line class="cls-4" x1="66.32" y1="275.49" x2="43.97" y2="262.3"/><line class="cls-4" x1="63.45" y1="274.55" x2="41.11" y2="261.36"/></g><path class="cls-4" d="M40.49,261A10.6,10.6,0,0,0,47,262.39,13.87,13.87,0,0,0,55.56,258c5.12-5.42,5.69-13,1.15-18.57a8.61,8.61,0,0,1-1.93-6.3q.7-14.9,1.2-29.77A8.65,8.65,0,0,1,58,198c5.19-6.68,5.43-12.71.84-18.6A6.91,6.91,0,0,1,57,174.46q.9-21.14,1.64-42.25c.09-2.71.89-4.2,3.69-4.49l22.35,13.19c-2.8.29-3.6,1.77-3.69,4.49q-.72,21.12-1.65,42.25a7,7,0,0,0,1.84,4.91c4.59,5.89,4.34,11.91-.84,18.59a8.64,8.64,0,0,0-2,5.36q-.51,14.87-1.2,29.76a8.59,8.59,0,0,0,1.93,6.31c4.54,5.56,4,13.15-1.15,18.57a13.9,13.9,0,0,1-8.54,4.43,10.57,10.57,0,0,1-6.53-1.37Z"/></g></g><g class="cls-2"><g class="cls-17"><g class="cls-2"><path class="cls-4" d="M69.81,89.09,47.46,75.91c.13-3.25-.75-4.66-3.67-4.6L66.14,84.49C69.05,84.44,69.94,85.85,69.81,89.09Z"/><line class="cls-4" x1="68.41" y1="84.94" x2="46.07" y2="71.75"/><path class="cls-4" d="M66.14,84.49,43.79,71.31a4.73,4.73,0,0,1-4-1.43L62.17,83.07A4.76,4.76,0,0,0,66.14,84.49Z"/><line class="cls-4" x1="64.63" y1="84.39" x2="42.28" y2="71.2"/><line class="cls-4" x1="63.25" y1="83.94" x2="40.9" y2="70.76"/></g><path class="cls-4" d="M68.44,85a4.33,4.33,0,0,0-2.3-.47,5.84,5.84,0,0,1-3.08-.65L40.71,70.65a6,6,0,0,0,3.08.66,4.32,4.32,0,0,1,2.3.46Z"/></g></g><g class="cls-2"><g class="cls-18"><g class="cls-2"><path class="cls-4" d="M66.14,84.49,43.79,71.31a4.73,4.73,0,0,1-4-1.43L62.17,83.07A4.76,4.76,0,0,0,66.14,84.49Z"/><path class="cls-4" d="M62.17,83.07,39.83,69.88c-2.31-3-5.38-3.12-8.57-2.78L53.61,80.29C56.8,80,59.87,80.07,62.17,83.07Z"/></g><path class="cls-4" d="M63.06,83.84,40.71,70.65a3,3,0,0,1-.88-.77A7.62,7.62,0,0,0,37.74,68L60.08,81.18a7.2,7.2,0,0,1,2.09,1.89A3.11,3.11,0,0,0,63.06,83.84Z"/></g></g><g class="cls-2"><g class="cls-19"><g class="cls-2"><path class="cls-4" d="M62.17,83.07,39.83,69.88c-2.31-3-5.38-3.12-8.57-2.78L53.61,80.29C56.8,80,59.87,80.07,62.17,83.07Z"/><line class="cls-4" x1="59.64" y1="80.94" x2="37.29" y2="67.75"/><line class="cls-4" x1="56.73" y1="80.19" x2="34.39" y2="67"/><path class="cls-4" d="M53.61,80.29,31.26,67.1c-1.18.12-2.37.31-3.54.43L50.06,80.72C51.24,80.6,52.43,80.41,53.61,80.29Z"/><line class="cls-4" x1="52.43" y1="80.43" x2="30.08" y2="67.24"/><line class="cls-4" x1="51.24" y1="80.58" x2="28.9" y2="67.39"/><path class="cls-4" d="M50.06,80.72,27.72,67.53A7.6,7.6,0,0,0,20.94,75L43.29,88.2A7.59,7.59,0,0,1,50.06,80.72Z"/><line class="cls-4" x1="46.67" y1="81.93" x2="24.33" y2="68.75"/><line class="cls-4" x1="44.29" y1="84.55" x2="21.94" y2="71.36"/><path class="cls-4" d="M43.29,88.2,20.94,75c-.49,10.89-.82,21.76-1.31,32.64L42,120.84C42.46,110,42.79,99.08,43.29,88.2Z"/><line class="cls-4" x1="42.84" y1="99.08" x2="20.49" y2="85.89"/><line class="cls-4" x1="42.42" y1="109.96" x2="20.08" y2="96.77"/><path class="cls-4" d="M42,120.84,19.63,107.65a6.51,6.51,0,0,0,1.87,4.84l22.35,13.19A6.47,6.47,0,0,1,42,120.84Z"/><line class="cls-4" x1="42.16" y1="122.74" x2="19.81" y2="109.55"/><line class="cls-4" x1="42.83" y1="124.28" x2="20.48" y2="111.09"/><path class="cls-4" d="M43.85,125.68,21.5,112.49c4.56,5.53,4.13,13-.91,18.52L42.94,144.2C48,138.69,48.41,131.21,43.85,125.68Z"/><line class="cls-4" x1="46.76" y1="131.71" x2="24.41" y2="118.53"/><line class="cls-4" x1="46.43" y1="138.18" x2="24.08" y2="124.99"/><path class="cls-4" d="M42.94,144.2,20.59,131a13.83,13.83,0,0,1-8.63,4.6l22.35,13.18A13.79,13.79,0,0,0,42.94,144.2Z"/><line class="cls-4" x1="40.27" y1="146.53" x2="17.93" y2="133.34"/><line class="cls-4" x1="37.35" y1="148.06" x2="15" y2="134.88"/><path class="cls-4" d="M34.31,148.79,12,135.61a10.61,10.61,0,0,1-8.69-3l22.35,13.18A10.53,10.53,0,0,0,34.31,148.79Z"/><line class="cls-4" x1="31.18" y1="148.68" x2="8.84" y2="135.5"/><line class="cls-4" x1="28.23" y1="147.68" x2="5.89" y2="134.49"/></g><path class="cls-4" d="M60.08,81.18c-1.93-1.14-4.17-1.13-6.47-.89-1.18.12-2.37.31-3.55.43a7.59,7.59,0,0,0-6.77,7.48c-.5,10.88-.83,21.75-1.31,32.64a6.47,6.47,0,0,0,1.87,4.84c4.56,5.53,4.13,13-.91,18.52a13.79,13.79,0,0,1-8.63,4.59,10.66,10.66,0,0,1-6.58-1.39L5.39,134.21a10.62,10.62,0,0,0,6.57,1.4,13.83,13.83,0,0,0,8.63-4.6c5-5.51,5.47-13,.91-18.52a6.51,6.51,0,0,1-1.87-4.84c.49-10.88.82-21.75,1.31-32.64a7.6,7.6,0,0,1,6.78-7.48c1.17-.12,2.36-.31,3.54-.43,2.3-.24,4.54-.25,6.48.89Z"/></g></g><g class="cls-2"><g class="cls-20"><g class="cls-2"><path class="cls-4" d="M34.31,148.79,12,135.61a10.61,10.61,0,0,1-8.69-3l22.35,13.18A10.53,10.53,0,0,0,34.31,148.79Z"/><path class="cls-4" d="M25.62,145.76,3.27,132.58c-4.48-4.44-4.18-12.16.95-18.56L26.56,127.2C21.44,133.6,21.13,141.33,25.62,145.76Z"/><line class="cls-4" x1="22.73" y1="140.4" x2="0.38" y2="127.22"/><line class="cls-4" x1="23.04" y1="133.87" x2="0.7" y2="120.69"/><path class="cls-4" d="M26.56,127.2,4.22,114a7.88,7.88,0,0,0,1.94-4.88l22.35,13.19A7.83,7.83,0,0,1,26.56,127.2Z"/><line class="cls-4" x1="27.61" y1="125.65" x2="5.26" y2="112.47"/><line class="cls-4" x1="28.25" y1="124.06" x2="5.9" y2="110.88"/><path class="cls-4" d="M28.51,122.33,6.16,109.14q.57-16.32,1.2-32.63L29.71,89.69Q29.07,106,28.51,122.33Z"/><line class="cls-4" x1="28.89" y1="111.45" x2="6.55" y2="98.26"/><line class="cls-4" x1="29.29" y1="100.57" x2="6.95" y2="87.38"/><path class="cls-4" d="M29.71,89.69,7.36,76.51a6.59,6.59,0,0,0-1.8-4.9L27.91,84.79A6.6,6.6,0,0,1,29.71,89.69Z"/><line class="cls-4" x1="29.55" y1="87.83" x2="7.2" y2="74.64"/><line class="cls-4" x1="28.94" y1="86.24" x2="6.59" y2="73.05"/><path class="cls-4" d="M27.91,84.79,5.56,71.61c-4.33-5-4.07-12.33.41-17.8L28.32,67C23.83,72.47,23.57,79.78,27.91,84.79Z"/><line class="cls-4" x1="25.09" y1="79.17" x2="2.74" y2="65.98"/><line class="cls-4" x1="25.26" y1="72.93" x2="2.91" y2="59.74"/><path class="cls-4" d="M28.32,67,6,53.81a13.55,13.55,0,0,1,9-5.1L37.29,61.89A13.59,13.59,0,0,0,28.32,67Z"/><line class="cls-4" x1="31.02" y1="64.41" x2="8.67" y2="51.22"/><line class="cls-4" x1="34.06" y1="62.7" x2="11.71" y2="49.51"/><path class="cls-4" d="M37.29,61.89,14.94,48.71A11.46,11.46,0,0,1,23,50.94L45.38,64.13A11.51,11.51,0,0,0,37.29,61.89Z"/><line class="cls-4" x1="40.08" y1="61.94" x2="17.73" y2="48.75"/><line class="cls-4" x1="42.81" y1="62.68" x2="20.46" y2="49.49"/></g><path class="cls-4" d="M27.73,147.4,5.39,134.21a10.81,10.81,0,0,1-2.12-1.63c-4.48-4.44-4.18-12.16.95-18.56a7.88,7.88,0,0,0,1.94-4.88q.57-16.32,1.2-32.63a6.59,6.59,0,0,0-1.8-4.9c-4.33-5-4.07-12.33.41-17.8a13.55,13.55,0,0,1,9-5.1,11.36,11.36,0,0,1,7,1.55L44.34,63.44a11.43,11.43,0,0,0-7.05-1.55,13.59,13.59,0,0,0-9,5.11c-4.49,5.47-4.75,12.78-.41,17.79a6.6,6.6,0,0,1,1.8,4.9q-.64,16.32-1.2,32.64a7.83,7.83,0,0,1-2,4.87c-5.12,6.4-5.43,14.13-.94,18.56A10.52,10.52,0,0,0,27.73,147.4Z"/></g></g><g class="cls-2"><g class="cls-21"><g class="cls-2"><path class="cls-4" d="M37.29,61.89,14.94,48.71A11.46,11.46,0,0,1,23,50.94L45.38,64.13A11.51,11.51,0,0,0,37.29,61.89Z"/><path class="cls-4" d="M45.38,64.13,23,50.94a11.62,11.62,0,0,0,8.12,1.92L53.5,66.05A11.62,11.62,0,0,1,45.38,64.13Z"/></g><path class="cls-4" d="M44.34,63.44c.35.21.7.44,1,.69a8.56,8.56,0,0,0,.77.51L23.8,51.45c-.26-.16-.52-.33-.77-.51a10.88,10.88,0,0,0-1-.68Z"/></g></g><g class="cls-2"><g class="cls-22"><g class="cls-2"><path class="cls-4" d="M45.38,64.13,23,50.94a11.62,11.62,0,0,0,8.12,1.92L53.5,66.05A11.62,11.62,0,0,1,45.38,64.13Z"/><line class="cls-4" x1="47.8" y1="65.42" x2="25.46" y2="52.23"/><line class="cls-4" x1="50.56" y1="66.05" x2="28.21" y2="52.86"/><path class="cls-4" d="M53.5,66.05,31.15,52.86a15.51,15.51,0,0,0,8.6-3.79L62.1,62.26A15.57,15.57,0,0,1,53.5,66.05Z"/><line class="cls-4" x1="56.54" y1="65.41" x2="34.19" y2="52.22"/><line class="cls-4" x1="59.46" y1="64.14" x2="37.11" y2="50.95"/><path class="cls-4" d="M62.1,62.26,39.75,49.07a14.46,14.46,0,0,1,7.94-3.9L70,58.36A14.39,14.39,0,0,0,62.1,62.26Z"/><line class="cls-4" x1="64.72" y1="60.28" x2="42.37" y2="47.1"/><line class="cls-4" x1="67.38" y1="58.98" x2="45.03" y2="45.8"/><path class="cls-4" d="M70,58.36,47.69,45.17a10.64,10.64,0,0,1,8.3,2.9L78.34,61.26A10.65,10.65,0,0,0,70,58.36Z"/><line class="cls-4" x1="72.91" y1="58.47" x2="50.56" y2="45.29"/><line class="cls-4" x1="75.69" y1="59.44" x2="53.35" y2="46.25"/></g><path class="cls-4" d="M46.15,64.64,23.8,51.45a12,12,0,0,0,7.35,1.41,15.51,15.51,0,0,0,8.6-3.79,14.46,14.46,0,0,1,7.94-3.9A10.12,10.12,0,0,1,54,46.59L76.31,59.78A10,10,0,0,0,70,58.36a14.39,14.39,0,0,0-7.93,3.9,15.57,15.57,0,0,1-8.6,3.79A12.06,12.06,0,0,1,46.15,64.64Z"/></g></g><g class="cls-2"><g class="cls-23"><g class="cls-2"><path class="cls-4" d="M70,58.36,47.69,45.17a10.64,10.64,0,0,1,8.3,2.9L78.34,61.26A10.65,10.65,0,0,0,70,58.36Z"/><path class="cls-4" d="M78.34,61.26,56,48.07a6,6,0,0,0,5,1.54L83.36,62.8A6.06,6.06,0,0,1,78.34,61.26Z"/></g><path class="cls-4" d="M76.31,59.78a12.47,12.47,0,0,1,2,1.48,7.4,7.4,0,0,0,1.08.79L57.08,48.87a7.78,7.78,0,0,1-1.09-.8,13.52,13.52,0,0,0-2-1.48Z"/></g></g><g class="cls-2"><g class="cls-24"><g class="cls-2"><path class="cls-4" d="M78.34,61.26,56,48.07a6,6,0,0,0,5,1.54L83.36,62.8A6.06,6.06,0,0,1,78.34,61.26Z"/><line class="cls-4" x1="79.87" y1="62.29" x2="57.52" y2="49.1"/><line class="cls-4" x1="81.51" y1="62.78" x2="59.17" y2="49.6"/><path class="cls-4" d="M83.36,62.8,61,49.61c2.87-.34,5.61-.64,8.34-.92L91.7,61.87C89,62.16,86.23,62.45,83.36,62.8Z"/><line class="cls-4" x1="86.19" y1="62.47" x2="63.84" y2="49.28"/><line class="cls-4" x1="88.96" y1="62.17" x2="66.61" y2="48.98"/><path class="cls-4" d="M91.7,61.87,69.35,48.69l2.74-.29L94.43,61.59Z"/><line class="cls-4" x1="92.61" y1="61.78" x2="70.26" y2="48.59"/><line class="cls-4" x1="93.52" y1="61.68" x2="71.18" y2="48.5"/><path class="cls-4" d="M94.43,61.59,72.09,48.4l3.13-.32L97.56,61.26Z"/><line class="cls-4" x1="95.48" y1="61.48" x2="73.13" y2="48.29"/><line class="cls-4" x1="96.52" y1="61.37" x2="74.17" y2="48.18"/><path class="cls-4" d="M97.56,61.26,75.22,48.08l1.56-.17L99.13,61.09Z"/><line class="cls-4" x1="98.09" y1="61.21" x2="75.74" y2="48.02"/><line class="cls-4" x1="98.61" y1="61.15" x2="76.26" y2="47.96"/><path class="cls-4" d="M99.13,61.09,76.78,47.91l1-.1L100.1,61Z"/><line class="cls-4" x1="99.45" y1="61.06" x2="77.11" y2="47.88"/><line class="cls-4" x1="99.77" y1="61.03" x2="77.43" y2="47.85"/><path class="cls-4" d="M100.1,61,77.75,47.81l.64-.06,22.34,13.19Z"/><line class="cls-4" x1="100.31" y1="60.98" x2="77.96" y2="47.79"/><line class="cls-4" x1="100.52" y1="60.96" x2="78.17" y2="47.77"/><path class="cls-4" d="M100.73,60.94,78.39,47.75c4-.42,7.71-1,11.35-4.84L112.09,56.1C108.45,60,104.69,60.52,100.73,60.94Z"/><line class="cls-4" x1="104.63" y1="60.36" x2="82.28" y2="47.17"/><line class="cls-4" x1="108.41" y1="58.98" x2="86.06" y2="45.79"/><path class="cls-4" d="M112.09,56.1,89.74,42.91a9.58,9.58,0,0,1,6-3L118.1,53.12A9.53,9.53,0,0,0,112.09,56.1Z"/><line class="cls-4" x1="113.92" y1="54.58" x2="91.57" y2="41.39"/><line class="cls-4" x1="115.95" y1="53.59" x2="93.6" y2="40.41"/></g><path class="cls-4" d="M79.42,62.05,57.08,48.87a6.1,6.1,0,0,0,3.93.74c2.87-.34,5.61-.64,8.34-.92l2.74-.29,3.13-.32,1.56-.17,1-.1.64-.06c4-.42,7.71-1,11.35-4.84a9.58,9.58,0,0,1,6-3L118.1,53.12a9.53,9.53,0,0,0-6,3c-3.64,3.86-7.4,4.42-11.36,4.84l-.63.06-1,.09-1.57.17-3.13.33-2.73.28c-2.74.29-5.47.58-8.34.93A6.14,6.14,0,0,1,79.42,62.05Z"/></g></g><g class="cls-2"><g class="cls-25"><path class="cls-4" d="M74,.23l.12,0c10.45-1,18.18,7,17.78,18.35-.4,11.1-9,20.82-19.44,21.91l-.15,0c-10.72,1-18.75-7.17-18.13-18.51C54.78,11,63.61,1.32,74,.23Z"/></g></g><g class="cls-2"><g class="cls-26"><path class="cls-4" d="M96.35,13.41h.12c10.45-1,18.18,7,17.77,18.35-.4,11.1-9,20.81-19.44,21.91h-.15c-10.71,1-18.74-7.16-18.13-18.5C77.13,24.17,86,14.51,96.35,13.41Z"/></g></g><g class="cls-2"><g class="cls-27"><g class="cls-2"><path class="cls-4" d="M96.47,13.4,74.12.21c10.45-1,18.18,7,17.78,18.35l22.34,13.19C114.65,20.35,106.92,12.38,96.47,13.4Z"/><line class="cls-4" x1="112.14" y1="21.7" x2="89.79" y2="8.51"/><path class="cls-4" d="M114.24,31.75,91.9,18.56c-.4,11.1-9,20.82-19.44,21.91L94.8,53.66C105.21,52.56,113.84,42.85,114.24,31.75Z"/><line class="cls-4" x1="111.34" y1="42.12" x2="88.99" y2="28.93"/><line class="cls-4" x1="104.38" y1="49.96" x2="82.04" y2="36.77"/><path class="cls-4" d="M94.8,53.66,72.46,40.47l-.15,0L94.65,53.67Z"/><line class="cls-4" x1="94.75" y1="53.66" x2="72.41" y2="40.48"/><line class="cls-4" x1="94.7" y1="53.67" x2="72.36" y2="40.48"/><path class="cls-4" d="M94.65,53.67,72.31,40.49c-10.72,1-18.75-7.17-18.13-18.51L76.52,35.17C75.91,46.51,83.94,54.71,94.65,53.67Z"/><line class="cls-4" x1="85.05" y1="51.86" x2="62.71" y2="38.67"/></g><path class="cls-4" d="M106.28,15.44c5.08,3,8.22,8.94,8,16.31-.4,11.1-9,20.81-19.44,21.91h-.15a16.55,16.55,0,0,1-10.13-2.11L62.17,38.37a16.66,16.66,0,0,0,10.14,2.12l.15,0c10.41-1.09,19-10.81,19.44-21.91.26-7.37-2.89-13.31-8-16.31Z"/></g></g><g class="cls-2"><g class="cls-28"><g class="cls-2"><path class="cls-4" d="M96.35,13.41,74,.23l.12,0L96.47,13.4Z"/><line class="cls-4" x1="96.39" y1="13.41" x2="74.04" y2="0.22"/><line class="cls-4" x1="96.43" y1="13.4" x2="74.08" y2="0.22"/><path class="cls-4" d="M96.47,13.4,74.12.21c10.45-1,18.18,7,17.78,18.35l22.34,13.19C114.65,20.35,106.92,12.38,96.47,13.4Z"/><line class="cls-4" x1="105.81" y1="15.17" x2="83.46" y2="1.98"/></g><path class="cls-4" d="M83.93,2.25l22.35,13.19a16,16,0,0,0-9.81-2h-.12L74,.23l.12,0A16,16,0,0,1,83.93,2.25Z"/></g></g><g class="cls-2"><g class="cls-29"><g class="cls-2"><path class="cls-4" d="M94.65,53.67,72.31,40.49c-10.72,1-18.75-7.17-18.13-18.51L76.52,35.17C75.91,46.51,83.94,54.71,94.65,53.67Z"/><line class="cls-4" x1="78.57" y1="45.24" x2="56.22" y2="32.05"/><path class="cls-4" d="M76.52,35.17,54.18,22C54.78,11,63.61,1.32,74,.23L96.35,13.41C86,14.51,77.13,24.17,76.52,35.17Z"/><line class="cls-4" x1="79.62" y1="24.88" x2="57.28" y2="11.7"/><line class="cls-4" x1="86.72" y1="17.09" x2="64.38" y2="3.91"/></g><path class="cls-4" d="M84.52,51.56,62.17,38.37C57,35.3,53.78,29.3,54.18,22,54.78,11,63.61,1.32,74,.23L96.35,13.41C86,14.51,77.13,24.17,76.52,35.17,76.13,42.48,79.33,48.49,84.52,51.56Z"/></g></g></g></g></g></svg>