<svg xmlns="http://www.w3.org/2000/svg" viewBox="0 0 154.3 271.25"><title>body</title><g id="Layer_2" data-name="Layer 2"><g id="Layer_1-2" data-name="Layer 1"><path d="M136,159.44c0,16.67,0,33.33,0,50a11.65,11.65,0,0,0,2.78,8.17c4.69,5.63,4.62,12.27-.26,17.75a9.69,9.69,0,0,0-2.53,7.17c.05,8.83.07,17.67-.07,26.5-.08,4.4.46,8.2,3.51,11.94,4.35,5.33,3.17,13.08-1.73,17.69a13.8,13.8,0,0,1-17.87.73,13.55,13.55,0,0,1-1.74-19.57,10.5,10.5,0,0,0,2.85-7.59c-.06-10-.06-20,.06-30a9.33,9.33,0,0,0-2.53-6.73c-5-5.73-4.92-12.74.21-18.48a8.16,8.16,0,0,0,2.36-5.8c0-14.66,0-29.33.07-44,0-3-1.21-4.21-4.15-4.14-4.66.1-9.33.13-14,0-3.09-.07-4,1.4-4,4.29q.08,22-.1,44a8.07,8.07,0,0,0,2.26,5.34c5.4,6.66,5.38,12.93-.17,19.35a7.63,7.63,0,0,0-2,5.37q.06,15.5-.12,31a9.67,9.67,0,0,0,2.43,6.8c5.33,6.31,5,14.2-.52,19.29a13.82,13.82,0,0,1-19-.18c-5.32-5.1-5.63-12.73-.4-18.87a10.23,10.23,0,0,0,2.53-7.23c-.06-10,0-20,.07-30a9.15,9.15,0,0,0-2.55-6.69,13.43,13.43,0,0,1,.14-18.6,9.08,9.08,0,0,0,2.49-6.7q0-51.49.11-103c0-3.37-1-5-4.31-5.21a6.34,6.34,0,0,1-4.51-1.93c-3.71-4.64-8.81-3.79-13.7-3.79a6.93,6.93,0,0,0-7.3,7.08c-.11,11.33,0,22.66-.13,34,0,2.22,1,3.68,2.31,5.27,5.35,6.28,5.18,14.06-.26,19.26a13.79,13.79,0,0,1-19.39-.27c-5.22-5.13-5.19-13.17.3-19.3a6.89,6.89,0,0,0,2-4.89q0-17,0-34a7.49,7.49,0,0,0-2.23-5.31c-5.07-5.73-5.08-13.34-.26-18.57s12.87-5.82,19-1.12c5.15,3.92,13.42,3.87,18.69-.12,5.92-4.46,12.54-4.3,18.2.74a8,8,0,0,0,5.85,2.16c5.83-.08,11.66,0,17.5-.05,5.09,0,9.89.32,14.34-3.79,4.23-3.91,11.11-2.82,15.71.93,5,4,13.7,4.09,18.67.12,5.83-4.64,13.65-4.3,18.59.8,5.09,5.27,5.52,12.91.5,18.53a10.64,10.64,0,0,0-2.79,8.07c.17,10.16.13,20.33,0,30.49a9.11,9.11,0,0,0,2.52,6.68,13.43,13.43,0,0,1-.51,19,13.94,13.94,0,0,1-19.06,0,13.53,13.53,0,0,1-.63-18.93,10.09,10.09,0,0,0,2.61-7.22c0-10.5,0-21,0-31.5,0-5.56-2.64-8-8.33-8.12-4.49-.09-9-.59-12.27,3.65a3.39,3.39,0,0,1-2.18,1.15c-7.22.54-7.14,5.34-7,10.89.26,15.82.09,31.66.09,47.49Z" transform="translate(-32.91 -31.08)"/><path d="M110.51,73A20.94,20.94,0,0,1,89.39,51.65a21.17,21.17,0,0,1,21.5-20.57c11.69.07,20.7,9.27,20.71,21.14A20.72,20.72,0,0,1,110.51,73Z" transform="translate(-32.91 -31.08)"/></g></g></svg>