<svg xmlns="http://www.w3.org/2000/svg" viewBox="0 0 190 441.57"><title>duo</title><g id="Layer_2" data-name="Layer 2"><g id="Layer_1-2" data-name="Layer 1"><path d="M73.71,94.39A24.24,24.24,0,0,1,74.12,92s0-.1,0-.1c1.13-.11,1.24-1.27,1.91-1.85h0A1.11,1.11,0,0,0,77,89,2.33,2.33,0,0,1,77.58,88c-.12.13-.36.27-.12.45a.23.23,0,0,0,.36-.16c0-.24-.18-.2-.31-.24L78,88c.51.06.85-.71,1.2-.49.53.34.8-.11,1.19-.12a1.07,1.07,0,0,0,1-.5c.28-.43.8-.24,1.16,0a4.56,4.56,0,0,1,1.1.9c.45.52.59.3.7-.21,0,0,.15,0,.22,0l0,0c0,.21.15.27.34.19.45-.18.9-.63,1.32.06.07.1.21,0,.32,0,.48-.09,1-.44,1.39.19.55-.21,1.23.11,1.7-.43l0,0a.93.93,0,0,0,1.21.38c.41-.28.74-.46,1.08.07a.39.39,0,0,0,.32.13c1.18-.29,2.17.48,3.25.57.92.07,1.8.31,2.69.38s1.18.76,1.88.91l0,0c.38.1.33.57.62.74l0,0c-.34.71.19,1.12.63,1.42s.44.52.31,1c-.21.76-.14.81.69,1,.11,0,.27,0,.35.06.87.76,2.06.62,3,1.09.39-.37.36.39.71.26a.94.94,0,0,1,.89.15c-1,.29-1.89.58-2.79.78-.59.13-.88-.24-1-1-.08-.39,0-.75-.76-.82-.57,0-.39.36-.55.46-.36.25.13.17.22.2a.37.37,0,0,1,.28.34c0,.26-.18.34-.39.35a2,2,0,0,0-.86.38c-.47.26-.76.51-.09.91s-.1.22-.15.32c-.3.62-1,.35-1.49.55s-1.07.26-1.57.49a2.15,2.15,0,0,1-1.18.28,6.73,6.73,0,0,0-2.46.38,3.1,3.1,0,0,1-1.86.18.2.2,0,0,0-.26.18.43.43,0,0,0,.12.31,2.87,2.87,0,0,0,1.77.36c1,0,1,0,1.15,1.26-.45-.6-.94-.12-1.36-.26a6.91,6.91,0,0,1-2-1,1.35,1.35,0,0,0-.66-.21l0,0c.27-.25.17-.47,0-.71-.07-.08-.11-.22-.25-.18s-.08.18-.11.28c-.16.43-.49.55-.79.26-.11-.12-.07-.29-.37-.32a2.16,2.16,0,0,1-2-1,.35.35,0,0,0-.52-.08.76.76,0,0,1-.75-.11c-.16-.18-.48-.52-.49-.46-.08.61-1.07.07-1,.8a.33.33,0,0,1-.47.34c-.88-.48-1,.5-1.39.77-.28.18.13,1.08.67,1.51a21.24,21.24,0,0,0,2.57,1.76c.14.08.26.19.44.31a1.14,1.14,0,0,1-1.46.36,9.07,9.07,0,0,0-2.5-.62c-.22,0-.51,0-.66-.18-.52-.71-1.25-.52-2-.53a4.34,4.34,0,0,1-1-.12c-.48-.11-.94-.24-1.37.18-.21.21-.52.13-.8.07s-.42-.2-.55.18-.19.4.07.59a1.39,1.39,0,0,1,.47.82c-.55-.14-1.13.46-1.55-.3-.76.28-1.66-.12-2.33.54-.31.31-.23.74-.37,1.11-.06.16-.13.3-.3.34a.29.29,0,0,1-.34-.27c-.37-1.62-1.61-1.67-3-1.81-2.66-.28-5.32-.45-8-.48a21.27,21.27,0,0,1-2.39-.07,2.18,2.18,0,0,1-1.66-.62,1.54,1.54,0,0,0-.58.94c-.08.23-.15.47-.48.38a.61.61,0,0,1-.5-.59,1.68,1.68,0,0,1,.3-.87c0-.07,0-.25-.06-.33s-.3-.06-.42.05a2.51,2.51,0,0,0-.75,1.66,3.18,3.18,0,0,0,.05,1.34c.33-.06.08-.47.38-.53.23.2.1.43,0,.65-.48,1.38-.94,2.76-1.42,4.14-.13.37-.29.74-.46,1.11s-.33.25-.56.07a1.43,1.43,0,0,1-.45-.82c-.52-1.72-1-3.44-1.56-5.15a2.63,2.63,0,0,1,0-1.75,17.59,17.59,0,0,0,.71-2.77,25.77,25.77,0,0,1,1.77-4.56c.37-.92.55-1.89,1-2.8a7.18,7.18,0,0,1,3-3.3,38.77,38.77,0,0,1,8.33-3.62c.17-.06.36-.21.55,0,0,.28-.24.3-.4.35-2,.68-3.86,1.57-5.77,2.43a8.41,8.41,0,0,0-1.5,1.15c-.53.38-1,.88-1.52,1.28a1.41,1.41,0,0,0-.56,1.4,23.57,23.57,0,0,1,4.47-3c.42.73.08,1.46,0,2.41.39-.82.87-1.32.74-2.09-.08-.43.39-.46.67-.51.47-.08.77.13.71.67l0,0c-.3,0-.16-.45-.51-.4.22.46-.49.79-.12,1.33l.38-.43,0,0a2.62,2.62,0,0,0,1.22,1.18c.23.07.57.18.61.34.11.37-.42,1.09-.67,1s-.45.11-.48.25.21.13.32.13c.7,0,.89.52,1.18,1a.81.81,0,0,0-.21.1.25.25,0,0,0,0,.4s.07.07.09.07c.22-.06.15-.23.15-.37a1.6,1.6,0,0,0,0-.23,1.89,1.89,0,0,0,1.94-.47c.28-.31.49.39.8.1a8.16,8.16,0,0,0-.9.53c-.18.13-.13.36,0,.54s.18.2.29.09c.31-.32.73-.56.85-1,0-.08-.15-.15-.28-.11.57-.63,1,.11,1.46.19l0,0c.51.67,1.18,1.28.86,2.41.73-.29,1.32-.69,1.62.18a.5.5,0,0,0,.16-.54c0-.58.51-.66.82-.76s.39.4.53.67c.22.44-.09.83-.17,1.25a.35.35,0,0,0-.48-.21c-.11,0-.25.1-.2.23s.18.1.28.12a.42.42,0,0,0,.41-.18c0,.18-.07.35-.1.52a1,1,0,0,0-1,.11,1.51,1.51,0,0,0,1-.13c.11.1.25.28.32.26s0-.24,0-.38,0-.39.25-.45c0,.41.11.64.71.62-.3-.27-.31-.65-.74-.58a2.13,2.13,0,0,1,.85-.6c0-.55-.68,0-.86-.55-.34-1-.43-1,.62-1.39a.9.9,0,0,0-.07.34c0,.12-.09.34.14.35,0,0,.12-.27.11-.42S73.79,94.47,73.71,94.39Zm-8.6.66c-.2.14-.38.3-.18.56.08.11.2.17.29.06s0-.36-.08-.53l0-.1c.28.13.57.29.85-.13ZM100,92.58c.14-.4-.17-.6-.34-1-.41.68-.21.92.37,1-.28.5-.24.55.73.7ZM68.11,95.83l.43-.39c.5-.48,0-.56-.24-.77-.35.4.06.82-.19,1.16.6.44.5,1.21.77,1.9.38-.54,0-1,.07-1.4C69,95.68,68.59,95.68,68.11,95.83Zm5.44,4.72a1.32,1.32,0,0,1-1.15,0,1.46,1.46,0,0,0-1.59.18c-.22.13-.35.51-.15.58s.46.55.85.18,1-.45,1.07-.2c.12.88.7.32,1.07.38,0,.23,0,.54.38.46a6.25,6.25,0,0,0,1-.39c.31-.13.63-.37.9.08.13.21.33.18.51,0s.15-.35.07-.54c-.22-.54-.74-.65-1.38-.41s-.78.93-1.49.78c-.19-.37.13-.79-.08-1.14,0,0,.1.11.16.16s.3.25.49.08a.14.14,0,0,0,0-.11.38.38,0,0,0-.47-.2A.7.7,0,0,0,73.55,100.55Zm7.9-2.2c-.15,0-.29,0-.33.1-.13.46-.62.83-.31,1.4.12.24.25.41.52.38s.14-.28.17-.44c.06-.37.15-.69.66-.51.13,0,.45.07.39-.26,0-.18-.09-.49-.28-.46A1.09,1.09,0,0,1,81.45,98.35Zm-15.74.16,1.05.22c.29,0,.47,0,.4-.37s-.1-.5-.44-.41A2.06,2.06,0,0,0,65.71,98.51ZM76.5,95.73a.29.29,0,0,0-.32-.27.57.57,0,0,0-.54.63c0,.28.23.26.41.26C76.38,96.35,76.56,96.2,76.5,95.73Zm-14.25,4.4c-1-.29-1-.29-1.53.68C61.3,100.41,61.88,100.58,62.25,100.13ZM79.4,93.29c-.57.1-.91.15-1,.51,0,.18.17.36.39.36C79.44,94.17,79.07,93.64,79.4,93.29Zm-3.64,9.44c0-.17-.09-.27-.21-.26-.29,0-.34.28-.38.51s0,.33.23.26A.52.52,0,0,0,75.76,102.73Zm3.86-3.62c.27-.12.55-.16.48-.49s-.25-.29-.46-.29-.32.17-.26.4S79.35,99.15,79.62,99.11Zm19-8.5c.07,0,.36,0,.33-.23s-.33-.32-.55-.35-.25.15-.25.31S98.27,90.69,98.62,90.61ZM74.54,93.29c.51-.23.51-.23.66-.77C74.7,92.71,74.7,92.71,74.54,93.29Zm.56,2.06c.24,0,.34-.14.39-.34s-.07-.27-.25-.26-.41-.12-.44.18A.36.36,0,0,0,75.1,95.35Zm5.34,1.22c.07-.14,0-.18-.13-.18-.33,0-.49.16-.4.52,0,.15,0,.25.25.24C80.67,97.11,79.92,96.55,80.44,96.57ZM70,101V99.82A1.09,1.09,0,0,0,70,101Zm8.1-3.69c.21,0,.32-.1.31-.29s-.1-.27-.3-.15-.31-.22-.35.06S77.9,97.27,78.11,97.3ZM67.47,98.41s0,.08.07.07a3.78,3.78,0,0,0,.57-.1.34.34,0,0,0,0-.2.8.8,0,0,0-.64.12S67.48,98.37,67.47,98.41ZM100,95.57l-.07-.34c-.19.06-.12.24-.17.37s0,.25.12.24S100,95.68,100,95.57Zm-20.92.87c.09-.18.06-.25,0-.27a.26.26,0,0,0-.34.23c0,.11,0,.3.09.27S79.06,96.48,79.11,96.44Zm5.68.94a.86.86,0,0,0-.28-.67A.52.52,0,0,0,84.79,97.38Zm-11.64,5.68c.23-.31.22-.39.11-.4a.23.23,0,0,0-.28.26c0,.1,0,.29.08.26S73.23,103,73.15,103.06ZM79.8,88.22c.09-.09.08-.13,0-.14s-.31,0-.31.23a.79.79,0,0,0,.06.22Zm-.54,2.51.17-.23a.53.53,0,0,0-.22,0c-.07,0-.15.1-.15.15S79.13,90.78,79.26,90.73Zm-7.94,12-.16-.15s-.07.11-.06.14a.21.21,0,0,0,.16.12C71.37,102.8,71.39,102.75,71.32,102.68Zm6.27-7.48a.22.22,0,0,0,.14-.28c0-.12-.09-.24-.22-.12a.52.52,0,0,0-.1.31S77.53,95.18,77.59,95.2Zm20.15-5.08c0-.06-.12-.21-.2-.22s-.09.16-.1.25.1.19.23.17S97.79,90.24,97.74,90.12ZM79.65,95.35a.67.67,0,0,0-.12-.24s-.13,0-.1.14a.58.58,0,0,0,.12.29S79.67,95.5,79.65,95.35Z" transform="translate(-50.52 -2.61)"/><path d="M87.26,285.39c.59-.18,1-.74,1.68-.73.19,0,.21-.29.26-.47l.61.79c-.09-.51-.11-.89-.62-.72a1,1,0,0,0-.6-.67l-.4.83c-.29-.17-.65-.27-.42-.8.11-.27-.08-.6,0-1,.16-.78.07-.8.85-.59-.37.49-.37.49.08,1h0c.61-.55,1.51-.78,1.87-1.64a.58.58,0,0,1,.47-.27c.64,0,.56-.29.7-.79s0-1.1.32-1.58c.22.35.22.35.64,0a1.09,1.09,0,0,0-.67,0c.93-.57.44-1.38.23-2a1.22,1.22,0,0,0-1.46-1c-.31.06-.62-.07-.47-.66a1.15,1.15,0,0,0-.53-1.36c-.39-.19-.22-.68,0-1-.1.15-.1.35.07.35s.45,0,.43-.26-.27-.17-.44-.11c.38-.1.77-.3.81.41a8.64,8.64,0,0,1,.1,1.17c0,.5.07,1,.83,1.07a10.44,10.44,0,0,0-.74-3,29.11,29.11,0,0,0-1.18-3.86,9.19,9.19,0,0,1-.8-3.38c0-.43-.45-.72-.49-1.17a15.29,15.29,0,0,0-1.07-4.32c-.07-.18-.15-.39.1-.5a.52.52,0,0,1,.56.06,1.86,1.86,0,0,1,.56.88c.58,1.8,1.35,3.54,1.94,5.33a28.88,28.88,0,0,1,1.68,6.42,20.71,20.71,0,0,0,2.18,8.2,10.8,10.8,0,0,1,1,2.24,7.75,7.75,0,0,1,.35,1.85c0,1.35.88,2.41,1.39,3.58s.86,2.47,1.33,3.69a21.25,21.25,0,0,0,1.87,4.56,3.6,3.6,0,0,1,.48,1.69c.07,1.27.36,2.51.43,3.78a14,14,0,0,0,1,3.54c.14.44.41.24.66.11l0,0c.1.47.15,1,.73,1.12.12,0,.23.12.15.24s-.29,0-.29,0a1.65,1.65,0,0,0,.12.9c.25.67.47,1.35.66,2,.25.85.23.85,1.16.83l0,0,0,.77-.36,0c-.19,0-.48.14-.33.34s.09.65.51.48c.2-.08.14-.34.13-.54.34.1,0,.86.63.68,0,0,.11.1.12.16s-.08.18-.19.23c-.28.14-.5-.25-.78-.09.24.48.24.49.65.48.12,0,.29,0,.18.13s.33.61-.11.82c.19.16.58.09.54.5h0a4.84,4.84,0,0,0,.57,1.27h0a3,3,0,0,1-.33,2.75l0,0c-.06.06-.12.17-.17.16a1.25,1.25,0,0,1-.91-1.8c.06.11,0,.34.18.32s.28-.2.18-.34-.27-.05-.39.06a3.34,3.34,0,0,0-1.1-2l0,0a3.76,3.76,0,0,1-.45-1.12,1.88,1.88,0,0,0-1.13-1.85c-.25-.11-.13-.21-.11-.33,0-.44-.3-.7-.47-1h-.13c-.51.35-.75,0-1-.4-.3.07-.15.5-.44.57l0,0c0-.41,0-.86-.51-1l0,0a.9.9,0,0,0,.46-1.34,3.09,3.09,0,0,1-.43-1.74.22.22,0,0,0-.1,0s-.07,0-.11,0l0,0c-.11-1.11-.16-1.14-1.38-.88.27-.21.28-.57.45-.83s.18-.34-.06-.47-.33,0-.52.1c-.63.44-.6,1.13-.75,1.75-.68,1.51-.65,3.17-1,4.74-.2.92-.32,1.86-.5,2.9A1.82,1.82,0,0,1,96,312.4a4.29,4.29,0,0,0-.8-2.5c-1-1.44-2.12-2.82-3.22-4.21a5.26,5.26,0,0,1-.56-1.05l0,0a.92.92,0,0,0,0-1.19c-.47-.5-.2-.89,0-1.24a2,2,0,0,0,.26-1c.07-.42-.29-1.06.43-1.29.22-.07.11-.25.07-.39a1.13,1.13,0,0,1,0-.9,4.55,4.55,0,0,1,.61.53c.31.38.57,0,.71-.09.45-.41-.21-.17-.23-.33a2.08,2.08,0,0,1,.22-1.25c.35-.62.22-.85-.52-.93.09-.21.3-.23.49-.29s.35-.14,0-.32-.31-.59-.08-.69c.73-.31.17-.63,0-.91s-.19-.39-.11-.56c.4-.88-.16-1.25-.81-1.57.23-.25.56-.41.62-.83a.58.58,0,0,0-.5-.68c-.37-.11-.25.28-.33.46a1.58,1.58,0,0,0-.17,1.11,3.68,3.68,0,0,0-.68,2c-.12.66-.11.9-.19,1.27-.25,1.07-.86,2-.79,3.22a9.84,9.84,0,0,1-.3,2.58,4.44,4.44,0,0,0-.11,1.49,1.27,1.27,0,0,1-.17.81c-.32.51-.82.54-1.1,0-.74-1.41-1.51-2.82-2.13-4.29a8.59,8.59,0,0,1-1.15-3.11.41.41,0,0,0-.14-.31c-1-.62-1.26-1.79-2-2.52a41.17,41.17,0,0,1-2.85-3.48,11.91,11.91,0,0,1-2.82-5.06,22.56,22.56,0,0,0-1-3.06.9.9,0,0,1,.35-1.23c.63-.42.75-1.31,1.48-1.68.07,0,.08-.31,0-.46-.13-.59-.27-1.17-.44-1.75,0-.11-.2-.08-.3,0s0,0,0,0c.29-.21.56-.44.86-.62s.17-.33.19-.52c-.25,0-.6,0-.51-.27s-.26-.7-.1-1a1.31,1.31,0,0,0,0-1c0-.1-.18-.16-.07-.3.71-.9.61-2,.79-3.06,0,0,.14-.05.21-.08.1.87.43.09.64.15-.2-.21-.44-.08-.67-.11.08-.17-.29-.48,0-.44.54.1.66-.23.64-.54a2.35,2.35,0,0,1,.48-1.38c0,.28-.12.6.34.56a.37.37,0,0,0,.19-.09c-.09-.23-.44.1-.5-.23l0-.22a1.35,1.35,0,0,1-.25-1.8c.14-.28-.18-.42-.18-.62a2,2,0,0,1,.17-.66c.39.16.3.57.51.82.78-.68.13-1.8.81-2.56a4.65,4.65,0,0,1,.24,1.83,1.57,1.57,0,0,0,.41,1.54c.07.06.1.06.09.16-.1,1.58.76,3.09.31,4.7-.09.3.12.52.38.66l0,0a.11.11,0,0,1,0,.15h0c-.26.09-.55.09-.75.33s-.26.36,0,.6c1.1,1.23,1.09,1.69-.08,2.78a3.17,3.17,0,0,1-.61.31c.13.15.38.17.43.39-.25,0-.54,0-.6.35a.89.89,0,0,0,.56-.38c.31-.11,0,.61.53.36.1-.05.31.28.13.62a3,3,0,0,0-.36,1.41c0,.39.25,0,.39,0a1,1,0,0,0,1,.94c.35,0,.53-.44.65-.79l0-.12c-.2.66-.2.66.26,1.31.36-.31.24-.89.68-1.19.14-.09,0-.42.38-.15s0,.25-.08.31a.57.57,0,0,0-.2.53,2.06,2.06,0,0,1-.31,1.92c-.11.16-.06.28.07.41a1,1,0,0,1,.12,1.38c-.22.27.14.3.18.46.15.67-.2-.05-.29.1a.38.38,0,0,0,.09.51c.72.17.74.85.76,1.29,0,.82.5.77,1,.78,0,.24-.48.14-.41.48.42-.27.47.7.79.3s.6-.54.72-.93S87.71,285.38,87.26,285.39Zm-4.72-5.23c-.08-.15,0-.42-.29-.38a.27.27,0,0,0-.14.14c.06.26.27.22.46.21-.11.24-.63.16-.48.7C82.17,280.49,83,280.84,82.54,280.16Zm13.74,20.12c.52.12.71-.2.58-.59a6.62,6.62,0,0,0-.88-2.32c.12.52-.49.36-.41.66a3.61,3.61,0,0,1,0,1.5c-.07.44.22.64.6.73-.4-.09-.73,0-.83.44-.18.79-.33,1.59-.5,2.42a4.06,4.06,0,0,1,.93.27c.59.34.33-.83.89-.47-.11-.23.37-.46,0-.71s-.22-.53-.07-.83.24-.48.35-.72ZM81.08,274c-.69-.68-.9.1-1.27.42-.16.13-.31.23-.16.46a.43.43,0,0,0,.51.2A1.41,1.41,0,0,0,81.08,274Zm14.49,30.11c-.36-.36-.54-.26-.49.23,0,.21-.3.65.13.6s.72-.43,1.08-.66C96.07,304.18,95.89,303.89,95.57,304.15Zm-1.53-1c-.1-.06,0-.33-.21-.32s-.24.18-.23.35a.26.26,0,0,0,.33.25C94.06,303.4,94.13,303.32,94,303.14Zm4.08-.27c0-.12.39-.45-.15-.38-.3,0-.32.29-.33.54s.06.3.27.22S98.51,303.26,98.12,302.87Zm-17.9-27.43c-.08.06-.31,0-.27.23,0,.05.12.1.19.1s.33,0,.35-.2S80.37,275.43,80.22,275.44Zm12.5,29.88.57-.63C92.68,304.56,92.6,304.82,92.72,305.32Zm-13.57-29c-.1,0-.24.11-.11.18s0,.41.3.39a.23.23,0,0,0,.2-.23C79.55,276.45,79.36,276.4,79.15,276.36Zm14.24,24.26c-.11,0-.28.07-.2.19s.32.06.43.29.13-.07.13-.15S93.66,300.56,93.39,300.62ZM98,302.15a.67.67,0,0,0,0-.84C97.8,301.66,97.74,301.9,98,302.15ZM80.6,281c.12-.11,0-.2,0-.3s-.08-.43-.3-.19C80.22,280.6,80.35,280.94,80.6,281Zm13.69,24.54-.38-.45a1.47,1.47,0,0,0,0,.21c0,.12.08.22.21.23S94.24,305.49,94.29,305.56Zm-1.62-3.13c-.09,0-.19,0-.18.09s.17.25.35.22.2-.08.19-.11C93,302.41,92.81,302.47,92.67,302.43Zm1.59-1.49c0-.06,0-.13,0-.2s-.06-.14-.09-.07a.14.14,0,0,0,0,.11A1,1,0,0,0,94.26,300.94Zm.58-1.33-.2.1s.1.06.15.05.18,0,.19-.07S94.94,299.58,94.84,299.61Z" transform="translate(-50.52 -2.61)"/><path d="M119.66,394.2c-.5,0-.58.56-1,.72-.22.09-.08.23,0,.36s.47,0,.11.32a5.25,5.25,0,0,0-1.43,2.16,2,2,0,0,1-1,1.09,14.2,14.2,0,0,1-2,1c-.79.29-1.09.3-1.51-.37-.56-.89-1.59-1-2.37-1.49-.27-.18-.69.06-.88.23a5,5,0,0,0-1.89,2.49,21,21,0,0,0-.67,4.32,16.78,16.78,0,0,1-.36,2.31.37.37,0,0,1-.7.07c-.3-1.06-1-2-.41-3.26s.33-2.53.58-3.79a.51.51,0,0,0-.89-.44c-.43.36-1,.3-1.43.73-.18.2-.4-.07-.43-.2a15.14,15.14,0,0,1-.49-1.93,20.1,20.1,0,0,1,.59-4.58,2,2,0,0,0,.11-1.67c-.33.62-.76,1.1-.08,1.68-.45-.16-.94,0-1,.38a6.63,6.63,0,0,1-1.2,2.44c-.85,1.47-1.42,3.17-3,4.12-.33.19-.55.36-1,.19s-.25-.49-.27-.78a11.33,11.33,0,0,1,.42-2.78,8.79,8.79,0,0,0,0-3.92c-.14-.56-.34-1.49-1.41-1.3-.37.07-.37-.36-.37-.62a22,22,0,0,1,0-3.54c.28-1.78.33-3.59.71-5.36.18-.88.63-1.67.73-2.57s1.06-.77,1.56-1.2a5.54,5.54,0,0,1,.72-.31c.48-.26.91-.72,1.51-.11a1.07,1.07,0,0,0,1,.1c.8-.45,1,.11,1.14.63.12.32.07.56.65.47s1.09.58,1.16,1.16c.17,1.43.92,2.68,1.07,4.41.46-.85.78-1.45,1.11-2a2.47,2.47,0,0,1,.42-.71c.25-.22.45-.58.9-.48s.23.52.35.77.22.73.71.91.24.78.64,1.34c.19-.91.36-1.62.49-2.33a34.67,34.67,0,0,0,.61-3.74,30.81,30.81,0,0,1,.41-3.46,9.08,9.08,0,0,1,1.58-3.6,1.31,1.31,0,0,1,.22,1.37,46.55,46.55,0,0,0-1.57,7.63,37,37,0,0,1-.76,4.79.5.5,0,0,0,.11.45,1.8,1.8,0,0,0,1.76-.68,4.06,4.06,0,0,1,2.13-1,.76.76,0,0,1,.55.09,5.06,5.06,0,0,1,2.88,2.94,1.68,1.68,0,0,0,.43.76,2.5,2.5,0,0,1,.46,1c.47,1.23.06,2.42-.09,3.6a1.88,1.88,0,0,0,.22,1.17Z" transform="translate(-50.52 -2.61)"/><path d="M119.63,394.24a10.87,10.87,0,0,0,2.1-3.44,3.53,3.53,0,0,1,.37-.55c.41-.57,1.17-.78,1.37-1.61a.83.83,0,0,1,1.32-.5c.46-.86,1.32-.24,2-.52a2.61,2.61,0,0,1,3.32,1.49c.12.26.23.51.37.75a4.34,4.34,0,0,1,.78,2.12c.05,1.3.43,2.66,0,3.87-.66,1.73-.94,3.6-1.92,5.24a11.87,11.87,0,0,1-1.75,2.64,2,2,0,0,1-1.73.64,8.42,8.42,0,0,1-2.46-.58,1.18,1.18,0,0,1-.73-.59,1.4,1.4,0,0,0-1-1,.43.43,0,0,1-.34-.44c0-.81-.58-1.11-1.13-1.54a2.59,2.59,0,0,1-.74-2.72c.23-.91,0-1.79.23-2.67,0-.16.28-.4.07-.63Z" transform="translate(-50.52 -2.61)"/><path d="M134.53,363c.7-1,0-2.34,1.46-2.88-.48,1.23.23,2.25.15,3.37,0,.57,1,1,1.62.72s.2.32.21.36c.24,1.17.74,2,2,2.19a7.61,7.61,0,0,1,3.21,1.61,6,6,0,0,0,2.93.62c.11,0,.24-.47.23.1,0,.31.38.2.59.24.39.07.8.16,1-.29.32.55.82.32,1.28.29.66-.05.76.08.61.73a13.34,13.34,0,0,1-1.94,4.66,11.1,11.1,0,0,0-.81,1.66,15.3,15.3,0,0,1-2.49,3.26c-.46.59-1.23,0-1.7.52-.3-.43-1-.56-1-1.24,0-.35-.08-.81-.58-.22-.16.18-.45,0-.61-.34-.64-1.26-1.31-2.5-2-3.73a28.38,28.38,0,0,0-1.82-3.21,2.8,2.8,0,0,1-.48-1c-.27-1.25-1.46-2-1.66-3.25,0-.14-.18-.26-.28-.37a2.54,2.54,0,0,1-.87-1.79c0-.5-.37-.8-.57-1.2a9.67,9.67,0,0,0-1.33-2.52,1.64,1.64,0,0,1-.34-1.3c.07-.41,0-.9.64-1a.91.91,0,0,1,1.09.67C133.5,360.83,134.37,361.7,134.53,363Z" transform="translate(-50.52 -2.61)"/><path d="M87,391.9c-.36-.51-1.07-.24-1.42-.78a16.78,16.78,0,0,0-1.51,3.69c-.43-.15-.4-.51-.39-.8,0-1.24.07-2.48.1-3.71a2.26,2.26,0,0,1,.35-1c1.56-2.87,2.87-5.87,4.23-8.85a76.38,76.38,0,0,1,4.35-8.31c.35.13.28.37.14.57-.47.62-.42,1.4-.69,2.09a.88.88,0,0,0,.2.89l0,0,.34.83a1.59,1.59,0,0,0,.18-.83l.06,0,.07.07c1,.09,1,.13,1.22.93a2.8,2.8,0,0,1,0,1.65,8.18,8.18,0,0,0-.31,2.39,12.43,12.43,0,0,1-1,3.39,23.18,23.18,0,0,1-1.62,3.18c-.49.76-.82,1.7-1.73,2.11-.21.1-.1.26-.15.35-.25.42-.25,1.06-.93,1.14-.07,0-.19.06-.19.1,0,.88-.79.72-1.28.94Z" transform="translate(-50.52 -2.61)"/><path d="M74.72,116.41a3.81,3.81,0,0,0,2.22.13c.14-.06.31-.17.4,0a.43.43,0,0,1-.11.54c-.11.1-.3.1-.43.18-.67.36-.67.37-.37,1.22.08.22-.12.13-.18.18s0,.23-.07.32c-.23.54-.51,1.07-.75,1.6s.11,1.12-.11,1.59c-.66,1.39-1,2.9-1.74,4.25a7.92,7.92,0,0,0-.49,1.66c-.82,2.56-1.28,5.23-2.24,7.77a6.93,6.93,0,0,0-.44,3.73,1.81,1.81,0,0,1-.15.8A38.27,38.27,0,0,0,69,146.75a24.6,24.6,0,0,0,.09,5.69,49.8,49.8,0,0,1,.13,5.32c.07,2.05-.56,4-.82,6-.33,2.55-.9,5.08-1.15,7.64-.19,2-.86,3.85-1.13,5.8a37,37,0,0,1,.59-6.56c.42-3.08.75-6.16,1-9.26A44.71,44.71,0,0,1,68,156.6a.91.91,0,0,0,0-.36c-.31-1.36-.22-2.78-.46-4.13a22.7,22.7,0,0,1,.68-9.8c2.15-8.39,4.26-16.79,6.22-25.23A1.25,1.25,0,0,1,74.72,116.41Z" transform="translate(-50.52 -2.61)"/><path d="M68.62,254.52c-.06-.78.47-1.3.8-1.91a.38.38,0,0,1,.6-.16c.25.2.13.42-.09.59s-.27.17-.44.27c1,.62,1.14,1.07.58,2-.34.54-.12.69.31.79.93.21,1.14.39,1.05,1.28-.05.49-.17.89.39,1.22a1.11,1.11,0,0,1,.26,1,5.17,5.17,0,0,0,.45,2.4A12.76,12.76,0,0,1,73,264a1.35,1.35,0,0,0,.28.78c.38.33.16.39-.11.52,0,0,0,.16,0,.23.86,3,1.52,5,1.06,7.66-.43-.15-.4-.57-.48-.87-.6-2.32-1.17-4.64-1.76-7-.13-.54-.09-1.08-.26-1.63A6.6,6.6,0,0,0,69,260.48a38.08,38.08,0,0,1-3-2.58c-.42-.39-1-.62-1.21-1.24a.81.81,0,0,0-.77-.48c-.81.23-1.09-.52-1.62-.79s-.5-.72,0-1.28a3.38,3.38,0,0,0,.24-.41l0,0c.36-.37,1.06-.39,1.1-1.09v0c.33-.51,1.16-.4,1.29-1.18.2,1.09-.53,1.92-.66,3.06.46-.41.64-.8,1.15-.75a1.34,1.34,0,0,1,0,.53c-.16.38.09.53.35.59s.52.06.58-.37.31.11.46,0l0,0c.38.28.85.12,1.26.26l0,0,.12.58c.09-.3.4-.3.58-.46s-.14-.23-.21-.36ZM71.05,257c-.36,0-.87-.68-1,.25Zm-1.64-2.47c.3-.06.28-.33.34-.54a.15.15,0,0,0-.19-.2c-.25.06-.12.33-.26.48S69.27,254.49,69.41,254.54Zm-4.47.72c0-.1,0-.25-.17-.25s-.14.06-.08.15l.2.28A1.21,1.21,0,0,1,64.94,255.26Z" transform="translate(-50.52 -2.61)"/><path d="M99.64,311.15c.92,0,1.37.75,2,1.21-.31.26-.17.63-.21.95-.07.53.27,1.28-.09,1.55-.58.43.33,1.14-.42,1.38,0,0-.06.07-.05.09.48,1.21-.37,2.55.37,3.73.09.15.11.35,0,.43-.65.38-.41,1-.37,1.49.1,1.22,0,2.44,0,3.66a33.59,33.59,0,0,1,0,3.63,1.85,1.85,0,0,1-1.2-1.54c-.06-.28,0-.49-.32-.68a10.56,10.56,0,0,1-2.24-2.58,3.31,3.31,0,0,1-.2-3.19c.2-.45.15-1.07.73-1.32l0,.57c.18-.21.57-.11.6-.48l-.67-.06c.07-.29.79-.14.51-.6-.39-.64.23-1.18,0-1.82a12.39,12.39,0,0,1-.17-2,22.43,22.43,0,0,1-.12-4.41h0c.36-.11.9.13,1-.51l0,0c.3.15.2.57.51.72l0,0c0,.21-.32.25-.24.48,0,0,.15,0,.22,0,.25,0,.32-.17.25-.41,0-.07,0-.15,0-.23Zm-.13,1c.09.27-.33.63.08.82a.35.35,0,0,0,.3-.11C100,312.52,99.73,312.34,99.51,312.14Zm-1,0c-.06.15-.12.28-.17.43s-.06.33.1.19S98.55,312.38,98.47,312.16Z" transform="translate(-50.52 -2.61)"/><path d="M60.69,238.13c.22-1.78.47-3.55.65-5.33.39-3.88,1.17-7.72,1.1-11.65a6.53,6.53,0,0,1,.67-2.77,4.6,4.6,0,0,1,.54,2.45,28.26,28.26,0,0,0,.23,4.7c.33,2-.27,3.8-.57,5.69-.37,2.31-1.56,4.34-2.15,6.57a1.41,1.41,0,0,1-.25.4Z" transform="translate(-50.52 -2.61)"/><path d="M75.87,105.54c.26-.81.24-.74,1-.54a1.33,1.33,0,0,1,.76.37c0-.41.57-.31.67-.66,0,0,.06,0,.11-.07a2.16,2.16,0,0,1-.25,2.11.78.78,0,0,0,0,.9,1.39,1.39,0,0,1,.15,1c-.05.26-.07.73-.65.47-.23-.11-.55.16-.51.48a3.05,3.05,0,0,1-.32,1.6c-.19.41.07.63.6.53a.88.88,0,0,1,.77.13h-.08c.34.27.23.69.32,1l0,0c-.64.15-1.18-.51-1.86-.25-.06,0-.32-.33-.4-.54a4.85,4.85,0,0,0-1.13-2.37c-.14-.12-.14-.45-.14-.68a13.7,13.7,0,0,1,.21-2.71c.07-.38.13-.69.59-.71A.21.21,0,0,1,75.87,105.54Zm1.42,1.25c-.13.13-.26.26-.19.48.14,0,.35-.06.4-.16.13-.28-.14-.24-.3-.28a1.65,1.65,0,0,0,.39-1c-.47-.07-.28.51-.49.4-.41-.2-.49-.18-.34.26A.45.45,0,0,0,77.29,106.79Z" transform="translate(-50.52 -2.61)"/><path d="M103.09,411.58a1.54,1.54,0,0,1-.31-1.42,6.24,6.24,0,0,0,.33-2.47,1.34,1.34,0,0,1,.5-1.15c.41-.43.6-.86.21-1.4-.08-.12,0-.22.12-.38a8.61,8.61,0,0,1,1.58,3.71c0,.12,0,.23.12.28.69.26.62,1,.9,1.48.19.34.32.69-.35.6-.25,0-.36.27-.53.43-1,1-1.16,1-2.58.28a3.72,3.72,0,0,0,1.28.16c.21,0,.23-.19.21-.35s-.1-.3-.15-.24C104.07,411.55,103.37,411,103.09,411.58Z" transform="translate(-50.52 -2.61)"/><path d="M107.18,327.92a1.19,1.19,0,0,1,.46,0c.27.1,0,.21,0,.33a12.16,12.16,0,0,1-.94,3,.57.57,0,0,0-.73-.1c-.19.12-.14.31,0,.47.2-.24.61.27.74-.22a33.54,33.54,0,0,1-1.63,4.87c-.15.34-.28.67-.76.49h0c-.1-.41-.22-.83-.28-1.25s-.53-1.2.29-1.67c.17-.1.33-.6-.24-.64l0,0a10.52,10.52,0,0,0-.37-1.84c-.19-.51.59-.35.3-.75a1.9,1.9,0,0,1-.26-.77.25.25,0,0,1,.32-.25,2.2,2.2,0,0,0,1.33.13c-.14.63.2.68.67.57-.18.11-.42.16-.51.41.57,0,.57,0,.49-.4.08-.15.22-.27.18-.47l0,0c.18-.29.83-.59,0-.89v0a1.52,1.52,0,0,0,1-1.12Z" transform="translate(-50.52 -2.61)"/><path d="M65.41,182a19.24,19.24,0,0,1,0,3.56,9.89,9.89,0,0,0,0,2.37,9,9,0,0,1-.75,4.51,10,10,0,0,0-.35,2.56,8,8,0,0,1-.36,1.74C63.72,191.73,63.67,186.76,65.41,182Z" transform="translate(-50.52 -2.61)"/><path d="M138.69,389.56a.7.7,0,0,1,.4.79,20,20,0,0,1-.73,4.65,6.87,6.87,0,0,0-.26,2.33,2.74,2.74,0,0,1-.55,1.4c-.1.15-.17.4-.44.24s-.44,0-.41-.32c.06-.82-.38-1.55-.13-2.48.37-1.42.71-2.88,1-4.33A13.71,13.71,0,0,1,138.69,389.56Z" transform="translate(-50.52 -2.61)"/><path d="M200.18,322.18a14.83,14.83,0,0,1,.1-8.53,20.91,20.91,0,0,0,1.16-3.75c.69,1.33,0,2.51.28,3.64.11.48-.57.62-.51,1.14a10.29,10.29,0,0,1-.35,3.31A33.24,33.24,0,0,1,200.18,322.18Z" transform="translate(-50.52 -2.61)"/><path d="M68.3,91.81c-.51.2-.39-.62-.92-.53-.3,0-.61-.23-.37-.67,0-.06-.09-.21-.16-.3-.19-.24-.74-.25-.54-.74a1.46,1.46,0,0,1,1-.75,1.76,1.76,0,0,1,2.53,1.12c.09.21.17.44.27.66.3.62.31.66-.4.78-.28.05-.3.55-.6.34S68.56,91.87,68.3,91.81Z" transform="translate(-50.52 -2.61)"/><path d="M110.51,75.24a7.19,7.19,0,0,1,2.31.51,36.18,36.18,0,0,1,6.65,2.18,3.24,3.24,0,0,1,1.73,1.76C117.48,78.27,114.09,76.54,110.51,75.24Z" transform="translate(-50.52 -2.61)"/><path d="M89.88,72.76c-1.24.39-2.22.72-3.21,1a7.41,7.41,0,0,0-2.06.88,12.79,12.79,0,0,1-4.25,1.81c-.53.11-.91.63-1.67.62.33-.66,1-.66,1.4-.79a3.77,3.77,0,0,0,1.25-.58,26.89,26.89,0,0,1,4.36-2.42A6.37,6.37,0,0,1,89.88,72.76Z" transform="translate(-50.52 -2.61)"/><path d="M75.71,112.36a12.08,12.08,0,0,1,1.1,2.83c0,.24,0,.5.38.47a.22.22,0,0,1-.09.36,1.75,1.75,0,0,1-.24,0c-2.11.27-2.2.17-1.74-1.93A4.88,4.88,0,0,1,75.71,112.36Z" transform="translate(-50.52 -2.61)"/><path d="M108.11,325.78c1,.29,1,.31.88,1.17l.06,0c-.7.21-1.14.88-1.87,1l.06,0a1.25,1.25,0,0,0-1,.37c0-.39.51-.47.54-.9s.6-.88,0-1.36l.21-.27,0,0h1.14Z" transform="translate(-50.52 -2.61)"/><path d="M62.7,253.7A5.32,5.32,0,0,0,62,254c-.35.2-.65.26-.88-.17s-.36-.66.05-1a7.44,7.44,0,0,0,1.49-1.87,1.59,1.59,0,0,1,0,1.28c-.13.49-.52,1-.07,1.56Z" transform="translate(-50.52 -2.61)"/><path d="M111.84,331a1.67,1.67,0,0,1,0-1.46c.35-.7,0-1-.38-1.38a.91.91,0,0,1,.08-1.49c.23-.18.49-.17.57.13.16.58.69,1.08.33,1.78-.25.5.15.8.67,1.16-.93.07-.85.87-1.25,1.29Z" transform="translate(-50.52 -2.61)"/><path d="M111.81,331c.39-.07.75.14.61.48-.29.72.07,1.31.18,2,.08.44.23.85-.19,1.2l-.3.14a.51.51,0,0,1-.57-.75,3,3,0,0,0,0-1.83,1.3,1.3,0,0,1,.25-1.22Z" transform="translate(-50.52 -2.61)"/><path d="M110.4,323.54c-.5.47-.82-.16-1.23-.2l0,0a1.29,1.29,0,0,0,.34,0c.2-.06.55,0,.49-.34s0-.64-.51-.52c-.09,0-.21-.09-.32-.13l0,0c-.1-.05-.21-.09-.31-.15s-.57-.07-.58-.47.4-.32.54-.53l0,0c.84-.37.85-.38,1.17.3a1.94,1.94,0,0,0,.48.81c.62.43.23.79,0,1.17Z" transform="translate(-50.52 -2.61)"/><path d="M74.83,105.58a11,11,0,0,1-.1,3.09,10.57,10.57,0,0,0-1.55-2.22c-.31-.27-.09-.65.37-.61S74.34,105.57,74.83,105.58Z" transform="translate(-50.52 -2.61)"/><path d="M190.2,341.45c-.36,1.23-.75,2.46-1.09,3.7-.09.33-.15.54-.52.38s-.51-.27-.35-.63c.31-.71.61-1.43,1-2.1.25-.47.5-1,.73-1.47Z" transform="translate(-50.52 -2.61)"/><path d="M94.93,408.6a12.26,12.26,0,0,1-.67-2.12c-.18-.4.18-.75.48-1s.68,0,.69.49A6.66,6.66,0,0,1,94.93,408.6Z" transform="translate(-50.52 -2.61)"/><path d="M97.88,311.12a12.88,12.88,0,0,1,.4-4.59c.5,1.09,0,2.1.12,3.09,0,.09.45.48-.1.69-.16.07.57-.1.52.35l0,0-1,.51Z" transform="translate(-50.52 -2.61)"/><path d="M85.31,243a4.78,4.78,0,0,1,.85,4.08A10.55,10.55,0,0,1,85.31,243Z" transform="translate(-50.52 -2.61)"/><path d="M78.5,112.92a2.2,2.2,0,0,0,.36,0c.3,0,.53.16.44.4s-.18-.32-.38-.1a1.22,1.22,0,0,0-.24,1c.07.53.08.53-.37.63v0c.09-.16.11-.3-.12-.32-.4,0-.66-.17-.67-.62a.71.71,0,0,1,.5-.81,3.63,3.63,0,0,0,.51-.28Z" transform="translate(-50.52 -2.61)"/><path d="M103.18,92.94c-.37-.72-1.07-1.21-1.41-2v0c.34-.84.32-.82.9-.38.43.33,1,.52.39,1.22-.17.2.06.72.11,1.09Z" transform="translate(-50.52 -2.61)"/><path d="M103.68,337.49c-.49.14-.35-.48-.66-.55.2-.63-.18-1.13-.38-1.67-.07-.21-.06-.52.1-.51a1.57,1.57,0,0,1,.57.32,1,1,0,0,1,.25.76c-.06.59.28.76.75.87h0c-.18-.06-.35.05-.31.18.14.38-.21.43-.35.62Z" transform="translate(-50.52 -2.61)"/><path d="M100.05,310.38c-1-.06-1-.06-.82-.94.12-.53.23-1.05.35-1.59.57.42.16,1.22.71,1.61l0,0a2.46,2.46,0,0,0-.25,1Z" transform="translate(-50.52 -2.61)"/><path d="M99.89,89.91l0,0a2.31,2.31,0,0,1-.07-1c.7.41,1.69.39,1.63,1.59,0,.16.19.34.29.51v0c-.66.65-.84-.31-1.29-.38l0,0c.08-.4.63-.05.65-.32,0-.51-.39-.7-.81-.87S100,89.74,99.89,89.91Z" transform="translate(-50.52 -2.61)"/><path d="M108.11,325.78h0a1.11,1.11,0,0,0-1.17-1.16c-.13,0-.26-.12-.4-.19l-.07-.07c0-.63.27-.72.74-.47a11.67,11.67,0,0,1,1,.7l0,0a1.33,1.33,0,0,0,.27,1l0,0Z" transform="translate(-50.52 -2.61)"/><path d="M80.1,107.66c-.49.16-.8.41-.53,1,.18.39-.19.33-.37.41s-.27-.11-.34-.28c-.32-.75.06-1.39.29-2.06v0a1.06,1.06,0,0,0,1,1Z" transform="translate(-50.52 -2.61)"/><path d="M77.31,275.68c-.34.49-.25.68.52,1,0,0,0,0,0,0a1,1,0,0,0,0,1.2c.13.19.18.35,0,.49-.38.26-.34-.17-.45-.3-.52-.63-.37-1.44-.54-2.16-.08-.32.34-.17.54-.18Z" transform="translate(-50.52 -2.61)"/><path d="M79.08,245.66c.16,0,.53-.08.43.15a1.61,1.61,0,0,0,0,1.31c0,.09.22.46-.23.25-.12-.06-.3.33-.53,0-.43-.68-.43-1,.15-1.52l.16-.18Z" transform="translate(-50.52 -2.61)"/><path d="M59.56,248.72c-.13.43.55.55.37,1a1.61,1.61,0,0,0,.11,1.2c.11.35-.13.32-.28.27s-.48-.18-.45-.47C59.37,250.05,59.14,249.37,59.56,248.72Z" transform="translate(-50.52 -2.61)"/><path d="M102.69,340.9c0,1.13.6,2.12.55,3.22C102.94,343.05,101.79,342.15,102.69,340.9Z" transform="translate(-50.52 -2.61)"/><path d="M113.63,337.72c0-.44.35-.56.7-.65.27.2,0,.44,0,.62-.06.37-.37.74.27.87l-.22,1.37,0,0a21.23,21.23,0,0,1-.8-2.19Z" transform="translate(-50.52 -2.61)"/><path d="M79.31,250.91c0,.12,0,.28,0,.34.84.84.07,1.47-.23,2.17a4.17,4.17,0,0,1,.25-2.47Z" transform="translate(-50.52 -2.61)"/><path d="M116.48,354.36a1.45,1.45,0,0,1,.41,1.68,2.19,2.19,0,0,0-1-1.37c-.27-.14-.3-.35-.26-.64.07-.62.59-.39.9-.55-.64.31-.64.31-.08.88Z" transform="translate(-50.52 -2.61)"/><path d="M112.11,334.81l.3-.14c.39.31.39.63,0,1s-.55.29-.69.63C111.3,335.48,111.3,335.48,112.11,334.81Z" transform="translate(-50.52 -2.61)"/><path d="M76.46,280.52c-.21-.45-.12-.91-.42-1.26-.1-.12-.13-.43.11-.5a.48.48,0,0,1,.66.28C77,279.56,77.15,280.07,76.46,280.52Z" transform="translate(-50.52 -2.61)"/><path d="M79.15,106.72c.67-.53,1.28,0,1.91.13.07,0,.14.18.15.29a.23.23,0,0,1-.29.28.72.72,0,0,0-.82.24l0,0c-.15-1-.15-1-1-1Z" transform="translate(-50.52 -2.61)"/><path d="M117.43,349.9s-.08.06-.12,0c-.5-.35-.5.31-.8.38s-.56-.1-.55-.41.5-.56.79-.69S117.22,349.51,117.43,349.9Z" transform="translate(-50.52 -2.61)"/><path d="M106.27,325.25c.28.59-.28.73-.54,1-.06.07-.11.1-.16,0s-.13-.3-.1-.32c.44-.3.32-.72.25-1.12.29,0,.42.17.55.36Z" transform="translate(-50.52 -2.61)"/><path d="M143.31,403.37c.07-.3.33-.56-.08-.9s.06-.69.47-.66h.13c.12.49-.24.93-.1,1.46.07.25-.28.08-.45.09Z" transform="translate(-50.52 -2.61)"/><path d="M111.11,324.8c-.07.46.22.64.59.73s.47.25.36.48-.37.19-.54,0c-.24.27-.63.21-.58-.05s-.55-.89.2-1.11Z" transform="translate(-50.52 -2.61)"/><path d="M113.62,337.71c-.57-.16-.54.44-.81.64a1.16,1.16,0,0,1-.42.14c0-.2.29-.25.25-.33a1,1,0,0,1,0-1c.48,0,.64.4.94.57Z" transform="translate(-50.52 -2.61)"/><path d="M111.14,324.83c-.28-.41-1-.57-.74-1.29l0,0c.79-.12.92.78,1.54,1-.37-.18-.49.31-.81.23Z" transform="translate(-50.52 -2.61)"/><path d="M105.53,309c-.25,0-.5.23-.66-.18a1.83,1.83,0,0,1-.14-1.34c0-.12.25-.07.1,0s0,.06,0,.09c.22.49.45,1,.68,1.47Z" transform="translate(-50.52 -2.61)"/><path d="M106.26,329v.84l0,0c-.32-.05-.34-.67-.82-.42.39-.44.05-.57-.29-.72-.11-.05-.32-.12-.16-.33s.29.1.32.09c.32-.05.71.13.94-.25Z" transform="translate(-50.52 -2.61)"/><path d="M108.81,321.26c-.7-.12-.77-.67-.8-1.21,0-.21.18-.23.34-.2-.11.57.65.25.71.71a.9.9,0,0,1-.29.73Z" transform="translate(-50.52 -2.61)"/><path d="M171.2,369.35c.57-.43,1.17-.53,1.59-1.08C172.76,369.22,172.57,369.35,171.2,369.35Z" transform="translate(-50.52 -2.61)"/><path d="M72.4,81.35A3.55,3.55,0,0,1,74,80.09,2.09,2.09,0,0,1,72.4,81.35Z" transform="translate(-50.52 -2.61)"/><path d="M106.27,325.25v0c-.14-.32-.22-.63.15-.86l.07.07a1.32,1.32,0,0,1,.48,1.35l0,0C106.66,325.72,106.36,325.64,106.27,325.25Z" transform="translate(-50.52 -2.61)"/><path d="M66.92,254.53c.07-.44.12-.8.78-.55.35.14.76.09.92.54l0,0c-.07.27-.27.28-.49.24l0,0c-.37-.31-.83-.21-1.26-.26Z" transform="translate(-50.52 -2.61)"/><path d="M119.25,418.47c-.1.06-.13.09-.16.09-.32,0-.73.22-.9-.26a.38.38,0,0,1,.12-.3C118.65,418,119.07,417.93,119.25,418.47Z" transform="translate(-50.52 -2.61)"/><path d="M97.13,99.92a1.06,1.06,0,0,1-1.19.29.34.34,0,0,1-.21-.47c.2-.34.21.14.35.12C96.41,99.81,96.74,99.56,97.13,99.92Z" transform="translate(-50.52 -2.61)"/><path d="M103.63,338.48c-.37-.35-.28-.68.05-1l0,0c.31,0,.65,0,.64.45s-.29.57-.7.49Z" transform="translate(-50.52 -2.61)"/><path d="M80.67,241.73a2.83,2.83,0,0,1,.32,1.13C80.43,242.78,80.43,242.78,80.67,241.73Z" transform="translate(-50.52 -2.61)"/><path d="M117.08,352.85c-.46.33-.81.31-1.06-.08-.12-.2.28-.37.54-.17a.59.59,0,0,0,.37.16S117,352.79,117.08,352.85Z" transform="translate(-50.52 -2.61)"/><path d="M106.64,319.72c.1.22-.18.42,0,.67s0,.27-.22.27-.19-.14-.17-.31,0-.4,0-.59c.08-.56.3.06.44,0Z" transform="translate(-50.52 -2.61)"/><path d="M114.39,339.93c.6.53.69.77.61,2-.23-.81-.4-1.42-.58-2Z" transform="translate(-50.52 -2.61)"/><path d="M103.59,338.45c.61.47.61.47.12,1.18-.45-.2-.23-.69-.41-1-.09-.16.19-.14.33-.14Z" transform="translate(-50.52 -2.61)"/><path d="M84,278.38c-.58-.17-1.14.12-1.71.12a4.12,4.12,0,0,1,.51-.63C83.16,278.08,83.74,277.84,84,278.38Z" transform="translate(-50.52 -2.61)"/><path d="M103.18,92.94l.88-.26c.14-.05-.07-.46.25-.28.1.06.17.45,0,.51s-.17.49-.48.24a.66.66,0,0,0-.63-.21Z" transform="translate(-50.52 -2.61)"/><path d="M102.13,310.2h.13c0,.71,0,.71-1,.59A2.56,2.56,0,0,0,102.13,310.2Z" transform="translate(-50.52 -2.61)"/><path d="M105.29,311.26v-.39a.52.52,0,0,0,.16-.17.52.52,0,0,1,.61-.25.26.26,0,0,1,.17.28c0,.32-.24.37-.47.42Z" transform="translate(-50.52 -2.61)"/><path d="M68.88,93.79c0-.12,0-.28-.07-.34-.29-.24,0-.61-.2-.85.11,0,.29.06.31.12.1.35.57.74-.08,1Z" transform="translate(-50.52 -2.61)"/><path d="M81,109c.17,0,.3.07.31.25s0,.42-.23.47-.34-.11-.38-.32A.33.33,0,0,1,81,109Z" transform="translate(-50.52 -2.61)"/><path d="M87.89,280c.11.34.24.62-.18.78-.07,0-.21,0-.22,0C87.37,280.36,87.61,280.18,87.89,280Z" transform="translate(-50.52 -2.61)"/><path d="M77.75,251.45c-.21.25.1.6-.17.81-.1.08-.08.31-.35.25A2.12,2.12,0,0,1,77.75,251.45Z" transform="translate(-50.52 -2.61)"/><path d="M77.33,275.71c-.06-.34-.4-.61-.24-1a.31.31,0,0,1,.38-.2c.14,0,.16.16.13.27-.09.31-.2.61-.29.91Z" transform="translate(-50.52 -2.61)"/><path d="M108.89,324.58c.35.73.3.82-.49.93l0,0c-.1-.46.3-.68.49-1Z" transform="translate(-50.52 -2.61)"/><path d="M103.79,328.18c.23,0,.27.14.33.27s.09.33-.09.39-.35,0-.18-.22S103.55,328.34,103.79,328.18Z" transform="translate(-50.52 -2.61)"/><path d="M114,334.88a.7.7,0,0,1,.15.85h0c-.19.06-.38.15-.51-.1-.22-.42.2-.53.36-.77Z" transform="translate(-50.52 -2.61)"/><path d="M143.28,403.36a3.18,3.18,0,0,1,.23.4c.06.17.37,0,.33.21s-.22.21-.38.21l-.48-.05c.28-.2.28-.49.33-.76Z" transform="translate(-50.52 -2.61)"/><path d="M78.17,248.36c0,.16-.12.31-.3.3s-.31-.21-.29-.41.21-.22.36-.22S78.18,248.19,78.17,248.36Z" transform="translate(-50.52 -2.61)"/><path d="M79.31,250.91l.06,0-.35-.4c.38,0,.66.31,1.11,0C79.84,250.94,79.6,251,79.31,250.91Z" transform="translate(-50.52 -2.61)"/><path d="M193.45,256.8a2,2,0,0,1,.27-1.45A3.89,3.89,0,0,1,193.45,256.8Z" transform="translate(-50.52 -2.61)"/><path d="M102.85,305.05c0-.1.09-.21.12-.31a.35.35,0,0,1,.46-.24c-.29.22-.31.4.08.51-.11.23-.28.22-.47.11a2,2,0,0,0-.22-.09Z" transform="translate(-50.52 -2.61)"/><path d="M100.11,306.4a.52.52,0,0,0-.11.19c0,.22,0,.49-.37.38.19-.34-.09-.44-.3-.58.18-.17.37-.29.6-.06a.82.82,0,0,0,.21.1Z" transform="translate(-50.52 -2.61)"/><path d="M109.17,323.34c-.52.12-.26-.6-.65-.61.1-.35.34-.39.64-.32l0,0v1Z" transform="translate(-50.52 -2.61)"/><path d="M83.26,112.27c.21-.33-.25-.54-.17-.91A.64.64,0,0,1,83.26,112.27Z" transform="translate(-50.52 -2.61)"/><path d="M89.54,87.54c-.11-.32-.6-.22-.66-.61.26-.15.51,0,.73.09a.26.26,0,0,1-.11.49Z" transform="translate(-50.52 -2.61)"/><path d="M93,375.7l-.07-.07v-.06c.15-.33.44-.41.91-.42Z" transform="translate(-50.52 -2.61)"/><path d="M143.83,401.81h-.13c.05-.1.07-.23.15-.29s.35-.16.48,0a.33.33,0,0,1,0,.32C144.16,402,144,401.94,143.83,401.81Z" transform="translate(-50.52 -2.61)"/><path d="M79.11,245.63c-.27-.1-.65.09-.81-.3.23,0,.48.08.63-.19l0,0,.53.08-.34.41Z" transform="translate(-50.52 -2.61)"/><path d="M81.07,108a.34.34,0,0,1,.24.34c0,.21-.2.19-.35.18s-.25,0-.11-.19S80.87,108.06,81.07,108Z" transform="translate(-50.52 -2.61)"/><path d="M80.51,257.8a.23.23,0,0,1-.24.2.21.21,0,0,1-.24-.19.26.26,0,0,1,.24-.33C80.39,257.47,80.48,257.55,80.51,257.8Z" transform="translate(-50.52 -2.61)"/><path d="M116.47,354.36c-.17-.17,0-.25.09-.33s.25-.26.13-.46c.23.17.43.36.28.69s-.3.21-.49.1Z" transform="translate(-50.52 -2.61)"/><path d="M114,334.85c-.11-.11-.48.14-.36-.2s0-.43.17-.6c.31.23.07.56.16.83Z" transform="translate(-50.52 -2.61)"/><path d="M79.15,248.72c.07-.31-.1-.74.44-.78-.09.53-.12.57-.47.74Z" transform="translate(-50.52 -2.61)"/><path d="M199,295.46a1.9,1.9,0,0,1,.09,1.18A1.33,1.33,0,0,1,199,295.46Z" transform="translate(-50.52 -2.61)"/><path d="M78.42,250.21c-.09,0,.07.32-.16.27-.07,0-.25-.12-.17-.24a.37.37,0,0,1,.39-.21C78.58,250.05,78.57,250.13,78.42,250.21Z" transform="translate(-50.52 -2.61)"/><path d="M104.39,314.51c-.24.72-.57-.09-.84.1.28-.29.58-.11.87-.07Z" transform="translate(-50.52 -2.61)"/><path d="M92.91,375.57v.06l-.06,0h-.52l0,0c.08-.19,0-.51.36-.48C92.89,375.22,92.9,375.41,92.91,375.57Z" transform="translate(-50.52 -2.61)"/><path d="M102.26,333.74c.49-.4.69-.26.71.28C102.64,334.05,102.59,333.64,102.26,333.74Z" transform="translate(-50.52 -2.61)"/><path d="M114.11,335.73v1l-.56-.24a1.59,1.59,0,0,1,.58-.72Z" transform="translate(-50.52 -2.61)"/><path d="M117,351.67c.28-.37.55-.27,1-.23C117.59,351.66,117.35,351.8,117,351.67Z" transform="translate(-50.52 -2.61)"/><path d="M81.38,261.74c.09.22.27.44,0,.65,0,0-.19,0-.2,0A.49.49,0,0,1,81.38,261.74Z" transform="translate(-50.52 -2.61)"/><path d="M78.31,114.91a3.3,3.3,0,0,1,0,1.38c-.25-.54,0-.94,0-1.36Z" transform="translate(-50.52 -2.61)"/><path d="M79.06,110.76a.4.4,0,0,1,.25.36,1.16,1.16,0,0,1,0,.45c0-.14-.06-.29-.08-.43S78.91,111,79.06,110.76Z" transform="translate(-50.52 -2.61)"/><path d="M82.68,271.71h0a.64.64,0,0,0,.54.28l0,0c-.27.34-.72.25-1.07.46A5.65,5.65,0,0,0,82.68,271.71Z" transform="translate(-50.52 -2.61)"/><path d="M76.78,253.62c-.09,0-.25.27-.28,0,0-.05.18-.15.28-.16s.39.06.35.22S76.92,253.49,76.78,253.62Z" transform="translate(-50.52 -2.61)"/><path d="M78.18,111.88h.08c-.31-.16-.28-.5-.44-.87C78.29,111.25,78.34,111.52,78.18,111.88Z" transform="translate(-50.52 -2.61)"/><path d="M84.49,87.58s0-.08,0-.11c.14-.33-.52-.24-.3-.58,0-.07.25-.14.3-.1.32.24.17.51,0,.76Z" transform="translate(-50.52 -2.61)"/><path d="M112.58,336c.24,0,.3.23.32.42s-.1.1-.14,0-.41,0-.37-.3C112.39,336.05,112.51,336,112.58,336Z" transform="translate(-50.52 -2.61)"/><path d="M105.2,310a.5.5,0,0,1,.21-.1c.26,0,.25-.43.54-.33.07,0,.13.21.12.31-.08.42-.42.2-.66.25,0,0-.07,0-.11,0l0,0-.12-.15Z" transform="translate(-50.52 -2.61)"/><path d="M137.25,363c-.15.08,0,.44-.34.35-.13,0-.07-.3.08-.29s.2.12.26-.06Z" transform="translate(-50.52 -2.61)"/><path d="M100.6,73.27a1,1,0,0,1-.94-.07C100.07,73.17,100.33,73,100.6,73.27Z" transform="translate(-50.52 -2.61)"/><path d="M80.31,258.67l-.68.27C79.75,258.69,79.94,258.67,80.31,258.67Z" transform="translate(-50.52 -2.61)"/><path d="M108.38,319.23c0,.21-.13.22-.25.19s-.1-.1,0-.18.12-.2.18-.3Z" transform="translate(-50.52 -2.61)"/><path d="M199.36,298.37a.56.56,0,0,1-.39-.72s.15-.12.18-.1c.31.23.12.57.18.85Z" transform="translate(-50.52 -2.61)"/><path d="M88.7,283c-.14-.18-.13-.33.09-.45a.43.43,0,0,0,.2-.5c.3.42.14.71-.24.95Z" transform="translate(-50.52 -2.61)"/><path d="M138,362.15a.25.25,0,0,1-.08.39c-.14.07-.21-.07-.2-.19s.13-.25.31-.17Z" transform="translate(-50.52 -2.61)"/><path d="M78.93,245.14c-.28,0-.24-.25-.3-.42s0-.36.28-.34.13.2.1.34-.08.3-.12.45Z" transform="translate(-50.52 -2.61)"/><path d="M102.9,302.33c.31,0,.19.3.28.44s-.08.22-.18.16a.83.83,0,0,1-.3-.34S102.83,302.42,102.9,302.33Z" transform="translate(-50.52 -2.61)"/><path d="M84.08,265.73c-.31.28.27.58-.08.88-.12-.32-.26-.6.07-.87Z" transform="translate(-50.52 -2.61)"/><path d="M115,359.1c.21-.06.27.07.3.24s0,.15-.11.11l-.38-.23Z" transform="translate(-50.52 -2.61)"/><path d="M115.92,356l-.1-.2c-.08-.15-.43-.07-.29-.37,0,0,.15,0,.2,0,.23.12.36.29.16.54Z" transform="translate(-50.52 -2.61)"/><path d="M87,391.88c-.36,0-.57.23-.81.64,0-.78.3-.88.82-.63Z" transform="translate(-50.52 -2.61)"/><path d="M144.6,400.85a.46.46,0,0,1-.51.17s-.1-.15-.07-.17.35,0,.49-.15C144.55,400.66,144.64,400.75,144.6,400.85Z" transform="translate(-50.52 -2.61)"/><path d="M82.49,110.37c-.91.28-.26-.36-.56-.74.41.31.31.63.55.75Z" transform="translate(-50.52 -2.61)"/><path d="M108.19,324.58c.17-.27.63-.31.57-.77.22.25.1.52.13.77l0,0h-.76Z" transform="translate(-50.52 -2.61)"/><path d="M84.07,265.74c0-.42-.18-.82,0-1.25.29.41,0,.84.06,1.24Z" transform="translate(-50.52 -2.61)"/><path d="M105.25,94.37c-.09,0-.14-.07-.09-.14s.14-.22.22-.23.13.12.11.23A.18.18,0,0,1,105.25,94.37Z" transform="translate(-50.52 -2.61)"/><path d="M75.87,105.54a.21.21,0,0,0-.06.1c-.34,0-.2-.24-.26-.39s0-.16.15-.11A.35.35,0,0,1,75.87,105.54Z" transform="translate(-50.52 -2.61)"/><path d="M85.46,275.27s0,0,.06-.09l.27-.15s0,.08,0,.12S85.68,275.32,85.46,275.27Z" transform="translate(-50.52 -2.61)"/><path d="M92.17,296.94a.33.33,0,0,1-.39.17c-.09,0-.08-.09,0-.15a1.28,1.28,0,0,1,.3-.17C92.18,296.77,92.22,296.85,92.17,296.94Z" transform="translate(-50.52 -2.61)"/><path d="M199.33,298.4c.32.11.31.4.46.66-.57,0-.38-.43-.43-.69Z" transform="translate(-50.52 -2.61)"/><path d="M91.43,304.64c-.36,0-.5-.28-.56-.67.36.14.4.46.52.71Z" transform="translate(-50.52 -2.61)"/><path d="M82.67,271.56l0,0a.58.58,0,0,1-.11-.18c0-.1-.06-.26,0-.31s.15,0,.18.1S83.05,271.56,82.67,271.56Z" transform="translate(-50.52 -2.61)"/><path d="M97.85,306.07c.45.13.6-.3.87-.48C98.54,306.41,98.54,306.41,97.85,306.07Z" transform="translate(-50.52 -2.61)"/><path d="M105.52,309c-.1.33-.21.66-.32,1h0c-.11-.16-.39-.28-.07-.52a2.91,2.91,0,0,0,.38-.46Z" transform="translate(-50.52 -2.61)"/><path d="M83,265.35c.11.1.27.19.18.36s-.19.08-.29.12a1.71,1.71,0,0,1-.09-.3C82.75,265.41,82.81,265.32,83,265.35Z" transform="translate(-50.52 -2.61)"/><path d="M99.64,311.15l-.08.07-.26.13,0,0c0-.49.17-.77.68-.76l0,0Z" transform="translate(-50.52 -2.61)"/><path d="M82.83,264.29s.09.09.09.14,0,.2,0,.3l-.2,0Z" transform="translate(-50.52 -2.61)"/><path d="M106.32,314.12c.3,0,.63,0,.73-.26-.07.36-.39.32-.73.26Z" transform="translate(-50.52 -2.61)"/><path d="M106.6,318.09l0,0c.27.52,0,1.06.08,1.59h0A3.89,3.89,0,0,1,106.6,318.09Z" transform="translate(-50.52 -2.61)"/><path d="M103.66,321.94c.14,0,.14.14.14.25s-.06.14-.12.08-.13-.16-.2-.23Z" transform="translate(-50.52 -2.61)"/><path d="M78.68,259.84l-.11.24a.27.27,0,0,1-.1-.3,1.76,1.76,0,0,1,.09-.2Z" transform="translate(-50.52 -2.61)"/><path d="M80.17,257.08c-.17,0-.21-.05-.16-.11a2.62,2.62,0,0,1,.22-.25l.17.27Z" transform="translate(-50.52 -2.61)"/><path d="M109.05,326.91l-.06,0c.15-.13.27-.12.34.07a.28.28,0,0,1,0,.21c-.17.08-.27-.06-.37-.16s0-.08,0-.1S109,326.93,109.05,326.91Z" transform="translate(-50.52 -2.61)"/><path d="M79.12,248.68c0,.22.1.44,0,.53.13-.06-1-.41,0-.49Z" transform="translate(-50.52 -2.61)"/><path d="M115,342.52c.1.11.09.18,0,.19s-.22-.15-.25-.3-.09-.26.09-.21S115,342.44,115,342.52Z" transform="translate(-50.52 -2.61)"/><path d="M138,362.15l0,0c-.11-.12-.16-.28,0-.34a.21.21,0,0,1,.25.27C138.26,362.32,138.12,362.27,138,362.15Z" transform="translate(-50.52 -2.61)"/><path d="M137.25,363c.28.19.69-.28.91.18,0,0,0,.11,0,.11a2,2,0,0,1-.89-.29Z" transform="translate(-50.52 -2.61)"/><path d="M116.45,347.3a.41.41,0,0,1,.22-.54C116.71,347,116.7,347.2,116.45,347.3Z" transform="translate(-50.52 -2.61)"/><path d="M113.86,370.57c0,.1,0,.16-.06.11a.27.27,0,0,1-.08-.19c0-.05.09-.09.13-.14A1.7,1.7,0,0,1,113.86,370.57Z" transform="translate(-50.52 -2.61)"/><path d="M136.68,372.74l-.08.17-.19-.25s0-.06.07-.07S136.67,372.6,136.68,372.74Z" transform="translate(-50.52 -2.61)"/><path d="M97.68,88.16a.26.26,0,0,1,.24.21.41.41,0,0,1-.19,0c-.1,0-.25,0-.24-.13S97.61,88.2,97.68,88.16Z" transform="translate(-50.52 -2.61)"/><path d="M64.29,89c.09,0,.16,0,.16.09a3.44,3.44,0,0,1,0,.45c-.05,0-.13-.07-.17-.13A.3.3,0,0,1,64.29,89Z" transform="translate(-50.52 -2.61)"/><path d="M62.83,89.68l.44.12a.75.75,0,0,1-.68.33l0,0,.25-.5Z" transform="translate(-50.52 -2.61)"/><path d="M66,92.25l-.08.17a1.48,1.48,0,0,1-.1-.27c0-.06-.19-.21,0-.17C65.89,92,65.92,92.16,66,92.25Z" transform="translate(-50.52 -2.61)"/><path d="M106.88,315.39a.63.63,0,0,1,.07-.67H107a.56.56,0,0,0-.11.2c0,.15,0,.31,0,.47C106.89,315.38,106.88,315.39,106.88,315.39Z" transform="translate(-50.52 -2.61)"/><path d="M79.9,262.38c-.32-.07-.22-.41-.63-.63.66.09.57.41.6.66Z" transform="translate(-50.52 -2.61)"/><path d="M104.09,333.15c-.07.1.09.31-.15.33,0,0-.06-.05-.07-.08-.1-.3.2-.11.26-.21Z" transform="translate(-50.52 -2.61)"/><path d="M79.87,262.41c.21.07.31.2.2.41,0,0-.14.09-.16.07-.19-.16,0-.33,0-.51Z" transform="translate(-50.52 -2.61)"/><path d="M100.73,310.37c0,.72-.51.09-.74.22l0,0c0-.08,0-.16,0-.24l0,0h.76Z" transform="translate(-50.52 -2.61)"/><path d="M67.82,253a.58.58,0,0,1-.14.17c-.08.06-.18,0-.15,0a1.39,1.39,0,0,1,.25-.23Z" transform="translate(-50.52 -2.61)"/><path d="M89.64,269.89c-.06.14-.18.13-.29.13s-.15,0-.07-.1a1.21,1.21,0,0,1,.28-.18C89.63,269.72,89.67,269.8,89.64,269.89Z" transform="translate(-50.52 -2.61)"/><path d="M76.3,277.65c0,.06.11.11.12.18s0,.14-.07.07-.11-.17-.16-.25Z" transform="translate(-50.52 -2.61)"/><path d="M63.77,252.64a.51.51,0,0,0-.12-.2,2,2,0,0,0-.28-.19c.06,0,.12-.08.18-.08s.17.14.18.26a2,2,0,0,1,0,.24Z" transform="translate(-50.52 -2.61)"/><path d="M78.49,261.55c0,.06.1.12.1.18s0,.13-.1,0a1.63,1.63,0,0,0-.11-.17Z" transform="translate(-50.52 -2.61)"/><path d="M85.55,277c0-.05,0-.1.12-.07a.23.23,0,0,1,.14.13.71.71,0,0,1,0,.2Z" transform="translate(-50.52 -2.61)"/><path d="M62.21,246.23h.07a1,1,0,0,1-.12.17H62.1C62.14,246.34,62.17,246.28,62.21,246.23Z" transform="translate(-50.52 -2.61)"/><path d="M83.18,272c.2-.05.28-.34.53-.3-.1.29-.34.25-.56.28Z" transform="translate(-50.52 -2.61)"/><path d="M97.12,318.44a.7.7,0,0,1-.16.1.12.12,0,0,1-.1,0c-.07-.07,0-.14,0-.15A1,1,0,0,1,97.12,318.44Z" transform="translate(-50.52 -2.61)"/><path d="M115.32,343.7c-.06.06-.13.05-.17,0a.46.46,0,0,1-.06-.23c0-.1.07-.12.15,0A.26.26,0,0,1,115.32,343.7Z" transform="translate(-50.52 -2.61)"/><path d="M181.89,344.67c.05.05.13.09.15.15s.09.24-.09.23-.1-.12-.11-.19S181.88,344.73,181.89,344.67Z" transform="translate(-50.52 -2.61)"/><path d="M81.23,244.14c.09,0,.1,0,.07.12s0,.17,0,.2-.12,0-.11-.12A1.17,1.17,0,0,1,81.23,244.14Z" transform="translate(-50.52 -2.61)"/><path d="M80.55,232.35c0,.11,0,.21-.18.22s-.13,0-.08-.11a1.09,1.09,0,0,1,.13-.17C80.49,232.22,80.54,232.24,80.55,232.35Z" transform="translate(-50.52 -2.61)"/><path d="M105,323.9c.06.31,0,.37,0,.33s-.09-.13-.14-.17-.11-.14,0-.14S105,324,105,323.9Z" transform="translate(-50.52 -2.61)"/><path d="M92.33,294l-.11-.15s.06,0,.07,0l.15.15Z" transform="translate(-50.52 -2.61)"/><path d="M87.22,285.43c-.15.11-.38.2-.33.42s-.16.27-.31.34A1,1,0,0,1,87.22,285.43Z" transform="translate(-50.52 -2.61)"/><path d="M115.89,356c-.12.23-.36.24-.67.34.21-.34.47-.28.69-.31Z" transform="translate(-50.52 -2.61)"/><path d="M131.64,357.35c0,.16-.07.18-.11.07a.38.38,0,0,1,0-.21s.06-.09.1-.14Z" transform="translate(-50.52 -2.61)"/><path d="M116,358.1l-.18-.28s.07-.05.08,0a.44.44,0,0,1,.14.16A.37.37,0,0,1,116,358.1Z" transform="translate(-50.52 -2.61)"/><path d="M96.11,100.49c.06.08.18.17.18.26s-.14.13-.24.08-.21-.13-.17-.27S96,100.52,96.11,100.49Z" transform="translate(-50.52 -2.61)"/><path d="M137,362.11l.08,0c0,.06,0,.15,0,.19s-.12,0-.18,0Z" transform="translate(-50.52 -2.61)"/><path d="M77.84,257.9a.66.66,0,0,0,.09.19c.09.08.09.12,0,.08s-.09-.11-.12-.17S77.83,257.93,77.84,257.9Z" transform="translate(-50.52 -2.61)"/><path d="M91.17,100c-.1.11,0,.42-.28.33-.08,0-.2-.19-.18-.22.13-.21.32-.07.49-.07Z" transform="translate(-50.52 -2.61)"/><path d="M142.09,362.88l-.15.14s0-.06,0-.07l.14-.13Z" transform="translate(-50.52 -2.61)"/><path d="M72.85,258c0,.07.11.2-.07.24a1.55,1.55,0,0,1,0-.21c0-.09-.1-.21.07-.24Z" transform="translate(-50.52 -2.61)"/><path d="M142.59,364.83s.12-.09.17-.08.05.07,0,.12l-.15.05Z" transform="translate(-50.52 -2.61)"/><path d="M141.26,366.07c-.08,0-.15,0-.14-.09a.18.18,0,0,1,.15-.09s.11,0,.16.06Z" transform="translate(-50.52 -2.61)"/><path d="M114.55,367.56l0,.1a1.88,1.88,0,0,1-.24-.25s0-.07,0-.07A.26.26,0,0,1,114.55,367.56Z" transform="translate(-50.52 -2.61)"/><path d="M134.3,367.74c-.1,0-.13,0-.08-.1a.43.43,0,0,1,.15-.15c.08,0,.13,0,.09.11A.44.44,0,0,1,134.3,367.74Z" transform="translate(-50.52 -2.61)"/><path d="M106.61,322.31a1.72,1.72,0,0,1-.32,0c-.12,0-.14-.06-.05-.09a1.7,1.7,0,0,1,.22,0C106.56,322.18,106.61,322.21,106.61,322.31Z" transform="translate(-50.52 -2.61)"/><path d="M70.69,93.62l-.18.13c-.11.06-.21.08-.2-.09s.11-.08.17-.09A.8.8,0,0,1,70.69,93.62Z" transform="translate(-50.52 -2.61)"/><path d="M84.61,276.67c-.06,0-.12.08-.17.07s-.15-.13-.15-.25,0-.15.11-.08A1.83,1.83,0,0,1,84.61,276.67Z" transform="translate(-50.52 -2.61)"/><path d="M81.24,112c0,.12,0,.17-.07.12a1.33,1.33,0,0,1-.14-.19c-.06-.08,0-.13.08-.1S81.2,112,81.24,112Z" transform="translate(-50.52 -2.61)"/><path d="M76.08,90a1.3,1.3,0,0,1,0-.4c0-.09.21-.2.25-.18s0,.24,0,.35a1.84,1.84,0,0,1-.25.23Z" transform="translate(-50.52 -2.61)"/><path d="M79.9,111.51c0,.11,0,.16-.09.11s-.07-.13-.09-.2,0-.07,0-.11Z" transform="translate(-50.52 -2.61)"/><path d="M107.49,74.5a1.77,1.77,0,0,1-.23,0c-.11,0-.17-.07-.11-.11s.15,0,.22,0S107.53,74.43,107.49,74.5Z" transform="translate(-50.52 -2.61)"/><path d="M75.16,256.8h.07c0,.06-.06.14-.11.18s-.14,0-.1,0A2,2,0,0,1,75.16,256.8Z" transform="translate(-50.52 -2.61)"/><path d="M82.48,110.38c-.11.24,0,.69-.53.56l.54-.56Z" transform="translate(-50.52 -2.61)"/><path d="M79,255.66l-.15.15s0-.08,0-.09.14-.14.17-.12S79,255.51,79,255.66Z" transform="translate(-50.52 -2.61)"/><path d="M73.56,260c0,.1,0,.16-.08.11a1,1,0,0,1-.12-.17c-.07-.08,0-.12.06-.09S73.51,260,73.56,260Z" transform="translate(-50.52 -2.61)"/><path d="M105,402.57c0,.1,0,.08-.1,0a1.26,1.26,0,0,0-.17-.13s.13,0,.16,0A.71.71,0,0,1,105,402.57Z" transform="translate(-50.52 -2.61)"/><path d="M80,110.11l-.08.11a2.5,2.5,0,0,1-.23-.23c0-.06,0-.1.11-.1S80.05,109.94,80,110.11Z" transform="translate(-50.52 -2.61)"/><path d="M78.35,255.52l0,.11a.52.52,0,0,0-.12-.18c-.1-.08-.1-.13,0-.1S78.3,255.46,78.35,255.52Z" transform="translate(-50.52 -2.61)"/><path d="M78.55,109.45a2.78,2.78,0,0,1,.27.21c.05,0,0,.11-.1.1a.21.21,0,0,1-.19-.24S78.56,109.44,78.55,109.45Z" transform="translate(-50.52 -2.61)"/><path d="M79.57,260.09l-.3.09s0-.07,0-.07l.3-.15Z" transform="translate(-50.52 -2.61)"/><path d="M63,216.47a.55.55,0,0,1,0,.5c0-.1,0-.19-.06-.29A1.15,1.15,0,0,1,63,216.47Z" transform="translate(-50.52 -2.61)"/><path d="M170,378.36a18,18,0,0,1-2.92-1.7c-3.63-2.16-7.22-4.39-10.82-6.61a27.94,27.94,0,0,1-4.84-3.4,18.3,18.3,0,0,1-5.63-10.31,33,33,0,0,1-.21-9.46c.11-1.05.11-2.13.12-3.2,0-2.88.25-5.74.44-8.61,0-.38,0-.59-.45-.68-.89-.18-1.78-.43-2.68-.61-2.18-.43-4.37-.78-6.54-1.27a8,8,0,0,1-5.52-3.66,3.45,3.45,0,0,1-.53-1.93c.11-4.63.2-9.27.32-13.91q.16-6.35.39-12.7c.2-5.83.44-11.66.63-17.49.22-7.23.39-14.47.6-21.7.17-5.63.47-11.26.5-16.89,0-4.66.18-9.33.14-14,0-1.31.09-2.62.21-3.93.23-2.65.34-5.32.51-8,.31-5,.64-9.89.92-14.83.16-2.83.2-5.66.34-8.49.27-5.51.46-11,.91-16.51.24-2.93.37-5.88.52-8.82.16-3.23.45-6.46.62-9.69.12-2.3.12-4.61.21-6.92.13-3.26.09-6.52.32-9.78.11-1.46,0-2.93,0-4.4,0-1.9.12-3.8.18-5.71a3.28,3.28,0,0,0,0-.83,9.63,9.63,0,0,1,.07-3.93c.14-1.47.09-3,.33-4.4a20.16,20.16,0,0,0,.48-2.9,34.76,34.76,0,0,1,.69-4.52c.19-1.17.44-2.34.72-3.51.14-.58.21-.61.77-.79.3-.1.72.08.9-.39.05-.15.27-.12.28.13a1.85,1.85,0,0,1,0,.23c.73,0,1.05.65,1.6.91a10.91,10.91,0,0,0,2.13.72,10.35,10.35,0,0,1,2.6.71.67.67,0,0,0,1.06-.39,2.13,2.13,0,0,1,1.22-1.06,13.76,13.76,0,0,0,2.19-1.39,2.44,2.44,0,0,1,2.74-.38c.86.41,1.79.63,2.65,1.07,1,.52,1.24.39,1.59-.76a99.15,99.15,0,0,1,4.48-11.62A112.76,112.76,0,0,1,182.91,71.9c1.65-1.84,3.41-3.59,5.09-5.4a3.41,3.41,0,0,1,.91-.54c.74-.42,1.11-1.18,1.74-1.7a27.69,27.69,0,0,1,7.8-4.52c.7-.27,1.32-.66,2-1a41.8,41.8,0,0,1,5.12-1.42c2.29-.62,4.62-1.12,6.94-1.6a26.62,26.62,0,0,1,13.61.42,24.53,24.53,0,0,1,7.66,4.29A27.53,27.53,0,0,1,239.73,67c1.14,1.67,1.13,1.67-.56,2.61-5.23,2.89-7.7,7.81-7.17,13.8.25,2.82,1.09,5.54,1.59,8.33a57.26,57.26,0,0,1,.94,7.84c.06,1.19.09,2.38.15,3.57a12.27,12.27,0,0,1-.6,3.4c-1,4.49-2.35,8.88-3.69,13.27q-2.89,9.5-5.68,19a5.6,5.6,0,0,1-1.48,2.68,3.86,3.86,0,0,0-1.09,2c-.83,3.16-1.7,6.32-2.57,9.48a5.5,5.5,0,0,0,0,2.82,52.75,52.75,0,0,1,1.23,9c.21,2.85.34,5.71.5,8.58.31,5.94.29,11.88.21,17.83-.12,8.3-.14,16.61-.25,24.91,0,2.18-.1,4.37-.09,6.55,0,2.46,0,4.93.06,7.4,0,3.31,0,6.62,0,9.93-.07,3.54.05,7.09.05,10.63,0,7.27-.05,14.54,0,21.8.05,8-.09,16,.17,24,.1,3,.07,6,.2,8.95.31,7.15.39,14.3.43,21.45,0,2.32.08,4.63.13,6.94a10,10,0,0,1-.25,2.23,22.61,22.61,0,0,1-.49-4.31c-.13-2.17-.23-4.35-.34-6.52a54.28,54.28,0,0,0-1.12-8.6c-.28-1.36-.53-2.72-.77-4.09a1,1,0,0,0-.49-.77,5,5,0,0,0-3.43-.72c-.82.16-.88.27-.72,1.11a51.74,51.74,0,0,1,.72,5.69c.12,1.43.26,2.86.37,4.29.14,1.79.33,3.57.4,5.37.14,3.26.4,6.51.62,9.77.1,1.47.12,2.95.23,4.42a3.9,3.9,0,0,1,0,1.77,7,7,0,0,0-.16,2c0,.68,0,1.36-.09,2-.13,2.23-.34,4.45-.46,6.68-.11,2-.4,3.89-.66,5.83a112.46,112.46,0,0,1-2.73,14.56c-1.22,4.55-2.77,9-4.25,13.47-.88,2.68-1.56,5.42-2.3,8.14-.42,1.59-1,3.14-1.27,4.76-.54,2.92-1.57,5.73-1.83,8.72a56.3,56.3,0,0,0-.11,10.86A18.32,18.32,0,0,0,204.7,427a34.14,34.14,0,0,1,2.76,8.58,15.07,15.07,0,0,1-.58,5c-.61,2-2.4,2.9-4.36,3.32a15.54,15.54,0,0,1-6.3,0,58.18,58.18,0,0,0-14.9-.89c-1.86.12-3.73.31-5.59.55-1.38.17-2.78.15-4.17.28a102.42,102.42,0,0,1-17-.05c-3.19-.21-6.38-.37-9.57-.62a84.59,84.59,0,0,0-8.72-.45,1.35,1.35,0,0,1-1-.42,9.45,9.45,0,0,1,4.66-.66,2.5,2.5,0,0,0,1.69-.29,44.83,44.83,0,0,1,9.83-3.63,29.71,29.71,0,0,0,8-3.23,82.61,82.61,0,0,0,10.92-7.28c.47-.37.85-.58,1.28,0,.21.31.57.24.89.21,1.39-.14,2.78-.29,4.17-.39a7.33,7.33,0,0,0,2.33-.85,7.91,7.91,0,0,0,4.35-4.78c1-2.4,2.12-4.73,3-7.15a15.22,15.22,0,0,0,.82-4.33,83,83,0,0,0,.13-9.33c-.12-2.66-.11-5.33-.34-8-.12-1.42-.13-2.85-.26-4.27a16.36,16.36,0,0,1,.25-3c.34-3.42.62-6.84.62-10.27a34.6,34.6,0,0,0-.63-7.39,5.68,5.68,0,0,1,0-2.36,34.38,34.38,0,0,0,.55-6.87c0-1.46.15-2.91.08-4.36,0-1-.16-2-.17-3.06-.08-5.2-.6-10.38-.86-15.57-.2-3.89-.49-7.79-.89-11.66a134.42,134.42,0,0,0-1.69-13.75q-1.34-6.31-3-12.56c-1.17-4.27-2.25-8.57-3.34-12.86a11,11,0,0,0-.73-1.89,1.23,1.23,0,0,0-1.23-.78c-.51,0-.77.48-.94,1a17.45,17.45,0,0,0-.73,3.26c-.7,4.43-1,8.89-1.23,13.35-.35,5.34-.71,10.68-.91,16-.11,2.91-.24,5.82-.32,8.73-.09,3.2-.21,6.39-.31,9.58-.11,3.47-.24,6.94-.32,10.41-.13,4.91-.14,9.83-.37,14.74a60.34,60.34,0,0,1-.37,7.48c.51.27-.78.53,0,.9.36.17,0,.73,0,1.11l0,9.24C170.24,378,170.31,378.16,170,378.36Zm-.32-14.6c0-.14,0-.21-.11-.18s-.09.11-.13.17,0,.2,0,.18S169.65,363.8,169.71,363.76Z" transform="translate(-50.52 -2.61)"/><path d="M178.27,50.4a36.83,36.83,0,0,1-1-5.26c-.35-1.76-.88-3.48-1.39-5.2-.32-1.08-.44-2.21-.78-3.3-.19-.59-.49-1.13-.7-1.71-.41-1.13-.88-2.24-1.29-3.37-.29-.78-.45-.83-1.31-.69a5.34,5.34,0,0,0-2.23,1c-.87.6-1.92.93-2.85,1.46a32.25,32.25,0,0,1-3.16,1.3,1.7,1.7,0,0,1-.68.19,4,4,0,0,0-2,.63c-.85.39-1.64.94-2.71.6a7,7,0,0,1-3.88-2.2,2.72,2.72,0,0,1-.49-1.21,8.4,8.4,0,0,1,.47-4.93,6.41,6.41,0,0,0,.39-5.44c0-.09,0-.22,0-.41a4.47,4.47,0,0,1,1.58,2.77,6,6,0,0,1,.14,3c-.16.83-.26,1.66-.37,2.49a1.53,1.53,0,0,0,.11,1.1c.52-.26.54-.75.67-1.19a38,38,0,0,0,.72-5.21,7.9,7.9,0,0,1,1.74-3.85c2.72-3.42,6.21-6,9.5-8.74,1.46-1.24,3-2.43,4.42-3.68a21.24,21.24,0,0,1,3.13-2.2c1.21-.69,2.41-1.41,3.6-2.14a11.93,11.93,0,0,1,7-1.53,17.73,17.73,0,0,1,6.25,1.5c3,1.3,5.93,2.57,8.83,4A21.2,21.2,0,0,1,207.69,12a11.85,11.85,0,0,1,3,4.84,29.42,29.42,0,0,1,1.47,9.27,14.5,14.5,0,0,1-1.2,6.18,29.72,29.72,0,0,0-2.05,5.74,18.46,18.46,0,0,0,0,9.48c.14.49.23,1,.33,1.52a1.51,1.51,0,0,1-.05.33c-3.47-.3-6.8-1.44-10.35-1.44s-7,.22-10.46.5A49.52,49.52,0,0,0,178.27,50.4Z" transform="translate(-50.52 -2.61)"/><path d="M127.16,123.53c-.82,0-1.25-.73-2-.85-.27,0-.24-.36-.1-.59.25-.39.46-.8.72-1.18a.72.72,0,0,1,1.25-.06c.14.17.2.41.43.53.84.48.89.51.43,1.3C127.75,123,127.88,123.79,127.16,123.53Z" transform="translate(-50.52 -2.61)"/><path d="M139.9,95.09a10.33,10.33,0,0,1,1.25.67c.19.15-.07.78.34.69.63-.15.88.2,1.2.56a.73.73,0,0,1,.05.12c-.2.18-.54-.07-.73.32s-.57,0-.85,0-.57-.2-.21-.55c-.29-.24-.28-.68-.62-.9A1,1,0,0,1,139.9,95.09Z" transform="translate(-50.52 -2.61)"/><path d="M138.61,91.91a2.91,2.91,0,0,1-.92-.67c-.3-.41.43-.61.16-1.09-.15-.26.37-.17.58-.25s.38.06.49.24-.06.09-.1.13c-.73.73-.73.73-.2,1.47C138.64,91.76,138.62,91.81,138.61,91.91Z" transform="translate(-50.52 -2.61)"/><path d="M137.66,109.1c.29,0,.6-.24.88.09s.34.06.43-.15.08-.36.28-.28,0,.36.09.41c.59.41.5.89.28,1.43-.66-.11-.3-.95-.59-.93-.6,0-.76-.76-1.35-.58Z" transform="translate(-50.52 -2.61)"/><path d="M130.26,104.75c.47.08.74-.36,1.16-.52,0,.51.2,1-.14,1.36l-1-.86Z" transform="translate(-50.52 -2.61)"/><path d="M169.47,40a1.87,1.87,0,0,1-.88-.85c.31-.21.75.36,1-.14C169.91,39.41,169.13,39.63,169.47,40Z" transform="translate(-50.52 -2.61)"/><path d="M134.41,113.48l.33.85c-.34.09-.67.2-.77-.14s.12-.59.48-.69Z" transform="translate(-50.52 -2.61)"/><path d="M137.68,109.09c0-.38-.5-.49-.47-1,.32-.19.63.14,1,0l-.55.94Z" transform="translate(-50.52 -2.61)"/><path d="M136.62,114.23a.55.55,0,0,1,.49.66.35.35,0,0,1-.44.27c-.28,0-.14-.24,0-.3C137.13,114.62,136.15,114.45,136.62,114.23Z" transform="translate(-50.52 -2.61)"/><path d="M167.86,39.41c.14-.12-.42-.53.18-.45.26,0,.24.29.24.47s-.21.5-.45.43S167.88,39.56,167.86,39.41Z" transform="translate(-50.52 -2.61)"/><path d="M171.14,39.44c0,.08-.1.23-.17.24-.36.06-.37-.31-.52-.5s.13-.16.23-.18C171,38.94,171,39.21,171.14,39.44Z" transform="translate(-50.52 -2.61)"/><path d="M132.25,113.21c-.09,0-.19.13-.29.12-.32,0-.69-.3-.6-.52s.47,0,.7.14S132.27,113,132.25,113.21Z" transform="translate(-50.52 -2.61)"/><path d="M129.34,117.34a1.49,1.49,0,0,0-1-.15C128.84,116.91,128.84,116.91,129.34,117.34Z" transform="translate(-50.52 -2.61)"/><path d="M165.3,41.26a.72.72,0,0,1-.16.57.24.24,0,0,1-.31.09c-.2-.13-.1-.23.06-.33A4.23,4.23,0,0,0,165.3,41.26Z" transform="translate(-50.52 -2.61)"/><path d="M142,93.19c0,.15-.07.25-.19.24a.56.56,0,0,1-.56-.33c-.06-.14.07-.21.18-.23A.62.62,0,0,1,142,93.19Z" transform="translate(-50.52 -2.61)"/><path d="M130,111.7c-.54.19-.79,0-1-.45C129.44,111.16,129.62,111.52,130,111.7Z" transform="translate(-50.52 -2.61)"/><path d="M134.45,113.5c.15-.45.73-.51.9-1,.09.71-.6.65-.94.93Z" transform="translate(-50.52 -2.61)"/><path d="M125.08,115.8a1.8,1.8,0,0,1,.38.16c.15.17.52,0,.53.32,0,.06-.09.13-.15.16-.3.14-.39-.14-.55-.29A2.6,2.6,0,0,1,125.08,115.8Z" transform="translate(-50.52 -2.61)"/><path d="M166.83,40a.51.51,0,0,1-.59-.59s.13-.12.19-.11C166.89,39.33,166.7,39.72,166.83,40Z" transform="translate(-50.52 -2.61)"/><path d="M163.78,41c0-.52.32-.63.71-.8C164.39,40.66,164.09,40.75,163.78,41Z" transform="translate(-50.52 -2.61)"/><path d="M165.69,42.73c.1.25-.08.58-.19.55-.28-.07,0-.3,0-.47S165.6,42.69,165.69,42.73Z" transform="translate(-50.52 -2.61)"/><path d="M167,44.85v-.23c0-.16,0-.33.18-.38s.15,0,.18.09.1.32-.07.41a1.28,1.28,0,0,1-.34.07Z" transform="translate(-50.52 -2.61)"/><path d="M130.28,104.73s0-.07,0-.1c0-.32-.69-.35-.36-.81a.35.35,0,0,1,.19-.09c.22.31.42.62.19,1Z" transform="translate(-50.52 -2.61)"/><path d="M139.43,94.13a1.07,1.07,0,0,1-.05-1.11C139.42,93.48,139.58,93.7,139.43,94.13Z" transform="translate(-50.52 -2.61)"/><path d="M167,43.05a.46.46,0,0,1-.59-.16s0-.16.08-.17A.38.38,0,0,1,167,43.05Z" transform="translate(-50.52 -2.61)"/><path d="M167,44.85l0,0c.13.11.23.32.11.39a.34.34,0,0,1-.46-.2C166.54,44.73,166.77,44.79,167,44.85Z" transform="translate(-50.52 -2.61)"/><path d="M140.37,92.68l.28.24c-.05,0-.12.1-.14.09a1.44,1.44,0,0,1-.33-.27S140.21,92.63,140.37,92.68Z" transform="translate(-50.52 -2.61)"/><path d="M136.51,113.68a.38.38,0,0,1-.37.19.11.11,0,0,1-.09-.17.36.36,0,0,1,.37-.18C136.52,113.53,136.55,113.59,136.51,113.68Z" transform="translate(-50.52 -2.61)"/><path d="M149.3,113.58c-.1.12-.22.23-.39.18s-.08-.12-.11-.18a3.16,3.16,0,0,1,.43-.16C149.33,113.4,149.36,113.48,149.3,113.58Z" transform="translate(-50.52 -2.61)"/><path d="M167.73,41.8c0,.09,0,.13-.11.13s-.22,0-.25-.17,0-.16.1-.13A.9.9,0,0,1,167.73,41.8Z" transform="translate(-50.52 -2.61)"/><path d="M168.27,42.51a.17.17,0,0,1-.28.05.21.21,0,0,1-.08-.19.24.24,0,0,1,.18-.1C168.24,42.27,168.29,42.37,168.27,42.51Z" transform="translate(-50.52 -2.61)"/><path d="M145,107.55c-.07,0-.14.07-.2.06s-.18-.13-.09-.24a.23.23,0,0,1,.2,0S145,107.49,145,107.55Z" transform="translate(-50.52 -2.61)"/><path d="M141.23,94.41a.43.43,0,0,1,.13.17c0,.1,0,.15-.12.11a.36.36,0,0,1-.14-.18C141.07,94.43,141.13,94.39,141.23,94.41Z" transform="translate(-50.52 -2.61)"/></g></g></svg>