<svg xmlns="http://www.w3.org/2000/svg" viewBox="0 0 113.85 50.8"><defs><style>.cls-1{font-size:14px;fill:#231f20;stroke:#231f20;stroke-miterlimit:10;stroke-width:0.25px;font-family:Bespoke-hwGgghwE60, Bespoke;}.cls-2{fill:#b2c6e0;}</style></defs><title>Asset 6</title><g id="Layer_2" data-name="Layer 2"><g id="homepage"><g id="heading"><text class="cls-1" transform="translate(0.13 41.8)">terabithia</text></g><g id="feat.content"><g id="logo.img"><g id="featlogo"><g id="logomark"><path class="cls-2" d="M38,30.31c-2.07-4.5-4.29-8.53-5.7-9.82a3.76,3.76,0,0,1-.84-.86,65.82,65.82,0,0,1-3.37-5.9,11.93,11.93,0,0,1-.57-1.31c-.79-2.67.24-6.5-1-8.54a2.19,2.19,0,0,0-.91-1c-1.06-.44-2.61.58-4.38,7.71C23.46,1.61,25.6-.79,27.7.21a5,5,0,0,1,1.57,1.35c2,2.33,3.9,7.48,5.74,10.7a4.55,4.55,0,0,0,1.19,1.48.46.46,0,0,0,.75-.17c.08,1.21.22,2.53.44,4,.11.72.25,1.46.42,2.23.59,2.75,2.09,7.14,3.76,7.24.5,0,1.06-.32,1.7-1.34s1.68-3.3,2.62-7.94c-.19.82-.41,1.75-.59,2.48-.37,1.5-.75,2.9-1.14,4.07a15.18,15.18,0,0,1-1.42,3.19c-2,3.51-4.59.56-4.9,2.17Z"/></g></g></g></g></g></g></svg>