<svg xmlns="http://www.w3.org/2000/svg" viewBox="0 0 254.75 304.24"><title>logo</title><g id="Layer_2" data-name="Layer 2"><g id="Layer_1-2" data-name="Layer 1"><path d="M237.44,349.7c-3.1,1.42-6.86.22-7.24,4.88-.16,2.05-2.88.68-4.25.15-3.33-1.29-6.44-3.88-9.9-.07-.79.87-2.23-.12-3.18-.79-5.84-4.1-12.41-4.39-19.16-3.71-3.7.38-7.38.46-10.65-1.66-3.75-2.41-7.6-3.11-12.21-2.93-6.48.25-12.79-.09-18.62,3.51a9.92,9.92,0,0,1-7.74,1.13c-7.23-1.82-13.83-.09-20.06,3.59-1,.59-2.34,1.77-3.11.79-3.57-4.6-7.16-1.45-10.66-.21-2.26.81-4.2,1.83-4.52-1.83-.09-1.13-1-1.64-2-2-1.18-.48-3.14-.37-3.14-1.95,0-1.76,2-2.06,3.34-2.52,11.21-3.83,22.86-6,34.28-9,3.27-.86,6.59.69,9.85,1.23,5.21.87,8.32-.67,10.45-5.81,2-4.79,1-9.11,0-13.64a2.61,2.61,0,0,0-2.53-2.07c-13.16-.9-22.89-9.32-33.63-15.46-10.55-6-21-12.32-32.62-16.08a11.84,11.84,0,0,1-7.36-6.39c-4.52-9.88-12.26-17-20.51-23.44-5.88-4.61-9-10.18-8.95-17.46.21-16.93-3.75-33-9.78-48.62-2.77-7.22-2-8.35,5.57-10.27s7.5-1.89,7.61-9.7c.09-7.16.27-14.34,0-21.49a17.16,17.16,0,0,1,4-12.5c2.56-2.92,2.33-5.4.21-8-3.66-4.44-6.25-8.77-3.42-14.9,1.29-2.79-1.28-5.32-3.24-7.38-2.4-2.54-2.82-4.83.33-7,2.59-1.8,1.79-4.43,1.62-6.86-.2-2.81-1-5.71,2.82-7,1.48-.5,1.67-2,1.06-3.38-1.58-3.59-.07-4.94,3.47-5,2.73-.08,6.14.71,4.49-4.37-.56-1.75,1.74-2.06,3.26-2.06,2.63,0,4.86-.17,5.7-3.47.7-2.72,3.28-1.76,5.11-1.54,2.49.3,4.42.42,5.6-2.53,1-2.55,3.36-1.64,5.17-.79,3.23,1.51,6.33,1.89,9.51-.1,2.21-1.38,4.55-.7,6.78-.06a51.19,51.19,0,0,0,12.87,1.5c3.74.1,6.14-.82,6-5.21-.06-1.76,0-4.18,1.69-4.94,2-.89,2.41,1.76,3.5,2.83,2.25,2.19,3.82,1.47,5-1,1.48-3,3.19-3.59,5.58-.86,1.87,2.12,3.83,2.12,6.08.26,2.65-2.19,5.16-3.34,5,2-.1,3.8,1.64,4.43,4.66,2.37,1.09-.75,2.31-1.66,3.6-.62,1.05.84.62,2.17.43,3.3-.48,2.79-1.15,5.55-1.54,8.35-.29,2.12-1.31,3.08-3.42,3.59-15.26,3.67-30.65,6.38-46.42,5.26-8.45-.59-16.13,1.53-23.66,5-3.1,1.44-5.34,3.31-5.68,6.91-2,21.58-7.59,42.6-9.9,64.14a46.13,46.13,0,0,0,2.11,18.27c2.71,8.93,1.73,17.84,1.73,26.77,0,12.66-.45,25.32.62,38a14.35,14.35,0,0,0,4.77,10c11,10.3,22,20.65,31.81,32.28A34.16,34.16,0,0,0,133,290.54a35.69,35.69,0,0,1,16.41,7.95c1.48,1.27,3.46,2,5.18,3,3.59,2.12,6.16,1.16,8.35-2.31,3.76-6,7.81-5.92,11.56.1,2.33,3.75,5.26,4.33,8.87,2.17,2-1.19,3.83-2.64,5.78-3.92a44,44,0,0,1,13-5.92c10.12-2.69,18.9-7.92,25.45-16.52,7.49-9.85,17.25-17.48,26.25-25.82,3.87-3.58,6.36-7,7-12.49,1.74-15.47,1.05-31,1.1-46.44a90.19,90.19,0,0,1,3.25-23.65c1.4-5.08,1.12-10.28.32-15.38-1.65-10.51-2.69-21.1-4.71-31.58C259,110.24,258,100.61,257,91c-.44-4-2.38-5.82-5.83-7.72-9.51-5.26-19.64-5.77-30-5.24-12.46.64-24.47-2.29-36.58-4.45-4-.71-6.79-2.32-6.94-6.88,0-1.47-.7-2.92-.87-4.4-.21-1.73-1.72-3.75,0-5.14s3,.72,4.45,1.29c3,1.17,4.48.28,4.17-3.11-.33-3.72,1-4.35,3.83-1.93,2.34,2,4.55,2.48,6.92-.19,2-2.22,3.7-2.31,5.25.85,2.21,4.52,2.89,4.47,6.54.44.76-.83,1.23-2.26,2.65-1.8s1.25,1.81,1.42,3c1.08,7.12,2.1,8,9.25,7.24a62,62,0,0,0,8.8-1.83c3.13-.82,5.91-1.47,8.82,1.14,2.46,2.22,5.44.08,8.08-.55,2.45-.57,4.37-1.09,5.84,1.79,1.32,2.58,4,2,6.26,1.52,2.5-.57,4.25-.38,4.86,2.52A3.76,3.76,0,0,0,267,70.44c2.23.51,3.87,1.2,4.2,4,.27,2.4,2.76,2,4.52,1.89,3.48-.21,5.74.41,4.29,4.71-.28.85-.18,2.6.24,2.78,5.05,2.2,3.63,6.37,3.38,10.23a4.4,4.4,0,0,0,1.16,3.72c3.88,3.29,2.27,6.38-.1,9.57-1.72,2.31-3.41,4.81-2.05,7.8,2.06,4.53.64,8.25-2.62,11.26-4.38,4.05-4.18,7.72-.15,11.78,2.62,2.63,3.24,5.87,3.09,9.63-.34,8.48-.16,17-.23,25.48,0,4,1.85,6,5.87,6.63,8.95,1.44,9.7,2.77,6.46,11-5.74,14.52-9.44,29.55-9.86,45.14-.26,9.43-3.78,16.46-11.18,22.07C266.36,264,259,270,255.24,279.55c-1.93,4.92-7.08,6.21-11.67,7.72-13.74,4.54-25.32,13.12-37.81,20-7.37,4.06-14.41,9-23.43,9.13-5.66.05-4.37,5.18-5,8.3-1.83,9.42,3.16,14.75,12.45,13.22a34.46,34.46,0,0,1,17.61,1.74c7.83,2.79,16.31,3.25,24,6.53A16.62,16.62,0,0,1,237.44,349.7Z" transform="translate(-42.09 -51.43)"/><path d="M240.73,167.1c-.48,14.65-6.3,29.59-16.43,42.94a21.53,21.53,0,0,1-3.3,3c-4.39,3.78-5.79,7.75-4.26,14a44.5,44.5,0,0,1-8.12,38.76c-12,15.65-28.16,21.71-47.46,19.27-27.38-3.47-46.76-33.17-39-59.66,1.35-4.59.49-7.74-2.87-11.14-21.72-22-26.8-53.45-13-80.47,18-35.27,61.56-48.8,96.64-30.53C225.87,115.25,240.74,139.69,240.73,167.1ZM165,124.43a37,37,0,0,0-15.78,1.67c-6.23,2.15-11.89,4.71-12.73,12.8a46.43,46.43,0,0,1-4.21,15.33c-5.53,11.24-7.6,22-1,33.69,3.75,6.6,4.88,14.75,9.39,20.86a45.85,45.85,0,0,1,8.91,34.68c-.45,3.46-.7,6.95-.9,10.44-.77,13.42,12.92,23.57,26.17,20,8.27-2.23,13.67-8.63,14.12-17.17.27-5.14.57-10.42-.29-15.44a35.29,35.29,0,0,1,3.7-23.2c5.06-9.5,10.57-18.69,14.7-28.75,3.86-9.41,7.32-18.62,2.56-28.2-4.18-8.39-5.26-17.45-7.77-26.2-.41-1.45-.43-3.07-1.91-3.86-5.55-3-10.94-6.49-17.54-6.62C176.65,124.34,170.83,124.43,165,124.43Z" transform="translate(-42.09 -51.43)"/><path d="M170,212c-8.47,0-8.82-.9-6.72-8.8,1.94-7.3,5.11-14.52,3.16-22.45-.61-2.48.59-4.92,1.19-7.33.93-3.76-.57-5.33-4.4-5a11.39,11.39,0,0,0-7.66,4.07,13.25,13.25,0,0,1-21.74-3,12.8,12.8,0,0,1,20-15.08,26,26,0,0,1,5.13,7.3,8,8,0,0,0,8.15,4.45c1.65-.12,3.31-.23,5-.31,4.48-.21,7.75-1.65,9.58-6.39,2.81-7.24,11.2-9.79,18.5-6.19,6.09,3,8.28,11.31,4.67,17.69-4.18,7.39-16.61,8.33-21.79,1-3-4.19-6.49-3.25-10.1-3.28-2.95,0-2.16,2.3-1.86,4.06,1.93,11.52,1.35,23.36,5.2,34.7C178.38,213.84,172.26,211.08,170,212Z" transform="translate(-42.09 -51.43)"/><path d="M168.57,232.58c10.68.15,10.69.15,7.25,10.32q-2.55,7.57-5.17,15.11c-.38,1.08-.78,2.39-2.26,2.21-1.11-.13-1.5-1.25-1.82-2.19-2.52-7.22-3.95-14.77-6.87-21.88-.93-2.26.72-3.41,2.88-3.54C164.57,232.49,166.57,232.58,168.57,232.58Z" transform="translate(-42.09 -51.43)"/></g></g></svg>