<svg xmlns="http://www.w3.org/2000/svg" viewBox="0 0 138.77 94.68"><defs><style>.cls-1{font-size:14px;fill:#231f20;stroke-width:0.25px;font-family:Bespoke-hwGgghwE60, Bespoke;}.cls-1,.cls-2{stroke:#231f20;stroke-miterlimit:10;}.cls-2{fill:none;stroke-width:0.5px;}</style></defs><title>symbol</title><g id="Layer_2" data-name="Layer 2"><g id="homepage"><g id="heading"><text class="cls-1" transform="translate(25.04 58.83)">terabithia</text></g><g id="feat.content"><g id="logo.img"><g id="featlogo"><g id="logomark"><path class="cls-2" d="M83.14,93.11C72.72,78.88,61.42,66.05,54.32,62.44A17.09,17.09,0,0,1,50.1,60c-5.48-4.41-12-11.62-16.63-16.82a27.43,27.43,0,0,1-2.77-3.9C26.9,31,32.18,18.61,26.1,12.5a9.26,9.26,0,0,0-4.4-2.9C16.54,8.32,9,11.51.23,33.69,11.25,5.57,21.85-2.13,32.3.85a24.72,24.72,0,0,1,7.82,4.1C50,12.08,59.57,28,68.91,38.18A20.13,20.13,0,0,0,75,43c1.7.72,3,.61,3.94-.26a78.49,78.49,0,0,0,1.92,11.82c.52,2.15,1.17,4.4,2,6.74,2.81,8.29,10.29,21.85,18.7,22.09,2.53,0,5.38-1.08,8.63-4.33,3.75-3.49,8.49-10.5,13.29-25.22-1,2.65-2.11,5.62-3,8a123.23,123.23,0,0,1-5.83,12.94,42.22,42.22,0,0,1-7.21,10c-10,11.06-23.34,1.47-25,6.31Z"/></g></g></g></g></g></g></svg>