<?xml version="1.0" encoding="utf-8"?>
<!-- Generator: Adobe Illustrator 21.0.0, SVG Export Plug-In . SVG Version: 6.00 Build 0)  -->
<svg version="1.1" id="Layer_1" xmlns="http://www.w3.org/2000/svg" xmlns:xlink="http://www.w3.org/1999/xlink" x="0px" y="0px"
	 viewBox="0 0 252.8 252.8" style="enable-background:new 0 0 252.8 252.8;" xml:space="preserve">
<style type="text/css">
	.st0{fill:none;stroke:#231F20;stroke-width:0.25;stroke-miterlimit:10;}
	.st1{fill:#231F20;}
</style>
<title>Asset 1</title>
<g id="Layer_2">
	<g id="homepage">
		<g id="feat.content">
			<g id="logo.img">
				<g id="biglogo">
					<g id="curvedtext">
						<path class="st0" d="M68.3,186.3c-1.7,0.1-3.3,0.3-5,0.6c-1.4-0.7-2.8-1.4-4.2-2.1c-5.6,0.9-11,2.6-16.1,5.1
							c-2.2-1.3-4.3-2.7-6.3-4.3c5.3-2.3,10.8-3.9,16.5-4.6c-1.3-0.9-2.5-1.9-3.7-3c1.8-0.2,3.5-0.3,5.2-0.3c1.2,1,2.4,2,3.6,2.9
							c9.2-0.3,18.4,1.7,26.6,6c1.8,1.3,3.7,2.4,5.6,3.5c-8.1-4.2-17.2-6.1-26.4-5.6C65.5,185,66.9,185.7,68.3,186.3z"/>
						<path class="st0" d="M54.4,153.8c6.7,6.2,13.3,12.5,19.8,18.9l0.1,0.1c-3.7,0.2-7.3,1.3-10.6,3.1c-3.4-1.6-8.6-3.9-15.6-6.8
							s-12.5-4.7-16.1-6l-0.1-0.1c2.4-2.3,4.9-4.4,7.7-6.2c2.5-1.7,5.2-3.2,8.1-4.4c0.7-0.3,1.4-0.6,2.2-0.9
							c0.9,0.3,1.7,0.5,2.5,0.8C54,158.8,57,165,61,170.5c3.1-0.5,6.2-0.5,9.2-0.1l-0.1-0.1c-1.6-1.3-4-3.3-7.3-5.9
							s-5.9-4.4-7.7-5.6C54.8,157.1,54.6,155.4,54.4,153.8z M49.7,158.2c-4.2,0.9-8.3,2.4-12.2,4.4l0.1,0.1
							c6.3,1.8,12.5,4.1,18.5,6.7C53.6,165.9,51.4,162.2,49.7,158.2z"/>
						<path class="st0" d="M64.6,152.5c-10.7-6.4-22.7-10.2-35.1-11.1c-0.4-2.4-0.7-4.9-0.9-7.4c4,0.5,7.9,1.2,11.7,2.2
							c-1.8-1-4.6-2.6-8.6-4.5s-7-3.1-9.1-3.9v-0.1c6.1-3.1,12.5-5.5,19.1-7c0.8,2,1.6,4,2.5,6c-1.7,0-4.2,0.1-7.6,0.5
							s-6,0.9-7.8,1.2v0.1c1.7,0.9,4.3,2.2,7.5,4.1s5.6,3.4,7.2,4.5c7.3,2.1,14.2,5.3,20.6,9.3C64.2,148.4,64.3,150.4,64.6,152.5z"
							/>
						<path class="st0" d="M78.2,112.4c-1.5,1.6-2.9,3.4-4.2,5.2c-1.8-1.5-3.7-3-5.8-4.5c2.4,4.1,4.6,8.3,6.6,12.5l-0.1,0.1
							c-2.7,0.1-5.4,0.5-8.1,0.9c-2.7,0.5-5.4,1.1-8,1.9c-1-2.1-2.6-5.2-4.6-9.4s-3.5-7.4-4.5-9.5l0.1-0.1c5,0,10,0.3,14.9,1.1
							c-3.8-2.5-7.8-4.7-11.9-6.7c-2-0.2-5-0.4-9-0.4s-7.2,0.3-9.3,0.5l-0.1,0.2c4.4,3.6,8.6,7.2,12.6,11.1
							c-1.9,0.8-3.7,1.7-5.5,2.6c-4.5-5.2-9.1-10.3-13.8-15.4l0.1-0.2c4.8-1.5,9.7-2.6,14.7-3.4c4.8-0.8,9.7-1.2,14.6-1.3
							C64.5,101.7,71.7,106.7,78.2,112.4z M55.1,112.2L55.1,112.2c1.8,3.4,3.7,6.8,5.5,10.1c1.1-0.1,2.8-0.2,4.9-0.2
							c2.1,0,3.8,0.1,4.9,0.1l0.1-0.1c-0.5-1.1-1.2-2.8-2.1-5.1s-1.7-4-2.2-5.2C62.6,111.8,58.8,111.9,55.1,112.2z"/>
						<path class="st0" d="M84.6,106.5c-14-13.8-34.5-25.7-59.9-31.8c1.8-2.5,3.8-5,5.9-7.4c14.4,4,28,10.3,40.4,18.6
							c-1.6-2.2-4.2-5.6-7.9-9.9s-6.9-7.5-8.9-9.6l0.2-0.1c14.7,0.7,29.1,3.8,42.8,9c1.8,9.1,3.1,18.2,3.9,27.4l-0.1,0.1
							c-3.6-2.5-7.4-4.9-11.3-6.9c-4.1-2.2-8.3-4.1-12.7-5.8c4.8,3.7,9.4,7.7,13.5,12.2C88.4,103.6,86.5,105,84.6,106.5z M61.2,69.8
							L61,69.9c1.6,2,4,5,6.8,9S72.7,86,74,88c8,2.5,15.7,5.8,22.9,10l0.1-0.1c-2.2-6.6-4.8-13-7.9-19.3c-4.4-2-8.9-3.7-13.5-5.1
							C70.9,72,66.1,70.8,61.2,69.8z"/>
						<path class="st0" d="M68.1,40.5c6.6,0.5,13.1,1.4,19.5,2.7l0.2,9.9c-2-0.4-5-1-9.1-1.5s-7.2-0.8-9.2-1
							C69,47.2,68.6,43.9,68.1,40.5z M119.3,91.5c-9.2-13.8-20.8-25.8-34.4-35.4c3-1.2,6.2-2.3,9.4-3.2
							c13.3,10.4,24.5,23.3,33.2,37.8C124.7,90.8,122,91.1,119.3,91.5L119.3,91.5z"/>
						<path class="st0" d="M107,56.5c-1.9-1.9-4-3.7-6.1-5.5c2.2-0.5,4.4-1,6.7-1.3C101,43.6,93.8,38,86.3,33c3.6-1,7.3-2,11.1-2.7
							c7.4,5.5,14.4,11.5,20.8,18.1c2.4-0.2,4.7-0.3,7.1-0.4c1.9,2.1,3.8,4.3,5.5,6.5c-2.3,0-4.7,0-7,0.1
							c9.9,11.1,17.9,23.8,23.6,37.5c-2.9-0.6-5.8-1-8.7-1.2c-6.4-13.1-15-25-25.2-35.4C111.4,55.8,109.2,56.1,107,56.5z"/>
						<path class="st0" d="M160.8,95.8c-7.2-23.6-22.4-47.5-45.8-67.9c4-0.3,8-0.4,12.1-0.4c10.2,10,19.2,21.3,26.5,33.6
							c-0.3-1.9-0.7-4.7-1.4-8.5s-1.4-6.7-1.8-8.6h0.2c5.7,4.2,11,8.9,16.1,13.8c5,4.9,9.5,10.2,13.7,15.8c4.7,12.7,7.6,26,8.6,39.5
							c-2.5-2.3-5.1-4.5-7.9-6.4c-1.9-13-5.6-25.7-11-37.6c-1.4-2-3.6-5-6.8-8.9s-5.9-6.7-7.6-8.5h-0.2c0,1.5,0.1,3.6,0.1,6.5
							s0,5,0,6.4c6.2,11,10.9,22.8,13.8,35.1C166.7,98.1,163.8,96.9,160.8,95.8z"/>
						<path class="st0" d="M176.3,37.3c6.2,5.4,12,11.3,17.4,17.7l-5.2,6.8c-1.7-2-4.2-5-8-8.7s-6.7-6.4-8.6-8.1L176.3,37.3z
							 M196.5,120.9c-0.1-20.5-4.3-40.8-12.5-59.7c3.7,1.8,7.2,3.9,10.7,6.1c7,20.1,9.8,41.3,8.4,62.5
							C201.1,126.7,198.8,123.7,196.5,120.9L196.5,120.9z"/>
						<path class="st0" d="M220.9,188.6c-0.3-5.1-0.8-10.2-1.6-15.3c1.4-4.4,2.7-8.8,3.9-13.3c-3,3.7-6,7.2-9.1,10.6l-0.1-0.3
							c0.5-8.2,0.4-16.5-0.4-24.6c-0.7-7.7-2.1-15.3-4.1-22.7c1.5-0.6,3.7-1.6,6.7-2.8l6.7-2.7l0.1,0.2c1.8,11.3,2.5,22.7,2.1,34.2
							c1.6-7.8,2.8-15.7,3.5-23.6c-0.5-6.3-1.3-12.5-2.4-18.7c-1.1-6.1-2.6-12.1-4.5-18l-0.2-0.2c-1.4,5.6-3,11-4.8,16.3
							c-1.6-4.5-3.5-8.8-5.6-13.1c3-4.4,5.9-9,8.7-13.7l0.2,0.2c4.1,9.3,7.4,19,9.7,29c2.4,10.4,3.8,21,4.2,31.7
							C231.3,157.8,227,173.5,220.9,188.6z M222.5,128.2l-0.1-0.3c-2.2,2-4.4,3.9-6.6,5.8c0.4,2.9,0.9,7.2,1.1,13.1s0.1,10.4,0,13.4
							l0.1,0.3l3.6-2.3c1.6-1,2.8-1.8,3.6-2.3C224.4,146.6,223.8,137.4,222.5,128.2L222.5,128.2z"/>
					</g>
					<g id="logomark">
						<path class="st1" d="M138.7,182.7c-5.2-11-10.8-21-14.3-24.1c-0.8-0.6-1.5-1.3-2.1-2.1c-2.7-3.8-6.1-10.1-8.4-14.4
							c-0.5-1-1-2.1-1.4-3.2c-2-6.6,0.6-16-2.5-21c-0.5-1-1.3-1.8-2.3-2.3c-2.7-1.1-6.5,1.4-11,18.9c5.6-22.2,11-28.1,16.2-25.6
							c1.5,0.8,2.9,1.9,3.9,3.3c4.9,5.7,9.8,18.4,14.4,26.3c0.7,1.4,1.8,2.7,3,3.6c0.8,0.5,1.5,0.4,1.9-0.4c0.2,3,0.5,6.2,1.1,9.7
							c0.3,1.8,0.6,3.6,1.1,5.5c1.5,6.7,5.2,17.5,9.4,17.8c1.2,0,2.7-0.8,4.3-3.3c1.9-2.7,4.2-8.1,6.6-19.5c-0.5,2-1,4.3-1.5,6.1
							c-0.9,3.7-1.9,7.1-2.9,10c-0.9,2.7-2.1,5.4-3.6,7.8c-4.9,8.6-11.5,1.4-12.3,5.3L138.7,182.7z"/>
					</g>
				</g>
			</g>
		</g>
	</g>
</g>
</svg>
